<svg width="17" height="16" viewBox="0 0 17 16" fill="none" xmlns="http://www.w3.org/2000/svg">
<path d="M7.24186 0.874578C7.54121 -0.0467328 8.84462 -0.046735 9.14398 0.874576L10.3258 4.51186C10.4597 4.92389 10.8436 5.20285 11.2769 5.20285H15.1013C16.0701 5.20285 16.4728 6.44246 15.6891 7.01186L12.5951 9.25983C12.2446 9.51448 12.0979 9.96584 12.2318 10.3779L13.4136 14.0152C13.713 14.9365 12.6585 15.7026 11.8748 15.1332L8.7807 12.8852C8.43022 12.6306 7.95562 12.6306 7.60513 12.8852L4.51107 15.1332C3.72736 15.7026 2.67288 14.9365 2.97223 14.0152L4.15406 10.3779C4.28793 9.96584 4.14127 9.51448 3.79079 9.25983L0.696725 7.01186C-0.0869891 6.44246 0.315786 5.20285 1.28451 5.20285H5.10898C5.5422 5.20285 5.92616 4.92389 6.06004 4.51186L7.24186 0.874578Z" fill="#C4C4C4"/>
</svg>
