<svg width="61" height="60" viewBox="0 0 61 60" fill="none" xmlns="http://www.w3.org/2000/svg">
<path d="M30.7201 11.8938C29.8493 11.8926 29.0146 11.5461 28.399 10.9303C27.7834 10.3144 27.4372 9.4796 27.4362 8.60885V3.28385C27.4362 2.41292 27.7822 1.57766 28.3981 0.961817C29.0139 0.345976 29.8492 0 30.7201 0C31.591 0 32.4263 0.345976 33.0421 0.961817C33.658 1.57766 34.0039 2.41292 34.0039 3.28385V8.60885C34.003 9.4796 33.6568 10.3144 33.0412 10.9303C32.4256 11.5461 31.5909 11.8926 30.7201 11.8938ZM30.7201 2.30769C30.4612 2.30769 30.2129 2.41054 30.0299 2.5936C29.8468 2.77667 29.7439 3.02495 29.7439 3.28385V8.60885C29.7439 8.73704 29.7692 8.86397 29.8182 8.9824C29.8673 9.10084 29.9392 9.20845 30.0299 9.29909C30.1205 9.38974 30.2281 9.46164 30.3465 9.5107C30.465 9.55975 30.5919 9.585 30.7201 9.585C30.8483 9.585 30.9752 9.55975 31.0937 9.5107C31.2121 9.46164 31.3197 9.38974 31.4103 9.29909C31.501 9.20845 31.5729 9.10084 31.6219 8.9824C31.671 8.86397 31.6963 8.73704 31.6963 8.60885V3.28385C31.6963 3.02495 31.5934 2.77667 31.4103 2.5936C31.2273 2.41054 30.979 2.30769 30.7201 2.30769Z" fill="white"/>
<path d="M9.33009 33.2838H4.00394C3.13301 33.2838 2.29775 32.9378 1.68191 32.322C1.06607 31.7062 0.720093 30.8709 0.720093 30C0.720093 29.129 1.06607 28.2938 1.68191 27.6779C2.29775 27.0621 3.13301 26.7161 4.00394 26.7161H9.33009C10.201 26.7161 11.0363 27.0621 11.6521 27.6779C12.268 28.2938 12.6139 29.129 12.6139 30C12.6139 30.8709 12.268 31.7062 11.6521 32.322C11.0363 32.9378 10.201 33.2838 9.33009 33.2838ZM4.00394 29.0238C3.87575 29.0238 3.74881 29.0491 3.63038 29.0981C3.51195 29.1472 3.40434 29.2191 3.31369 29.3097C3.22305 29.4004 3.15115 29.508 3.10209 29.6264C3.05303 29.7448 3.02779 29.8718 3.02779 30C3.02779 30.1282 3.05303 30.2551 3.10209 30.3735C3.15115 30.492 3.22305 30.5996 3.31369 30.6902C3.40434 30.7809 3.51195 30.8528 3.63038 30.9018C3.74881 30.9509 3.87575 30.9761 4.00394 30.9761H9.33009C9.58899 30.9761 9.83727 30.8733 10.0203 30.6902C10.2034 30.5072 10.3062 30.2589 10.3062 30C10.3062 29.7411 10.2034 29.4928 10.0203 29.3097C9.83727 29.1267 9.58899 29.0238 9.33009 29.0238H4.00394Z" fill="white"/>
<path d="M30.7201 60C29.8495 59.9988 29.015 59.6524 28.3994 59.0368C27.7838 58.4213 27.4375 57.5867 27.4362 56.7161V51.3911C27.4362 50.5202 27.7822 49.685 28.3981 49.0691C29.0139 48.4533 29.8492 48.1073 30.7201 48.1073C31.591 48.1073 32.4263 48.4533 33.0421 49.0691C33.658 49.685 34.0039 50.5202 34.0039 51.3911V56.7161C34.0027 57.5867 33.6564 58.4213 33.0408 59.0368C32.4252 59.6524 31.5907 59.9988 30.7201 60ZM30.7201 50.4138C30.4611 50.4141 30.2128 50.5172 30.0298 50.7005C29.8468 50.8837 29.7439 51.1321 29.7439 51.3911V56.7161C29.7439 56.8443 29.7692 56.9713 29.8182 57.0897C29.8673 57.2081 29.9392 57.3157 30.0299 57.4064C30.1205 57.497 30.2281 57.5689 30.3465 57.618C30.465 57.667 30.5919 57.6923 30.7201 57.6923C30.8483 57.6923 30.9752 57.667 31.0937 57.618C31.2121 57.5689 31.3197 57.497 31.4103 57.4064C31.501 57.3157 31.5729 57.2081 31.6219 57.0897C31.671 56.9713 31.6963 56.8443 31.6963 56.7161V51.3911C31.6963 51.1321 31.5934 50.8837 31.4104 50.7005C31.2274 50.5172 30.9791 50.4141 30.7201 50.4138Z" fill="white"/>
<path d="M57.4363 33.2838H52.1101C51.2392 33.2838 50.4039 32.9378 49.7881 32.322C49.1722 31.7062 48.8263 30.8709 48.8263 30C48.8263 29.129 49.1722 28.2938 49.7881 27.6779C50.4039 27.0621 51.2392 26.7161 52.1101 26.7161H57.4363C58.3072 26.7161 59.1425 27.0621 59.7583 27.6779C60.3741 28.2938 60.7201 29.129 60.7201 30C60.7201 30.8709 60.3741 31.7062 59.7583 32.322C59.1425 32.9378 58.3072 33.2838 57.4363 33.2838ZM52.1101 29.0238C51.8512 29.0238 51.6029 29.1267 51.4199 29.3097C51.2368 29.4928 51.134 29.7411 51.134 30C51.134 30.2589 51.2368 30.5072 51.4199 30.6902C51.6029 30.8733 51.8512 30.9761 52.1101 30.9761H57.4363C57.6952 30.9761 57.9434 30.8733 58.1265 30.6902C58.3096 30.5072 58.4124 30.2589 58.4124 30C58.4124 29.7411 58.3096 29.4928 58.1265 29.3097C57.9434 29.1267 57.6952 29.0238 57.4363 29.0238H52.1101Z" fill="white"/>
<path d="M32.6355 52.1539C32.3295 52.1675 32.0306 52.059 31.8045 51.8522C31.5785 51.6455 31.4439 51.3574 31.4303 51.0514C31.4167 50.7454 31.5252 50.4465 31.7319 50.2205C31.9387 49.9944 32.2268 49.8598 32.5328 49.8462C37.1762 49.4309 41.5263 47.3979 44.8236 44.1021C48.1208 40.8063 50.1558 36.4572 50.5732 31.8139C50.6039 31.5104 50.7523 31.231 50.9865 31.0356C51.2207 30.8402 51.5222 30.7443 51.8262 30.7685C52.1308 30.796 52.412 30.9434 52.608 31.1781C52.8041 31.4129 52.8989 31.7158 52.8716 32.0204C52.4077 37.2036 50.1378 42.0591 46.4583 45.739C42.7789 49.419 37.9236 51.6894 32.7405 52.1539C32.7059 52.1539 32.6701 52.1539 32.6355 52.1539Z" fill="white"/>
<path d="M33.0116 56.775C32.7056 56.7886 32.4067 56.6801 32.1807 56.4733C31.9547 56.2666 31.82 55.9785 31.8064 55.6725C31.7928 55.3664 31.9013 55.0676 32.1081 54.8415C32.3148 54.6155 32.6029 54.4809 32.9089 54.4673C38.644 53.9528 44.0164 51.4409 48.0887 47.3699C52.161 43.2989 54.6745 37.9272 55.1908 32.1923C55.2213 31.8887 55.3696 31.6091 55.6039 31.4136C55.8382 31.2182 56.1398 31.1224 56.4439 31.1469C56.5948 31.1605 56.7416 31.2037 56.8758 31.2741C57.01 31.3444 57.1291 31.4405 57.2261 31.5569C57.3232 31.6733 57.3964 31.8076 57.4416 31.9523C57.4867 32.0969 57.5029 32.249 57.4893 32.4C56.9252 38.6737 54.1761 44.5501 49.7217 49.0039C45.2673 53.4577 39.3904 56.206 33.1166 56.7692C33.082 56.7692 33.0474 56.775 33.0116 56.775Z" fill="white"/>
<path d="M51.7201 29.2361C51.4323 29.2359 51.1549 29.128 50.9425 28.9337C50.7301 28.7395 50.5979 28.4728 50.572 28.1861C50.156 23.5418 48.1219 19.1911 44.8248 15.8937C41.5277 12.5964 37.1771 10.562 32.5328 10.1457C32.3819 10.1321 32.2351 10.0889 32.1009 10.0185C31.9667 9.94816 31.8477 9.85206 31.7506 9.7357C31.6535 9.61934 31.5803 9.485 31.5351 9.34035C31.49 9.1957 31.4738 9.04358 31.4874 8.89266C31.501 8.74174 31.5443 8.59498 31.6146 8.46077C31.685 8.32656 31.7811 8.20752 31.8974 8.11044C32.0138 8.01337 32.1481 7.94017 32.2928 7.89501C32.4374 7.84986 32.5896 7.83364 32.7405 7.84727C37.9237 8.31164 42.7791 10.5818 46.4589 14.2615C50.1388 17.9411 52.4093 22.7964 52.874 27.9796C52.9012 28.2842 52.8064 28.5872 52.6104 28.8219C52.4143 29.0567 52.1331 29.204 51.8286 29.2315C51.7916 29.235 51.7559 29.2361 51.7201 29.2361Z" fill="white"/>
<path d="M56.3355 28.8601C56.0466 28.8612 55.7679 28.754 55.5542 28.5596C55.3406 28.3652 55.2076 28.0977 55.1816 27.8101C54.6684 22.0755 52.1576 16.7034 48.0876 12.6312C44.0175 8.55904 38.6466 6.04549 32.9124 5.52928C32.6076 5.50174 32.3262 5.35425 32.1302 5.11925C31.9341 4.88425 31.8395 4.581 31.867 4.27621C31.8946 3.97141 32.0421 3.69004 32.2771 3.49399C32.5121 3.29794 32.8153 3.20328 33.1201 3.23082C39.3936 3.7949 45.27 6.54385 49.7237 10.998C54.1774 15.4522 56.9258 21.3288 57.4893 27.6024C57.503 27.7533 57.4868 27.9054 57.4416 28.0501C57.3965 28.1947 57.3233 28.3291 57.2262 28.4454C57.1291 28.5618 57.0101 28.6579 56.8758 28.7282C56.7416 28.7986 56.5949 28.8418 56.4439 28.8554C56.4093 28.8589 56.3736 28.8601 56.3355 28.8601Z" fill="white"/>
<path d="M9.72007 29.2362C9.68545 29.2362 9.64968 29.2362 9.61507 29.2362C9.31048 29.2086 9.02929 29.0613 8.83327 28.8266C8.63725 28.5918 8.54245 28.2889 8.56968 27.9843C9.03269 22.8007 11.3019 17.9445 14.9809 14.2637C18.66 10.583 23.5152 8.31156 28.6985 7.84618C29.0033 7.81864 29.3066 7.9133 29.5416 8.10935C29.7766 8.3054 29.9241 8.58677 29.9516 8.89156C29.9791 9.19636 29.8845 9.49961 29.6884 9.73461C29.4924 9.9696 29.211 10.1171 28.9062 10.1446C24.2615 10.5607 19.9105 12.5952 16.6132 15.8927C13.3158 19.1903 11.2816 23.5414 10.8658 28.1862C10.84 28.4725 10.7082 28.7388 10.4962 28.933C10.2843 29.1272 10.0075 29.2353 9.72007 29.2362Z" fill="white"/>
<path d="M5.1047 28.86C5.07008 28.86 5.03431 28.86 4.9997 28.86C4.84805 28.8468 4.7005 28.8037 4.56557 28.7333C4.43063 28.6628 4.31097 28.5664 4.21347 28.4495C4.11598 28.3326 4.04258 28.1975 3.99751 28.0521C3.95244 27.9067 3.93658 27.7538 3.95085 27.6023C4.51442 21.3283 7.26315 15.4515 11.7174 10.9973C16.1716 6.54305 22.0484 3.79432 28.3224 3.23075C28.6266 3.20689 28.928 3.30304 29.1622 3.49863C29.3964 3.69422 29.5447 3.97371 29.5755 4.27729C29.5891 4.42821 29.5729 4.58034 29.5278 4.72499C29.4826 4.86965 29.4094 5.00399 29.3123 5.12035C29.2152 5.23671 29.0962 5.33281 28.962 5.40316C28.8278 5.47351 28.681 5.51674 28.5301 5.53037C22.7943 6.04389 17.4212 8.55581 13.3488 12.6275C9.27649 16.6992 6.76373 22.072 6.24931 27.8077C6.22401 28.0942 6.0926 28.3609 5.88087 28.5556C5.66913 28.7502 5.39232 28.8588 5.1047 28.86Z" fill="white"/>
<path d="M28.8035 52.1539C28.7689 52.1539 28.7332 52.1539 28.6985 52.1539C23.5153 51.6894 18.6599 49.419 14.9802 45.7391C11.3005 42.0592 9.03039 37.2037 8.56623 32.0204C8.539 31.7158 8.6338 31.4129 8.82982 31.1781C9.02584 30.9434 9.30704 30.796 9.61162 30.7685C9.91569 30.7443 10.2171 30.8402 10.4514 31.0356C10.6856 31.231 10.834 31.5104 10.8647 31.8139C11.2808 36.4586 13.3152 40.8096 16.6128 44.107C19.9104 47.4043 24.2615 49.4385 28.9062 49.8543C29.2123 49.8679 29.5003 50.0025 29.7071 50.2285C29.9138 50.4546 30.0224 50.7535 30.0087 51.0595C29.9951 51.3655 29.8605 51.6536 29.6345 51.8603C29.4085 52.0671 29.1096 52.1756 28.8035 52.162V52.1539Z" fill="white"/>
<path d="M28.4263 56.7693C28.3913 56.771 28.3563 56.771 28.3213 56.7693C22.0475 56.2055 16.1709 53.4566 11.717 49.0024C7.26297 44.5482 4.51441 38.6715 3.95089 32.3977C3.93724 32.2468 3.95345 32.0947 3.99861 31.95C4.04376 31.8054 4.11696 31.671 4.21404 31.5547C4.31111 31.4383 4.43015 31.3422 4.56437 31.2719C4.69859 31.2015 4.84535 31.1583 4.99627 31.1447C5.30035 31.1205 5.6018 31.2164 5.83603 31.4118C6.07026 31.6072 6.21863 31.8866 6.24935 32.19C6.76423 37.9255 9.27674 43.2981 13.3484 47.3702C17.4201 51.4423 22.7924 53.9553 28.5278 54.4708C28.8338 54.4844 29.1219 54.6191 29.3287 54.8451C29.5354 55.0711 29.6439 55.37 29.6303 55.676C29.6167 55.982 29.4821 56.2701 29.2561 56.4769C29.03 56.6836 28.7311 56.7921 28.4251 56.7785L28.4263 56.7693Z" fill="white"/>
<path d="M30.7201 31.6812C29.6573 31.6812 28.6184 31.366 27.7348 30.7756C26.8511 30.1852 26.1624 29.3459 25.7557 28.3641C25.349 27.3822 25.2426 26.3018 25.4499 25.2594C25.6572 24.2171 26.169 23.2596 26.9205 22.5081C27.672 21.7566 28.6295 21.2449 29.6718 21.0375C30.7142 20.8302 31.7946 20.9366 32.7765 21.3433C33.7583 21.75 34.5975 22.4387 35.188 23.3224C35.7784 24.2061 36.0936 25.245 36.0936 26.3077C36.0921 27.7324 35.5254 29.0983 34.518 30.1057C33.5106 31.113 32.1448 31.6797 30.7201 31.6812ZM30.7201 23.242C30.1138 23.242 29.521 23.4218 29.0169 23.7586C28.5127 24.0955 28.1198 24.5743 27.8877 25.1345C27.6557 25.6947 27.595 26.3111 27.7133 26.9058C27.8315 27.5005 28.1235 28.0468 28.5523 28.4756C28.981 28.9043 29.5273 29.1963 30.122 29.3146C30.7167 29.4329 31.3331 29.3722 31.8933 29.1401C32.4535 28.9081 32.9323 28.5151 33.2692 28.011C33.6061 27.5068 33.7859 26.9141 33.7859 26.3077C33.785 25.4949 33.4617 24.7157 32.8869 24.1409C32.3122 23.5662 31.5329 23.2429 30.7201 23.242Z" fill="white"/>
<path d="M30.7201 44.3412C27.6652 44.3477 24.6597 43.5702 21.9912 42.0831C21.7244 41.9339 21.5277 41.6849 21.4443 41.3908C21.2265 40.6018 21.1197 39.7862 21.127 38.9677C21.127 36.4235 22.1377 33.9834 23.9367 32.1844C25.7358 30.3853 28.1758 29.3746 30.7201 29.3746C33.2643 29.3746 35.7044 30.3853 37.5034 32.1844C39.3025 33.9834 40.3132 36.4235 40.3132 38.9677C40.3205 39.7862 40.2137 40.6018 39.9958 41.3908C39.9125 41.6849 39.7157 41.9339 39.4489 42.0831C36.7804 43.5702 33.775 44.3477 30.7201 44.3412ZM23.557 40.3027C25.7801 41.418 28.2329 41.9988 30.7201 41.9988C33.2073 41.9988 35.6601 41.418 37.8832 40.3027C37.9671 39.8608 38.0081 39.4118 38.0055 38.9619C38.0055 37.0297 37.2379 35.1767 35.8716 33.8104C34.5053 32.4441 32.6523 31.6766 30.7201 31.6766C28.7879 31.6766 26.9348 32.4441 25.5685 33.8104C24.2023 35.1767 23.4347 37.0297 23.4347 38.9619C23.4317 39.4133 23.4727 39.8639 23.557 40.3073V40.3027Z" fill="white"/>
<path d="M24.127 29.0434C23.107 29.0445 22.1078 28.7552 21.2461 28.2094C20.3844 27.6636 19.6959 26.8838 19.2609 25.9612C18.826 25.0386 18.6627 24.0113 18.79 22.9992C18.9173 21.9872 19.33 21.0323 19.9799 20.2462C20.6298 19.4601 21.4901 18.8751 22.4601 18.5598C23.4301 18.2444 24.4698 18.2117 25.4578 18.4653C26.4457 18.719 27.3411 19.2486 28.0392 19.9923C28.7373 20.736 29.2093 21.663 29.4001 22.665C29.4342 22.8161 29.4376 22.9726 29.41 23.1251C29.3823 23.2776 29.3242 23.423 29.2392 23.5526C29.1541 23.6821 29.0438 23.7932 28.9149 23.8792C28.786 23.9652 28.6411 24.0244 28.4888 24.0531C28.3365 24.0819 28.18 24.0797 28.0286 24.0467C27.8771 24.0136 27.7339 23.9504 27.6075 23.8608C27.481 23.7712 27.3739 23.657 27.2926 23.5251C27.2112 23.3932 27.1572 23.2463 27.1339 23.093C27.01 22.4405 26.6779 21.8458 26.1874 21.398C25.6969 20.9502 25.0744 20.6736 24.4133 20.6096C23.7522 20.5456 23.0882 20.6976 22.5209 21.043C21.9535 21.3883 21.5135 21.9083 21.2668 22.525C21.02 23.1416 20.9799 23.8216 21.1523 24.463C21.3248 25.1044 21.7006 25.6726 22.2234 26.0823C22.7461 26.492 23.3876 26.7211 24.0517 26.7353C24.7157 26.7496 25.3664 26.5481 25.9062 26.1611C26.1552 25.9827 26.4648 25.9105 26.767 25.9604C27.0692 26.0103 27.3392 26.1781 27.5176 26.4271C27.696 26.676 27.7682 26.9857 27.7183 27.2878C27.6684 27.59 27.5005 27.86 27.2516 28.0384C26.3418 28.6939 25.2483 29.0456 24.127 29.0434Z" fill="white"/>
<path d="M30.2713 31.7077C30.0934 31.7133 29.9165 31.6786 29.7539 31.6064C29.5913 31.5341 29.447 31.426 29.332 31.2903C29.2169 31.1545 29.134 30.9945 29.0893 30.8222C29.0447 30.6499 29.0395 30.4698 29.0742 30.2952C29.1088 30.1207 29.1824 29.9562 29.2895 29.814C29.3966 29.6719 29.5344 29.5557 29.6926 29.4742C29.8508 29.3927 30.0254 29.348 30.2033 29.3433C30.3812 29.3386 30.5578 29.3742 30.7201 29.4473C30.9256 29.5525 31.0994 29.7104 31.2239 29.9048C31.3484 30.0992 31.419 30.3232 31.4286 30.5539C31.4286 30.7057 31.3986 30.856 31.3404 30.9962C31.2822 31.1364 31.1969 31.2638 31.0894 31.371C30.9819 31.4782 30.8543 31.5631 30.7139 31.6209C30.5735 31.6786 30.4231 31.7082 30.2713 31.7077Z" fill="white"/>
<path d="M22.4124 41.5973C22.3778 41.5973 22.3421 41.5973 22.3074 41.5973C19.8782 41.3803 17.5229 40.6487 15.3982 39.4511C15.1359 39.3035 14.9418 39.0592 14.8571 38.7704C14.6313 37.9785 14.522 37.158 14.5328 36.3346C14.5353 33.791 15.5467 31.3523 17.3452 29.5536C19.1437 27.7549 21.5823 26.7431 24.1259 26.7404C25.2795 26.734 26.424 26.9446 27.4998 27.3611C27.6437 27.4143 27.7756 27.4956 27.8877 27.6003C27.9998 27.705 28.0899 27.831 28.1527 27.971C28.2156 28.111 28.2499 28.262 28.2536 28.4154C28.2573 28.5688 28.2305 28.7214 28.1745 28.8642C28.1186 29.0071 28.0347 29.1373 27.9279 29.2474C27.821 29.3575 27.6932 29.4451 27.5521 29.5052C27.4109 29.5653 27.2592 29.5966 27.1058 29.5974C26.9524 29.5982 26.8003 29.5683 26.6586 29.5096C25.8488 29.1981 24.9877 29.0415 24.1201 29.0481C22.1885 29.0505 20.3367 29.819 18.9709 31.185C17.6051 32.551 16.8369 34.403 16.8348 36.3346C16.8292 36.7831 16.8679 37.231 16.9501 37.6719C18.6769 38.5737 20.5643 39.1265 22.5048 39.2988C22.8108 39.3125 23.0989 39.4471 23.3056 39.6731C23.5124 39.8991 23.6209 40.198 23.6073 40.504C23.5936 40.8101 23.459 41.0981 23.233 41.3049C23.007 41.5116 22.7081 41.6201 22.4021 41.6065L22.4124 41.5973Z" fill="white"/>
<path d="M37.3132 29.0435C36.1915 29.045 35.0981 28.6925 34.1885 28.0362C34.0654 27.9478 33.9609 27.8361 33.881 27.7074C33.801 27.5786 33.7472 27.4354 33.7227 27.2859C33.673 26.9839 33.7453 26.6746 33.9237 26.426C34.1021 26.1773 34.372 26.0097 34.674 25.9601C34.976 25.9104 35.2853 25.9828 35.5339 26.1612C36.0514 26.5361 36.6741 26.738 37.3132 26.7381C37.895 26.7389 38.465 26.574 38.9567 26.2629C39.4483 25.9518 39.8413 25.5071 40.0897 24.981C40.338 24.4548 40.4315 23.8689 40.3593 23.2915C40.287 22.7142 40.0519 22.1694 39.6815 21.7207C39.3111 21.272 38.8207 20.9379 38.2675 20.7576C37.7144 20.5772 37.1213 20.558 36.5576 20.7021C35.9939 20.8463 35.4829 21.1479 35.0842 21.5717C34.6856 21.9955 34.4157 22.524 34.3062 23.0954C34.2829 23.2486 34.2289 23.3955 34.1476 23.5275C34.0662 23.6594 33.9591 23.7735 33.8327 23.8631C33.7062 23.9527 33.563 24.0159 33.4116 24.049C33.2602 24.082 33.1036 24.0843 32.9514 24.0555C32.7991 24.0267 32.6541 23.9676 32.5252 23.8816C32.3963 23.7956 32.286 23.6845 32.201 23.5549C32.1159 23.4253 32.0578 23.28 32.0302 23.1275C32.0025 22.975 32.0059 22.8185 32.0401 22.6673C32.2312 21.6661 32.7034 20.7399 33.4013 19.997C34.0992 19.2541 34.9941 18.7251 35.9815 18.4719C36.9688 18.2186 38.0079 18.2516 38.9772 18.5668C39.9466 18.8821 40.8062 19.4667 41.4556 20.2523C42.1051 21.0379 42.5176 21.9922 42.645 23.0035C42.7724 24.0148 42.6093 25.0415 42.1749 25.9636C41.7405 26.8857 41.0527 27.6652 40.1918 28.211C39.3309 28.7568 38.3325 29.0463 37.3132 29.0458V29.0435Z" fill="white"/>
<path d="M39.0278 41.5973C38.8763 41.6041 38.7249 41.5809 38.5823 41.5291C38.4397 41.4774 38.3088 41.398 38.1968 41.2957C37.9708 41.0889 37.8362 40.8008 37.8226 40.4948C37.809 40.1888 37.9175 39.8899 38.1242 39.6639C38.331 39.4379 38.6191 39.3032 38.9251 39.2896C40.8655 39.1173 42.753 38.5645 44.4797 37.6627C44.562 37.2218 44.6006 36.7739 44.5951 36.3254C44.593 34.3937 43.8247 32.5418 42.459 31.1758C41.0932 29.8098 39.2414 29.0413 37.3097 29.0389C36.4421 29.0323 35.581 29.1888 34.7712 29.5004C34.6295 29.5591 34.4775 29.5889 34.3241 29.5882C34.1706 29.5874 34.0189 29.5561 33.8778 29.496C33.7366 29.4359 33.6089 29.3482 33.502 29.2382C33.3951 29.1281 33.3112 28.9979 33.2553 28.855C33.1994 28.7121 33.1725 28.5596 33.1762 28.4062C33.18 28.2528 33.2143 28.1017 33.2771 27.9618C33.3399 27.8218 33.4301 27.6958 33.5422 27.5911C33.6543 27.4864 33.7862 27.4051 33.9301 27.3519C35.0058 26.9354 36.1503 26.7248 37.3039 26.7312C39.8475 26.7339 42.2861 27.7456 44.0846 29.5444C45.8831 31.3431 46.8946 33.7818 46.897 36.3254C46.9078 37.1488 46.7986 37.9693 46.5728 38.7612C46.4881 39.05 46.2939 39.2943 46.0316 39.4419C43.9069 40.6395 41.5517 41.3711 39.1224 41.5881C39.097 41.5962 39.0612 41.5973 39.0278 41.5973Z" fill="white"/>
<path d="M31.1689 31.7077C30.8629 31.7077 30.5694 31.5862 30.353 31.3698C30.1366 31.1534 30.0151 30.8599 30.0151 30.5539C30.0243 30.3236 30.0944 30.0999 30.2183 29.9055C30.3421 29.7111 30.5152 29.553 30.7201 29.4474C30.8801 29.3832 31.0523 29.3551 31.2244 29.3651C31.3965 29.3751 31.5643 29.423 31.7158 29.5053C31.8673 29.5875 31.9987 29.7022 32.1009 29.8411C32.203 29.98 32.2732 30.1397 32.3065 30.3088C32.3398 30.478 32.3355 30.6524 32.2937 30.8196C32.2519 30.9869 32.1737 31.1429 32.0648 31.2765C31.9558 31.41 31.8187 31.518 31.6633 31.5925C31.5078 31.667 31.3379 31.7064 31.1655 31.7077H31.1689Z" fill="white"/>
</svg>
