<svg width="60" height="60" viewBox="0 0 60 60" fill="none" xmlns="http://www.w3.org/2000/svg">
<path d="M1.28315 38.4535H37.1087C37.4437 38.4536 37.7655 38.3226 38.0052 38.0886C38.245 37.8545 38.3838 37.5361 38.3918 37.2011V1.34479C38.3918 1.00448 38.2566 0.678111 38.016 0.437465C37.7754 0.196828 37.449 0.0616455 37.1087 0.0616455H1.28315C0.942837 0.0616455 0.616466 0.196828 0.375829 0.437465C0.135193 0.678111 0 1.00448 0 1.34479V37.2011C0.00803764 37.5361 0.146772 37.8545 0.386546 38.0886C0.62631 38.3226 0.948103 38.4536 1.28315 38.4535ZM2.5663 2.62794H35.8255V35.8872H2.5663V2.62794Z" fill="white"/>
<path d="M37.2626 42.1283C36.9224 42.1283 36.5959 42.2635 36.3553 42.5041C36.1147 42.7447 35.9795 43.071 35.9795 43.4114V50.2891L28.7939 45.5363C28.5507 45.3841 28.2639 45.317 27.9784 45.3456C27.6929 45.3742 27.4251 45.4969 27.217 45.6944C27.009 45.8919 26.8725 46.153 26.829 46.4366C26.7856 46.7201 26.8376 47.0101 26.9769 47.2609L29.4303 51.367H9.20788L11.651 47.4662C11.7956 47.2188 11.854 46.9303 11.817 46.6461C11.7799 46.362 11.6496 46.0981 11.4464 45.896C11.2432 45.694 10.9785 45.5652 10.6942 45.5298C10.4097 45.4943 10.1217 45.5545 9.87512 45.7006L2.5663 50.3404V43.4114C2.5663 43.071 2.43111 42.7447 2.19047 42.5041C1.94983 42.2635 1.62346 42.1283 1.28315 42.1283C0.942837 42.1283 0.616466 42.2635 0.375829 42.5041C0.135193 42.7447 0 43.071 0 43.4114V52.6501C0.012503 52.8534 0.0706759 53.0513 0.170197 53.229C0.269728 53.4066 0.408041 53.5597 0.574851 53.6766L9.71087 59.7844C9.92039 59.9248 10.167 59.9999 10.4192 60C10.6425 59.9985 10.8617 59.9393 11.0554 59.828C11.249 59.7168 11.4106 59.5572 11.5243 59.365C11.638 59.1727 11.7 58.9543 11.7042 58.731C11.7084 58.5076 11.6547 58.287 11.5483 58.0907L9.09496 53.9846H29.3482L26.9461 57.8648C26.7946 58.1107 26.7305 58.4005 26.764 58.6873C26.7976 58.9741 26.9269 59.2412 27.1311 59.4455C27.3353 59.6496 27.6025 59.779 27.8893 59.8125C28.1761 59.8461 28.4659 59.7819 28.7117 59.6304L37.9504 53.769C38.1816 53.6249 38.3585 53.4083 38.4534 53.1531C38.5178 53.0001 38.5526 52.8364 38.5561 52.6706V43.432C38.5588 43.2608 38.5273 43.091 38.4634 42.9321C38.3995 42.7734 38.3045 42.6291 38.1839 42.5076C38.0634 42.3861 37.9198 42.29 37.7616 42.2249C37.6035 42.1597 37.4338 42.1268 37.2626 42.1283Z" fill="white"/>
<path d="M59.7024 27.2438C59.4996 27.0354 59.2333 26.9001 58.9454 26.8593C58.6575 26.8184 58.3641 26.8743 58.1113 27.018L54.0053 29.4816V9.26946L57.906 11.7126C58.1518 11.8641 58.4416 11.9283 58.7285 11.8948C59.0153 11.8612 59.2824 11.7318 59.4867 11.5276C59.6909 11.3234 59.8202 11.0562 59.8538 10.7694C59.8873 10.4826 59.8232 10.1928 59.6717 9.94696L53.9129 0.81095C53.8171 0.572931 53.6529 0.368736 53.4408 0.224335C53.2288 0.079935 52.9786 0.00184773 52.7221 0H43.4834C43.1431 0 42.8167 0.135193 42.5761 0.375829C42.3355 0.616466 42.2003 0.942837 42.2003 1.28315C42.2003 1.62346 42.3355 1.94983 42.5761 2.19047C42.8167 2.43111 43.1431 2.5663 43.4834 2.5663H50.3509L45.557 9.75192C45.4093 9.99428 45.3462 10.2787 45.3775 10.5608C45.4087 10.8429 45.5326 11.1066 45.7297 11.3108C45.9268 11.515 46.1861 11.648 46.4668 11.6892C46.7477 11.7302 47.0342 11.6772 47.2816 11.5381L51.3876 9.08469V29.3071L47.4766 26.9359C47.23 26.7898 46.9419 26.7297 46.6575 26.7651C46.3731 26.8005 46.1086 26.9293 45.9053 27.1314C45.7021 27.3334 45.5717 27.5972 45.5346 27.8815C45.4977 28.1656 45.556 28.4541 45.7007 28.7015L50.3201 36.0205H43.4321C43.0917 36.0205 42.7654 36.1557 42.5248 36.3964C42.2842 36.637 42.149 36.9634 42.149 37.3037C42.149 37.644 42.2842 37.9704 42.5248 38.211C42.7654 38.4517 43.0917 38.5868 43.4321 38.5868H52.6708C52.8255 38.5819 52.9782 38.5506 53.1225 38.4945C53.3819 38.4081 53.6056 38.2386 53.7589 38.012L59.7948 28.8349C59.961 28.5981 60.0423 28.3121 60.0256 28.0232C60.0088 27.7345 59.8949 27.4598 59.7024 27.2438Z" fill="white"/>
</svg>
