<svg width="65" height="64" viewBox="0 0 65 64" fill="none" xmlns="http://www.w3.org/2000/svg">
<path d="M36.3311 50.789L24.3451 55.853C23.6992 55.2091 23.2159 54.4207 22.9351 53.553C24.4671 51.9 32.7261 46.29 35.7201 44.926C35.8397 44.8716 35.9474 44.7941 36.037 44.6981C36.1266 44.602 36.1965 44.4892 36.2425 44.3662C36.2886 44.2432 36.31 44.1123 36.3054 43.981C36.3009 43.8497 36.2705 43.7206 36.2161 43.601C36.1617 43.4814 36.0842 43.3737 35.9882 43.2841C35.8921 43.1945 35.7794 43.1246 35.6563 43.0786C35.5333 43.0325 35.4024 43.0111 35.2711 43.0157C35.1398 43.0202 35.0107 43.0506 34.8911 43.105C32.3851 44.247 23.8981 49.667 21.5021 52.205C18.4591 51.127 15.2021 51.6 12.0341 52.079C10.3413 52.388 8.62571 52.5552 6.90512 52.579H6.70512C6.63712 52.579 6.52412 52.579 6.44212 52.579C6.07171 52.244 5.60632 52.0325 5.1104 51.9738C4.61448 51.915 4.11255 52.0119 3.67412 52.251C3.35469 52.444 3.10236 52.7306 2.95138 53.072C2.8004 53.4133 2.75806 53.7928 2.83012 54.159C2.70312 56.067 2.52312 60.277 3.29412 61.492C3.38773 61.6363 3.51562 61.7553 3.66638 61.8381C3.81714 61.921 3.98608 61.9653 4.15812 61.967H4.18112C4.81912 61.951 5.06012 61.527 5.59012 60.598C7.11612 57.918 7.76012 57.492 7.99012 57.475C8.04505 57.4873 8.10091 57.495 8.15712 57.498C20.7261 58.159 20.9011 58.164 20.9461 58.164C22.1577 58.2019 23.37 58.1188 24.5651 57.916C24.5931 57.909 24.6131 57.89 24.6401 57.881C24.667 57.8775 24.6938 57.8725 24.7201 57.866L37.1111 52.631C37.2348 52.5818 37.3474 52.5084 37.4423 52.4151C37.5372 52.3218 37.6126 52.2106 37.6639 52.0878C37.7153 51.965 37.7416 51.8332 37.7414 51.7001C37.7412 51.5671 37.7144 51.4354 37.6626 51.3128C37.6108 51.1902 37.5351 51.0791 37.4398 50.9862C37.3446 50.8932 37.2318 50.8202 37.1079 50.7714C36.9841 50.7227 36.8518 50.6991 36.7188 50.7021C36.5857 50.7051 36.4546 50.7347 36.3331 50.789H36.3311ZM8.33112 55.505C6.87912 55.251 5.66812 56.659 4.72612 58.129C4.70012 56.935 4.74012 55.47 4.82612 54.156C4.83089 54.0893 4.82855 54.0222 4.81912 53.956C4.9709 53.9868 5.11011 54.062 5.21912 54.172C5.43281 54.3358 5.67669 54.4559 5.93681 54.5254C6.19694 54.5948 6.46821 54.6124 6.73512 54.577H6.85912C8.6929 54.5582 10.5218 54.3839 12.3261 54.056C15.4491 53.582 18.4041 53.156 21.0261 54.156C21.272 54.8518 21.5943 55.5182 21.9871 56.143C21.6291 56.153 21.2761 56.159 20.9671 56.162C20.7121 56.155 12.6331 55.731 8.33212 55.505H8.33112Z" fill="white"/>
<path d="M62.2491 41.651C61.4241 40.165 60.1191 40.303 59.1491 40.4L53.5281 40.979C52.2281 41.113 50.8281 41.379 49.4781 41.641C48.7621 41.779 48.0381 41.913 47.3251 42.032C47.8958 40.6663 48.1753 39.1966 48.1456 37.7168C48.116 36.237 47.778 34.7797 47.1531 33.438C45.8941 30.885 43.9361 29.254 41.7931 28.916L41.7791 28.704C42.8539 26.5776 43.1436 24.1401 42.5971 21.821C42.5971 21.806 42.6091 21.792 42.6131 21.776C42.8197 21.0078 42.7127 20.189 42.3157 19.4996C41.9187 18.8103 41.2642 18.3068 40.4961 18.1C40.3321 18.0582 40.1648 18.0308 39.9961 18.018C39.6663 17.8661 39.3277 17.7342 38.9821 17.623C42.197 15.4819 45.6541 13.7287 49.2811 12.4C49.4205 12.3523 49.5476 12.2743 49.6534 12.1718C49.7592 12.0692 49.841 11.9445 49.893 11.8066C49.9449 11.6687 49.9658 11.5211 49.9541 11.3742C49.9423 11.2273 49.8983 11.0849 49.8251 10.957L44.9791 2.49999C44.8596 2.29123 44.6688 2.13253 44.4418 2.053C44.2148 1.97347 43.9667 1.97844 43.7431 2.06699C39.6773 3.84859 35.7619 5.95543 32.0351 8.36699C31.9181 8.44118 31.8179 8.53886 31.7407 8.65383C31.6635 8.7688 31.611 8.89855 31.5865 9.03487C31.5621 9.17118 31.5662 9.31109 31.5987 9.44573C31.6311 9.58036 31.6912 9.70678 31.7751 9.81699L37.4411 17.257C35.9463 17.0362 34.4196 17.2296 33.0271 17.816C32.4267 17.7326 31.8152 17.833 31.2731 18.104C28.9401 19.271 27.3091 22.628 27.5161 25.488C26.9319 25.677 26.4033 26.0068 25.9767 26.4484C25.5501 26.8899 25.2388 27.4297 25.0701 28.02C24.5701 29.92 25.4971 31.71 26.3961 33.439C27.1961 34.973 27.9461 36.421 27.7311 37.851C27.7096 37.9933 27.7192 38.1386 27.759 38.2769C27.7989 38.4152 27.8681 38.5433 27.962 38.6524C28.0559 38.7614 28.1722 38.849 28.3031 38.909C28.4339 38.969 28.5761 39 28.7201 39C28.7579 39.0002 28.7956 38.9978 28.8331 38.993C29.689 38.9177 30.5076 38.6078 31.1989 38.0974C31.8901 37.587 32.4272 36.8959 32.7511 36.1C33.3554 34.4196 33.296 32.5721 32.5851 30.934C33.4811 31.3807 34.4375 31.6943 35.4241 31.865C35.3591 31.978 35.2861 32.082 35.2241 32.2C34.7005 33.2664 34.5935 34.4899 34.9241 35.631C35.3176 36.721 35.8713 37.7462 36.5671 38.673C37.04 39.3271 37.4498 40.0245 37.7911 40.756L39.4181 53.406L39.7201 57.9C39.7319 58.0817 39.7931 58.2566 39.8971 58.4061C40.0011 58.5555 40.1439 58.6737 40.3101 58.748C44.1271 60.448 45.8521 60.919 46.7171 60.919C46.8957 60.9359 47.0757 60.9082 47.241 60.8384C47.4063 60.7686 47.5517 60.6588 47.6641 60.519C47.8353 60.3285 47.9406 60.0879 47.9644 59.8328C47.9881 59.5778 47.9291 59.3219 47.7961 59.103C47.0442 57.6381 45.9774 56.3577 44.6721 55.354C44.4385 55.1934 44.248 54.9777 44.1176 54.726C43.9871 54.4744 43.9207 54.1944 43.9241 53.911L43.9041 52.018H43.9601C44.1241 52.01 44.2831 52.002 44.4251 51.999C44.7568 51.98 45.0866 51.9346 45.4111 51.863C45.2831 51.999 45.1661 52.127 45.0711 52.239L44.8001 52.557C44.6277 52.7586 44.5424 53.0203 44.563 53.2848C44.5837 53.5492 44.7085 53.7946 44.9101 53.967C45.1116 54.1394 45.3734 54.2246 45.6379 54.204C45.9023 54.1834 46.1477 54.0586 46.3201 53.857L46.5951 53.537C47.5011 52.5685 48.4563 51.6472 49.4571 50.777C51.6701 50.097 54.2341 49.212 56.4851 48.332C56.0051 48.649 55.5211 48.958 55.0401 49.253C52.6211 50.739 50.2291 52.353 47.9151 53.918L46.6051 54.802C46.4275 54.9218 46.2931 55.0955 46.2216 55.2974C46.1501 55.4994 46.1454 55.7189 46.2081 55.9238C46.2708 56.1286 46.3977 56.3079 46.57 56.4352C46.7422 56.5625 46.9508 56.6311 47.1651 56.631C47.3633 56.63 47.5567 56.5694 47.7201 56.457L49.0321 55.572C51.3321 54.021 53.7021 52.418 56.0851 50.954C57.6235 50.0718 59.0611 49.0243 60.3721 47.83C60.4361 47.769 60.5171 47.694 60.6091 47.611C61.4418 47.0054 62.0494 46.1399 62.3361 45.151C62.6041 44.6036 62.7361 43.9996 62.7209 43.3903C62.7058 42.781 62.5439 42.1844 62.2491 41.651ZM43.6811 4.26099L47.4981 10.92C44.3971 12.159 41.4221 13.6927 38.6141 15.5L34.0301 9.47899C37.1284 7.52864 40.3525 5.78549 43.6811 4.26099ZM38.7931 25L40.8441 23.816C40.967 25.22 40.6556 26.6278 39.9521 27.849C39.8167 28.0372 39.751 28.2666 39.7661 28.498L39.7951 28.947C39.6371 28.972 39.4851 29.008 39.3321 29.042C39.4071 27.6728 39.2242 26.3017 38.7931 25ZM40.5861 20.5C40.7184 20.7296 40.7541 21.0023 40.6855 21.2582C40.6169 21.5141 40.4495 21.7324 40.2201 21.865L36.7551 23.865C36.5256 23.9974 36.253 24.0333 35.9971 23.9648C35.7412 23.8964 35.5228 23.7292 35.3901 23.5C35.2575 23.2703 35.2215 22.9974 35.2902 22.7412C35.3588 22.485 35.5264 22.2666 35.7561 22.134L39.2201 20.134C39.372 20.0459 39.5445 19.9997 39.7201 20C39.8078 20.0005 39.8952 20.0119 39.9801 20.034C40.2358 20.1029 40.4538 20.2705 40.5861 20.5ZM36.8311 19.2L36.0161 19.671C35.8661 19.498 35.7161 19.347 35.5601 19.198C35.9828 19.1577 36.4085 19.1583 36.8311 19.2ZM32.1671 19.892C32.8931 19.53 33.6921 20.114 34.2851 20.737C33.921 21.0563 33.6394 21.4588 33.4641 21.9102C33.2888 22.3616 33.225 22.8486 33.2781 23.33L29.5351 24.468C29.7201 22.611 30.7941 20.581 32.1671 19.9V19.892ZM30.9031 35.338C30.6775 35.9041 30.2612 36.3735 29.7261 36.665C29.4602 35.201 28.9335 33.7967 28.1711 32.519C27.4131 31.062 26.6991 29.687 26.9961 28.557C27.0956 28.2045 27.3062 27.8936 27.5967 27.6705C27.8871 27.4475 28.2419 27.3242 28.6081 27.319H28.6401C28.7954 27.3176 28.9487 27.2835 29.0901 27.219C29.0599 27.2425 29.0314 27.2682 29.0051 27.296C28.8343 27.4706 28.7333 27.7016 28.7212 27.9455C28.709 28.1894 28.7865 28.4293 28.9391 28.62C31.2411 31.5 31.4631 33.979 30.9031 35.338ZM30.3271 27.205C30.181 27.0935 30.007 27.0245 29.8242 27.0055C29.6415 26.9864 29.457 27.0181 29.2911 27.097C29.3486 27.0504 29.4006 26.9974 29.4461 26.939C29.5396 26.8192 29.6046 26.6797 29.6361 26.531L34.1811 25.15C34.5415 25.5089 34.9895 25.7675 35.4806 25.9C35.9717 26.0326 36.4889 26.0347 36.9811 25.906C37.5981 28.115 37.4001 29.533 37.0541 29.742C35.8201 30.492 32.6661 28.993 30.3271 27.205ZM36.8581 35.1C36.6589 34.4373 36.7142 33.7241 37.0131 33.1C37.3692 32.3897 37.9247 31.7986 38.6115 31.399C39.2982 30.9994 40.0866 30.8086 40.8801 30.85C43.4531 30.764 44.9541 33.493 45.3631 34.322C45.8921 35.4763 46.1631 36.7321 46.157 38.0019C46.151 39.2716 45.8681 40.5248 45.3281 41.674C44.8081 42.867 44.3101 43.911 43.8281 44.832L43.7201 34.512C43.7236 34.1847 43.6588 33.8603 43.5298 33.5595C43.4009 33.2587 43.2106 32.9881 42.9711 32.765C42.2287 32.1691 41.2806 31.8916 40.3341 31.993C38.2791 32.132 37.0131 33.186 37.0341 34.744C37.0347 34.7828 37.0374 34.8215 37.0421 34.86L37.1651 35.817C37.0402 35.5883 36.9374 35.3482 36.8581 35.1ZM45.0261 58.484C44.0591 58.15 42.8261 57.661 41.6751 57.164L41.4141 53.217L39.0321 34.68C39.0791 34.111 40.2321 34.005 40.4671 33.989C40.8655 33.9298 41.272 34.0161 41.6121 34.232C41.6517 34.2705 41.682 34.3176 41.7007 34.3695C41.7194 34.4215 41.726 34.4771 41.7201 34.532L41.9201 53.932C41.92 54.5431 42.0703 55.1449 42.3579 55.6842C42.6455 56.2235 43.0615 56.6836 43.5691 57.024C44.1297 57.4285 44.6216 57.9204 45.0261 58.481V58.484ZM44.3861 50C44.2311 50 44.0591 50.011 43.8861 50.021L43.8721 48.647C44.8349 47.2346 45.6759 45.7429 46.3861 44.188C47.5231 44.043 48.7051 43.829 49.8631 43.607C51.1721 43.356 52.5241 43.097 53.7401 42.972L59.3741 42.391C60.3211 42.291 60.3441 42.336 60.5041 42.624C60.6296 42.8563 60.7036 43.113 60.7208 43.3766C60.7381 43.6401 60.6983 43.9043 60.6041 44.151C60.5664 44.1944 60.5329 44.2413 60.5041 44.291C59.5131 45.141 53.1691 47.547 48.6541 48.95C48.6276 48.9565 48.6016 48.9645 48.5761 48.974C47.2164 49.4524 45.813 49.7961 44.3861 50Z" fill="white"/>
<path d="M44.8501 18.944C44.658 19.098 44.5295 19.3174 44.4891 19.5602C44.4487 19.803 44.4993 20.0522 44.6311 20.26L50.4631 29.471C50.5383 29.5897 50.6376 29.6911 50.7546 29.7688C50.8716 29.8466 51.0036 29.8987 51.1421 29.922C51.1967 29.9311 51.2518 29.9358 51.3071 29.936C51.5344 29.9358 51.7548 29.8582 51.9321 29.716C60.3681 22.964 64.3501 16.279 62.0571 12.657L56.3201 4.25102C56.1576 4.00337 55.9636 3.77783 55.7431 3.58002C54.4591 2.84915 53.0676 2.32601 51.6201 2.03002C51.2395 1.96634 50.8486 2.01373 50.4942 2.16653C50.1399 2.31933 49.8371 2.57105 49.6221 2.89154C49.4071 3.21203 49.2891 3.5877 49.2822 3.97354C49.2753 4.35938 49.3798 4.73904 49.5831 5.06702L51.8831 8.55202C52.0343 8.76059 52.2601 8.9028 52.5135 8.949C52.7669 8.9952 53.0283 8.94183 53.2434 8.80003C53.4584 8.65822 53.6104 8.4389 53.6678 8.18778C53.7251 7.93666 53.6833 7.6731 53.5511 7.45202L51.2731 4.00002C52.3533 4.24733 53.4049 4.60591 54.4111 5.07002C54.4848 5.13516 54.5518 5.20752 54.6111 5.28602L54.6201 5.30002L54.6721 5.37602C54.8244 5.61365 54.8947 5.89466 54.8721 6.17602C54.5701 9.32902 50.7321 14.223 44.8501 18.944ZM56.4881 8.04402L60.3881 13.758C61.7231 15.866 59.0881 21.19 51.5511 27.45L46.7971 19.941C51.8941 15.723 55.3661 11.44 56.4881 8.04202V8.04402Z" fill="white"/>
<path d="M26.7321 2H26.7201C26.4569 1.99998 26.2044 2.10369 26.0172 2.28864C25.83 2.47359 25.7232 2.72487 25.7201 2.988L25.7081 3.988C25.7065 4.11941 25.7308 4.24984 25.7797 4.37184C25.8285 4.49383 25.901 4.605 25.9928 4.69899C26.0847 4.79298 26.1941 4.86794 26.315 4.91959C26.4358 4.97124 26.5657 4.99856 26.6971 5H26.7081C26.9712 5.00002 27.2238 4.89631 27.411 4.71136C27.5982 4.52641 27.7049 4.27513 27.7081 4.012L27.7201 3.012C27.7217 2.88068 27.6974 2.75033 27.6486 2.62839C27.5998 2.50646 27.5274 2.39533 27.4357 2.30136C27.3439 2.20738 27.2346 2.1324 27.1139 2.08069C26.9931 2.02899 26.8634 2.00157 26.7321 2Z" fill="white"/>
<path d="M25.7201 6.02302C25.723 5.75797 25.6206 5.5026 25.4353 5.31302C25.2501 5.12345 24.9971 5.01518 24.7321 5.01202L23.7321 5.00002H23.7201C23.5887 4.99923 23.4586 5.02432 23.3369 5.07384C23.2153 5.12337 23.1046 5.19637 23.0112 5.28867C22.9178 5.38097 22.8435 5.49077 22.7925 5.61179C22.7415 5.73282 22.7149 5.8627 22.7141 5.99402C22.7133 6.12534 22.7384 6.25553 22.7879 6.37716C22.8374 6.49879 22.9104 6.60947 23.0027 6.70288C23.095 6.7963 23.2048 6.87062 23.3258 6.9216C23.4469 6.97258 23.5767 6.99923 23.7081 7.00002L24.7081 7.01202H24.7201C24.9834 7.01203 25.2361 6.90819 25.4233 6.72302C25.6105 6.53786 25.7172 6.28632 25.7201 6.02302Z" fill="white"/>
<path d="M28.7081 6.98799L29.7081 6.99999H29.7201C29.8514 7.00078 29.9816 6.9757 30.1032 6.92617C30.2248 6.87664 30.3355 6.80365 30.4289 6.71134C30.5223 6.61904 30.5967 6.50924 30.6477 6.38822C30.6986 6.2672 30.7253 6.13732 30.7261 6.00599C30.7269 5.87467 30.7018 5.74448 30.6522 5.62285C30.6027 5.50123 30.5297 5.39055 30.4374 5.29713C30.3451 5.20371 30.2353 5.12939 30.1143 5.07841C29.9933 5.02743 29.8634 5.00078 29.7321 4.99999L28.7321 4.98799H28.7201C28.5887 4.98721 28.4586 5.01229 28.3369 5.06182C28.2153 5.11135 28.1046 5.18434 28.0112 5.27664C27.9178 5.36895 27.8435 5.47874 27.7925 5.59977C27.7415 5.72079 27.7149 5.85067 27.7141 5.98199C27.7133 6.11332 27.7384 6.24351 27.7879 6.36513C27.8374 6.48676 27.9104 6.59744 28.0027 6.69086C28.095 6.78427 28.2048 6.8586 28.3258 6.90958C28.4469 6.96056 28.5767 6.98721 28.7081 6.98799Z" fill="white"/>
<path d="M26.6971 10H26.7081C26.9712 10 27.2238 9.89631 27.411 9.71136C27.5982 9.52641 27.7049 9.27513 27.7081 9.012L27.7201 8.012C27.7217 7.88068 27.6974 7.75033 27.6486 7.62839C27.5998 7.50646 27.5274 7.39533 27.4357 7.30136C27.3439 7.20738 27.2346 7.1324 27.1139 7.08069C26.9931 7.02899 26.8634 7.00157 26.7321 7H26.7201C26.4569 6.99998 26.2044 7.10369 26.0172 7.28864C25.83 7.47359 25.7232 7.72487 25.7201 7.988L25.7081 8.988C25.7065 9.11941 25.7308 9.24984 25.7797 9.37184C25.8285 9.49383 25.901 9.605 25.9928 9.69899C26.0847 9.79298 26.1941 9.86794 26.315 9.91959C26.4358 9.97124 26.5657 9.99856 26.6971 10Z" fill="white"/>
<path d="M20.7321 14.012H20.7201C20.4569 14.012 20.2044 14.1157 20.0172 14.3007C19.83 14.4856 19.7232 14.7369 19.7201 15L19.7081 16C19.7065 16.1314 19.7308 16.2619 19.7797 16.3839C19.8285 16.5059 19.901 16.617 19.9928 16.711C20.0847 16.805 20.1941 16.88 20.315 16.9316C20.4358 16.9833 20.5657 17.0106 20.6971 17.012H20.7081C20.9714 17.012 21.2241 16.9082 21.4113 16.723C21.5985 16.5379 21.7052 16.2863 21.7081 16.023L21.7201 15.023C21.723 14.758 21.6206 14.5026 21.4353 14.313C21.2501 14.1235 20.9971 14.0152 20.7321 14.012Z" fill="white"/>
<path d="M18.7321 17.023L17.7321 17.012C17.6002 17.0084 17.469 17.0313 17.3462 17.0794C17.2233 17.1275 17.1114 17.1997 17.017 17.2919C16.9226 17.384 16.8477 17.4942 16.7967 17.6158C16.7457 17.7375 16.7197 17.8681 16.7201 18C16.7185 18.1314 16.7428 18.2617 16.7916 18.3836C16.8404 18.5056 16.9127 18.6167 17.0045 18.7107C17.0962 18.8046 17.2056 18.8796 17.3263 18.9313C17.447 18.983 17.5768 19.0105 17.7081 19.012L18.7081 19.023H18.7201C18.8514 19.0238 18.9816 18.9987 19.1032 18.9492C19.2249 18.8997 19.3356 18.8267 19.429 18.7344C19.5224 18.6421 19.5967 18.5323 19.6477 18.4113C19.6987 18.2902 19.7253 18.1604 19.7261 18.029C19.7269 17.8977 19.7018 17.7675 19.6523 17.6459C19.6028 17.5243 19.5298 17.4136 19.4375 17.3202C19.3452 17.2267 19.2354 17.1524 19.1143 17.1014C18.9933 17.0505 18.8634 17.0238 18.7321 17.023Z" fill="white"/>
<path d="M22.7081 19L23.7081 19.012H23.7201C23.8514 19.0128 23.9816 18.9877 24.1032 18.9381C24.2248 18.8886 24.3355 18.8156 24.4289 18.7233C24.5224 18.631 24.5967 18.5212 24.6477 18.4002C24.6986 18.2792 24.7253 18.1493 24.7261 18.018C24.7269 17.8867 24.7018 17.7565 24.6523 17.6348C24.6027 17.5132 24.5297 17.4025 24.4374 17.3091C24.3451 17.2157 24.2353 17.1414 24.1143 17.0904C23.9933 17.0394 23.8634 17.0128 23.7321 17.012L22.7321 17C22.5996 16.9939 22.4673 17.0151 22.3434 17.0623C22.2194 17.1095 22.1065 17.1817 22.0116 17.2743C21.9167 17.367 21.8419 17.4781 21.7917 17.6009C21.7416 17.7236 21.7172 17.8554 21.7201 17.988C21.7185 18.1193 21.7428 18.2496 21.7916 18.3716C21.8404 18.4935 21.9127 18.6046 22.0045 18.6986C22.0962 18.7926 22.2056 18.8676 22.3263 18.9193C22.447 18.971 22.5768 18.9984 22.7081 19Z" fill="white"/>
<path d="M20.6971 22.012H20.7081C20.9714 22.012 21.2241 21.9082 21.4113 21.723C21.5985 21.5378 21.7052 21.2863 21.7081 21.023L21.7201 20.023C21.723 19.7579 21.6206 19.5026 21.4353 19.313C21.2501 19.1234 20.9971 19.0152 20.7321 19.012C20.5993 19.0049 20.4666 19.0254 20.3422 19.0722C20.2178 19.119 20.1044 19.1911 20.0093 19.284C19.9142 19.3768 19.8394 19.4884 19.7896 19.6117C19.7398 19.7349 19.7162 19.8671 19.7201 20L19.7081 21C19.7065 21.1314 19.7308 21.2618 19.7797 21.3838C19.8285 21.5058 19.901 21.617 19.9928 21.711C20.0847 21.805 20.1941 21.8799 20.315 21.9316C20.4358 21.9832 20.5657 22.0106 20.6971 22.012Z" fill="white"/>
<path d="M55.0581 21.841C55.147 21.9889 55.2726 22.1113 55.4228 22.1963C55.5729 22.2813 55.7425 22.326 55.9151 22.326C55.9518 22.326 55.9886 22.324 56.0251 22.32C56.2152 22.2993 56.3953 22.2245 56.5442 22.1045C56.6931 21.9845 56.8045 21.8243 56.8651 21.643L58.6401 16.316C58.6901 16.1657 58.7038 16.0058 58.6799 15.8492C58.656 15.6926 58.5953 15.544 58.5027 15.4155C58.4102 15.287 58.2884 15.1823 58.1475 15.1101C58.0065 15.0379 57.8505 15.0001 57.6921 15H52.7201C52.5431 15 52.3693 15.047 52.2164 15.1362C52.0635 15.2254 51.937 15.3536 51.8499 15.5076C51.7627 15.6617 51.718 15.8361 51.7204 16.0131C51.7227 16.1901 51.7719 16.3633 51.8631 16.515L55.0581 21.841ZM56.3041 17L55.6551 18.947L54.4861 17H56.3041Z" fill="white"/>
</svg>
