<svg width="50" height="50" viewBox="0 0 50 50" fill="none" xmlns="http://www.w3.org/2000/svg">
<g clip-path="url(#clip0_1058_4403)">
<path d="M1.30257 32.0446H31.1572C31.4364 32.0447 31.7046 31.9355 31.9043 31.7405C32.1041 31.5455 32.2198 31.2801 32.2265 31.001V1.12068C32.2265 0.837089 32.1138 0.565113 31.9133 0.364574C31.7128 0.164044 31.4407 0.0513916 31.1572 0.0513916H1.30257C1.01897 0.0513916 0.746998 0.164044 0.546467 0.364574C0.345937 0.565113 0.233276 0.837089 0.233276 1.12068V31.001C0.239974 31.2801 0.355586 31.5455 0.555398 31.7405C0.755201 31.9355 1.02336 32.0447 1.30257 32.0446ZM2.37186 2.18997H30.0879V29.906H2.37186V2.18997Z" fill="#CE2127"/>
<path d="M31.2855 35.107C31.0019 35.107 30.7299 35.2196 30.5294 35.4201C30.3289 35.6207 30.2162 35.8926 30.2162 36.1763V41.9077L24.2282 37.947C24.0255 37.8201 23.7865 37.7642 23.5486 37.7881C23.3107 37.8119 23.0875 37.9142 22.9141 38.0787C22.7407 38.2433 22.6271 38.4609 22.5908 38.6972C22.5546 38.9335 22.598 39.1752 22.7141 39.3841L24.7585 42.8059H7.90651L9.94244 39.5552C10.063 39.3491 10.1116 39.1087 10.0808 38.8718C10.0499 38.635 9.94124 38.4152 9.77195 38.2468C9.60257 38.0784 9.38204 37.971 9.14509 37.9415C8.90805 37.912 8.66801 37.9621 8.46254 38.0839L2.37186 41.9504V36.1763C2.37186 35.8926 2.2592 35.6207 2.05867 35.4201C1.85814 35.2196 1.58616 35.107 1.30257 35.107C1.01897 35.107 0.746998 35.2196 0.546467 35.4201C0.345937 35.6207 0.233276 35.8926 0.233276 36.1763V43.8752C0.243696 44.0445 0.292173 44.2095 0.375107 44.3575C0.45805 44.5056 0.573311 44.6332 0.712319 44.7306L8.32567 49.8204C8.50026 49.9374 8.70574 50 8.91592 50.0001C9.10206 49.9989 9.2847 49.9495 9.44612 49.8568C9.60745 49.764 9.74209 49.6311 9.83688 49.4709C9.93157 49.3107 9.98324 49.1286 9.98675 48.9426C9.99026 48.7564 9.94552 48.5726 9.85689 48.4089L7.81241 44.9872H24.6901L22.6884 48.2208C22.5621 48.4256 22.5087 48.6671 22.5366 48.9061C22.5646 49.1451 22.6724 49.3677 22.8425 49.538C23.0127 49.7081 23.2353 49.8159 23.4744 49.8439C23.7134 49.8718 23.9549 49.8184 24.1597 49.6921L31.8586 44.8076C32.0513 44.6875 32.1987 44.507 32.2778 44.2943C32.3314 44.1669 32.3604 44.0304 32.3633 43.8923V36.1934C32.3656 36.0508 32.3394 35.9092 32.2861 35.7769C32.2329 35.6446 32.1537 35.5243 32.0532 35.4231C31.9528 35.3219 31.8331 35.2417 31.7013 35.1875C31.5695 35.1331 31.4281 35.1058 31.2855 35.107Z" fill="#CE2127"/>
<path d="M49.9853 22.7032C49.8163 22.5295 49.5944 22.4168 49.3544 22.3827C49.1145 22.3487 48.87 22.3952 48.6594 22.515L45.2377 24.568V7.72455L48.4883 9.76048C48.6931 9.88674 48.9346 9.94029 49.1737 9.91232C49.4127 9.88435 49.6353 9.77648 49.8055 9.60633C49.9757 9.43618 50.0834 9.21352 50.1114 8.97451C50.1394 8.7355 50.0859 8.49401 49.9597 8.28913L45.1607 0.675792C45.0809 0.477443 44.944 0.30728 44.7673 0.186946C44.5906 0.0666125 44.3822 0.00153978 44.1684 0H36.4695C36.1858 0 35.9139 0.112661 35.7134 0.313191C35.5129 0.513722 35.4002 0.785698 35.4002 1.06929C35.4002 1.35288 35.5129 1.62486 35.7134 1.82539C35.9139 2.02592 36.1858 2.13858 36.4695 2.13858H42.1923L38.1975 8.1266C38.0744 8.32857 38.0218 8.56561 38.0478 8.80068C38.0738 9.03576 38.1771 9.25552 38.3413 9.42566C38.5056 9.59581 38.7217 9.70667 38.9556 9.74098C39.1897 9.77519 39.4284 9.73097 39.6346 9.61506L43.0563 7.57057V24.4226L39.7971 22.4465C39.5916 22.3248 39.3515 22.2748 39.1146 22.3043C38.8775 22.3337 38.6571 22.4411 38.4877 22.6095C38.3183 22.7779 38.2097 22.9977 38.1788 23.2346C38.148 23.4714 38.1966 23.7117 38.3172 23.9179L42.1667 30.0171H36.4267C36.1431 30.0171 35.8711 30.1298 35.6706 30.3303C35.4701 30.5308 35.3574 30.8028 35.3574 31.0864C35.3574 31.37 35.4701 31.642 35.6706 31.8425C35.8711 32.043 36.1431 32.1557 36.4267 32.1557H44.1256C44.2545 32.1516 44.3818 32.1255 44.502 32.0787C44.7182 32.0068 44.9046 31.8655 45.0324 31.6767L50.0623 24.0291C50.2008 23.8317 50.2686 23.5934 50.2546 23.3527C50.2406 23.1121 50.1457 22.8832 49.9853 22.7032Z" fill="#CE2127"/>
</g>
<defs>
<clipPath id="clip0_1058_4403">
<rect width="50" height="50" fill="white"/>
</clipPath>
</defs>
</svg>
