<svg width="40" height="40" viewBox="0 0 40 40" fill="none" xmlns="http://www.w3.org/2000/svg">
<path d="M9.96885 25.576L19.2 38.6537V39.2001H20.8V38.6537L30.0312 25.576C35.1241 25.3296 39.2001 20.7768 39.2001 15.2C39.2001 9.46565 34.8937 4.80005 29.6 4.80005C28.9792 4.80005 28.3464 4.89285 27.712 5.03365C25.9616 2.47205 23.1608 0.800049 20 0.800049C16.8392 0.800049 14.0376 2.47125 12.288 5.03365C11.6544 4.89365 11.0216 4.80005 10.4 4.80005C5.10645 4.80005 0.800049 9.46565 0.800049 15.2C0.800049 20.7768 4.87605 25.3296 9.96885 25.576ZM11.8504 25.468C14.336 25.0576 16.5672 23.6048 18.0856 21.3912C18.4496 21.4712 18.8224 21.5216 19.1992 21.556V35.8792L11.8504 25.468ZM20.8 21.556C21.1776 21.5224 21.5504 21.4712 21.9136 21.3912C23.432 23.604 25.6632 25.0576 28.1488 25.468L20.8 35.8792V21.556ZM28.5529 6.48085C28.9057 6.42725 29.2552 6.40005 29.6 6.40005C34.0112 6.40005 37.6 10.348 37.6 15.2C37.6 20.052 34.0112 24 29.6 24C27.2288 24 25.0072 22.8496 23.4937 20.8784C23.5008 20.8752 23.508 20.8712 23.5152 20.868C23.6952 20.7912 23.8704 20.7073 24.0448 20.6185C24.1256 20.5777 24.2057 20.536 24.2857 20.4928C24.4384 20.4096 24.5904 20.3248 24.7392 20.2336C24.8432 20.1696 24.9432 20.1 25.0441 20.0329C25.212 19.9192 25.3784 19.804 25.5392 19.68C25.7032 19.5544 25.8657 19.4248 26.0217 19.2888C26.1145 19.2072 26.2032 19.1208 26.2936 19.0352C26.4144 18.9216 26.5336 18.8056 26.6488 18.6856C26.736 18.5944 26.8216 18.5016 26.9064 18.4072C27.0216 18.2776 27.132 18.1448 27.24 18.0096C27.3136 17.9184 27.3881 17.8296 27.4585 17.7353C27.6201 17.5192 27.7745 17.2968 27.92 17.0672C27.9809 16.9712 28.0352 16.8696 28.0936 16.7712C28.1833 16.6184 28.272 16.4648 28.3545 16.3064C28.4168 16.1872 28.4753 16.0664 28.5329 15.9448C28.604 15.7944 28.6721 15.6416 28.7369 15.4872C28.788 15.3656 28.8393 15.2456 28.8864 15.1216C28.9713 14.8976 29.048 14.6688 29.1176 14.4376C29.1536 14.3193 29.1856 14.1993 29.2176 14.0792C29.2752 13.864 29.328 13.6472 29.3728 13.4272C29.3952 13.3152 29.4144 13.2024 29.4336 13.0888C29.4696 12.8808 29.4984 12.6704 29.5224 12.4584C29.5336 12.356 29.5464 12.2536 29.5553 12.1504C29.5824 11.836 29.6 11.52 29.6 11.2C29.6 10.8088 29.576 10.424 29.5368 10.044C29.5249 9.93045 29.504 9.82005 29.4896 9.70725C29.4536 9.43845 29.4128 9.17125 29.3576 8.90965C29.3312 8.78165 29.2984 8.65605 29.2672 8.52885C29.2064 8.28245 29.1392 8.03925 29.0624 7.80085C29.0224 7.67525 28.9808 7.55125 28.936 7.42805C28.848 7.18325 28.7496 6.94565 28.6456 6.71045C28.612 6.63445 28.5881 6.55525 28.5529 6.48085ZM20 2.40005C22.7504 2.40005 25.1808 3.93525 26.6208 6.26725L26.6448 6.30725C26.66 6.33285 26.6728 6.36005 26.688 6.38565C26.8736 6.69765 27.036 7.02165 27.1832 7.35285C27.2144 7.42245 27.2457 7.49205 27.2753 7.56245C27.4216 7.91445 27.5505 8.27445 27.6529 8.64325C27.6617 8.67445 27.6673 8.70805 27.6753 8.73925C27.7649 9.07445 27.8312 9.41685 27.8832 9.76245C27.8976 9.85685 27.9112 9.95125 27.9224 10.0464C27.9681 10.4272 27.9993 10.8112 27.9993 11.2C27.9993 11.4784 27.984 11.7536 27.9616 12.0256C27.9536 12.1224 27.94 12.2168 27.9288 12.3128C27.9088 12.4856 27.8864 12.6576 27.8576 12.8272C27.8384 12.94 27.816 13.052 27.7929 13.1632C27.7617 13.3128 27.7272 13.46 27.6888 13.6064C27.6592 13.7216 27.6288 13.8376 27.5944 13.9512C27.552 14.092 27.504 14.2304 27.4552 14.368C27.4168 14.4776 27.3801 14.5888 27.3377 14.6968C27.2712 14.8656 27.1961 15.0296 27.1201 15.192C27.0529 15.3368 26.9808 15.4792 26.9064 15.62C26.832 15.76 26.7577 15.9008 26.6768 16.036C26.616 16.1376 26.5496 16.2344 26.4848 16.3328C26.4104 16.4456 26.336 16.5584 26.2576 16.6672C26.1856 16.7664 26.1112 16.8632 26.0352 16.9584C25.956 17.0584 25.8752 17.156 25.7929 17.2521C25.7104 17.3472 25.6272 17.4416 25.5408 17.5329C25.4601 17.6185 25.376 17.6992 25.2928 17.7808C25.196 17.8744 25.1008 17.9696 25 18.0584C24.9368 18.1144 24.8704 18.1649 24.8064 18.2185C24.3416 18.6033 23.8392 18.9392 23.2984 19.208C23.2968 19.2088 23.2952 19.2097 23.2936 19.2104C23.0984 19.3072 22.8976 19.3952 22.6936 19.476C22.684 19.48 22.6736 19.484 22.664 19.4881C22.4584 19.5681 22.248 19.6392 22.0336 19.7008C21.3832 19.8896 20.7041 20 20 20C19.296 20 18.6168 19.8896 17.9664 19.7008C17.752 19.6392 17.5424 19.5672 17.3361 19.4881C17.3264 19.484 17.316 19.48 17.3064 19.476C17.1024 19.396 16.9016 19.3081 16.7064 19.2104C16.7048 19.2097 16.7032 19.2088 16.7016 19.208C16.1608 18.9392 15.6584 18.6033 15.1936 18.2185C15.1288 18.1649 15.0624 18.1144 15 18.0584C14.8992 17.9696 14.804 17.8752 14.7072 17.7808C14.6233 17.6992 14.54 17.6185 14.4592 17.5329C14.3728 17.4416 14.2896 17.3472 14.2072 17.2521C14.124 17.156 14.0432 17.0584 13.9648 16.9584C13.8888 16.8624 13.8144 16.7664 13.7424 16.6672C13.664 16.5584 13.5888 16.4456 13.5152 16.3328C13.4504 16.2344 13.384 16.1368 13.3232 16.036C13.2416 15.9008 13.168 15.76 13.0936 15.62C13.0192 15.4792 12.9472 15.3376 12.88 15.192C12.804 15.0288 12.7296 14.8648 12.6624 14.6968C12.62 14.5888 12.5832 14.4776 12.5448 14.368C12.496 14.2304 12.448 14.092 12.4056 13.9512C12.3712 13.8376 12.3416 13.7224 12.3112 13.6064C12.2736 13.46 12.2384 13.3128 12.2072 13.1632C12.184 13.052 12.1616 12.94 12.1424 12.8272C12.1136 12.6576 12.0904 12.4856 12.0712 12.3128C12.06 12.2168 12.0464 12.1224 12.0384 12.0256C12.0152 11.7536 12.0008 11.4792 12.0008 11.2C12.0008 10.8112 12.032 10.4272 12.0776 10.0464C12.0888 9.95125 12.1032 9.85765 12.1168 9.76405C12.1688 9.41845 12.236 9.07525 12.3248 8.74005C12.3328 8.70885 12.3384 8.67525 12.3472 8.64405C12.4496 8.27525 12.5784 7.91525 12.7248 7.56245C12.7536 7.49205 12.7856 7.42325 12.8168 7.35365C12.964 7.02245 13.1264 6.69765 13.3128 6.38565C13.328 6.36005 13.3408 6.33285 13.356 6.30725L13.38 6.26725C14.8192 3.93525 17.2496 2.40005 20 2.40005ZM10.4 6.40005C10.7448 6.40005 11.0944 6.42725 11.4472 6.48085C11.412 6.55525 11.388 6.63445 11.3544 6.70965C11.2496 6.94485 11.152 7.18325 11.064 7.42725C11.0192 7.55125 10.9776 7.67525 10.9376 7.80005C10.8608 8.03925 10.7936 8.28165 10.7328 8.52805C10.7016 8.65445 10.6688 8.78085 10.6424 8.90885C10.588 9.17125 10.5464 9.43765 10.5104 9.70645C10.4952 9.81925 10.4744 9.92965 10.4632 10.0432C10.424 10.424 10.4 10.8088 10.4 11.2C10.4 11.52 10.4176 11.836 10.4448 12.1504C10.4536 12.2536 10.4664 12.356 10.4776 12.4584C10.5016 12.6704 10.5312 12.88 10.5664 13.0888C10.5856 13.2016 10.604 13.3152 10.6272 13.4272C10.672 13.6472 10.7248 13.864 10.7824 14.0792C10.8144 14.1993 10.8464 14.3193 10.8824 14.4376C10.9528 14.6688 11.0296 14.8976 11.1136 15.1216C11.16 15.2456 11.212 15.3656 11.2632 15.4872C11.328 15.6416 11.3952 15.7944 11.4672 15.9448C11.5248 16.0664 11.584 16.1872 11.6456 16.3064C11.728 16.464 11.8168 16.6184 11.9064 16.7712C11.9648 16.8696 12.0192 16.9712 12.08 17.0672C12.2256 17.2968 12.38 17.5192 12.5416 17.7353C12.612 17.8288 12.6872 17.9184 12.76 18.0096C12.8688 18.1448 12.9792 18.2785 13.0936 18.4072C13.1776 18.5016 13.2632 18.5944 13.3512 18.6856C13.4664 18.8056 13.5856 18.9216 13.7064 19.0352C13.7968 19.1208 13.8848 19.2072 13.9784 19.2888C14.1344 19.4256 14.2968 19.5544 14.4608 19.68C14.6216 19.804 14.788 19.92 14.956 20.0329C15.0576 20.1008 15.1576 20.1696 15.2608 20.2336C15.4088 20.3256 15.5608 20.4096 15.7144 20.4928C15.7944 20.536 15.8744 20.5777 15.9552 20.6185C16.1296 20.7064 16.3048 20.7912 16.4848 20.868C16.4921 20.8712 16.4992 20.8752 16.5064 20.8784C14.9928 22.8496 12.772 24 10.4 24C5.98885 24 2.40005 20.052 2.40005 15.2C2.40005 10.348 5.98885 6.40005 10.4 6.40005Z" fill="black"/>
</svg>
