<svg width="50" height="50" viewBox="0 0 50 50" fill="none" xmlns="http://www.w3.org/2000/svg">
<path d="M14.5833 19.2709C14.8595 19.2709 15.1245 19.1611 15.3198 18.9658C15.5151 18.7705 15.6249 18.5055 15.6249 18.2292C15.6249 17.953 15.5151 17.688 15.3198 17.4926C15.1245 17.2973 14.8595 17.1875 14.5833 17.1875H13.0208V15.625C13.0208 15.3488 12.911 15.0838 12.7156 14.8885C12.5203 14.6932 12.2553 14.5834 11.9791 14.5834C11.7028 14.5834 11.4378 14.6932 11.2425 14.8885C11.0472 15.0838 10.9374 15.3488 10.9374 15.625V17.1875H9.37492C9.09865 17.1875 8.8337 17.2973 8.63835 17.4926C8.443 17.688 8.33325 17.953 8.33325 18.2292C8.33325 18.5055 8.443 18.7705 8.63835 18.9658C8.8337 19.1611 9.09865 19.2709 9.37492 19.2709H10.9374V20.8334C10.9374 21.1096 11.0472 21.3746 11.2425 21.5699C11.4378 21.7652 11.7028 21.875 11.9791 21.875C12.2553 21.875 12.5203 21.7652 12.7156 21.5699C12.911 21.3746 13.0208 21.1096 13.0208 20.8334V19.2709H14.5833Z" fill="#CE2127"/>
<path d="M38.0209 16.6667C38.5962 16.6667 39.0626 16.2004 39.0626 15.625C39.0626 15.0497 38.5962 14.5834 38.0209 14.5834C37.4456 14.5834 36.9792 15.0497 36.9792 15.625C36.9792 16.2004 37.4456 16.6667 38.0209 16.6667Z" fill="#CE2127"/>
<path d="M38.0209 21.875C38.5962 21.875 39.0626 21.4086 39.0626 20.8333C39.0626 20.258 38.5962 19.7916 38.0209 19.7916C37.4456 19.7916 36.9792 20.258 36.9792 20.8333C36.9792 21.4086 37.4456 21.875 38.0209 21.875Z" fill="#CE2127"/>
<path d="M40.6249 19.2708C41.2002 19.2708 41.6666 18.8045 41.6666 18.2292C41.6666 17.6539 41.2002 17.1875 40.6249 17.1875C40.0496 17.1875 39.5833 17.6539 39.5833 18.2292C39.5833 18.8045 40.0496 19.2708 40.6249 19.2708Z" fill="#CE2127"/>
<path d="M35.4167 19.2708C35.992 19.2708 36.4583 18.8045 36.4583 18.2292C36.4583 17.6539 35.992 17.1875 35.4167 17.1875C34.8414 17.1875 34.375 17.6539 34.375 18.2292C34.375 18.8045 34.8414 19.2708 35.4167 19.2708Z" fill="#CE2127"/>
<path d="M17.1876 22.9166C16.4665 22.9166 15.7616 23.1305 15.1621 23.5311C14.5625 23.9316 14.0952 24.5011 13.8192 25.1673C13.5433 25.8334 13.4711 26.5665 13.6118 27.2737C13.7525 27.9809 14.0997 28.6306 14.6096 29.1405C15.1194 29.6504 15.7691 29.9976 16.4763 30.1382C17.1835 30.2789 17.9166 30.2067 18.5828 29.9308C19.2489 29.6549 19.8184 29.1876 20.2189 28.588C20.6196 27.9884 20.8334 27.2835 20.8334 26.5625C20.8334 25.5955 20.4493 24.6682 19.7656 23.9844C19.0818 23.3007 18.1546 22.9166 17.1876 22.9166ZM17.1876 28.125C16.8785 28.125 16.5764 28.0333 16.3194 27.8616C16.0626 27.69 15.8623 27.4459 15.744 27.1604C15.6258 26.8749 15.5948 26.5607 15.6551 26.2577C15.7154 25.9545 15.8642 25.6761 16.0827 25.4576C16.3012 25.2391 16.5797 25.0903 16.8828 25.03C17.1858 24.9696 17.5 25.0007 17.7855 25.1189C18.071 25.2371 18.3151 25.4375 18.4867 25.6943C18.6584 25.9513 18.7501 26.2534 18.7501 26.5625C18.7501 26.9768 18.5855 27.3743 18.2925 27.6674C17.9994 27.9604 17.6019 28.125 17.1876 28.125Z" fill="#CE2127"/>
<path d="M32.8126 22.9166C32.0915 22.9166 31.3866 23.1305 30.7871 23.5311C30.1875 23.9316 29.7202 24.5011 29.4442 25.1673C29.1683 25.8334 29.0961 26.5665 29.2368 27.2737C29.3775 27.9809 29.7247 28.6306 30.2346 29.1405C30.7444 29.6504 31.3941 29.9976 32.1013 30.1382C32.8085 30.2789 33.5416 30.2067 34.2078 29.9308C34.8739 29.6549 35.4434 29.1876 35.8439 28.588C36.2446 27.9884 36.4584 27.2835 36.4584 26.5625C36.4584 25.5955 36.0742 24.6682 35.3906 23.9844C34.7068 23.3007 33.7796 22.9166 32.8126 22.9166ZM32.8126 28.125C32.5035 28.125 32.2014 28.0333 31.9444 27.8616C31.6876 27.69 31.4873 27.4459 31.369 27.1604C31.2507 26.8749 31.2198 26.5607 31.2801 26.2577C31.3404 25.9545 31.4892 25.6761 31.7077 25.4576C31.9262 25.2391 32.2047 25.0903 32.5078 25.03C32.8108 24.9696 33.125 25.0007 33.4105 25.1189C33.696 25.2371 33.9401 25.4375 34.1117 25.6943C34.2834 25.9513 34.3751 26.2534 34.3751 26.5625C34.3751 26.9768 34.2105 27.3743 33.9175 27.6674C33.6244 27.9604 33.2269 28.125 32.8126 28.125Z" fill="#CE2127"/>
<path d="M22.9166 19.7916H21.8749C21.5987 19.7916 21.3337 19.9014 21.1384 20.0967C20.943 20.292 20.8333 20.557 20.8333 20.8333C20.8333 21.1095 20.943 21.3745 21.1384 21.5699C21.3337 21.7652 21.5987 21.875 21.8749 21.875H22.9166C23.1928 21.875 23.4578 21.7652 23.6531 21.5699C23.8485 21.3745 23.9583 21.1095 23.9583 20.8333C23.9583 20.557 23.8485 20.292 23.6531 20.0967C23.4578 19.9014 23.1928 19.7916 22.9166 19.7916Z" fill="#CE2127"/>
<path d="M28.1251 19.7916H27.0834C26.8072 19.7916 26.5422 19.9014 26.3469 20.0967C26.1515 20.292 26.0417 20.557 26.0417 20.8333C26.0417 21.1095 26.1515 21.3745 26.3469 21.5699C26.5422 21.7652 26.8072 21.875 27.0834 21.875H28.1251C28.4013 21.875 28.6663 21.7652 28.8616 21.5699C29.057 21.3745 29.1667 21.1095 29.1667 20.8333C29.1667 20.557 29.057 20.292 28.8616 20.0967C28.6663 19.9014 28.4013 19.7916 28.1251 19.7916Z" fill="#CE2127"/>
<path d="M46.3354 15.3572C46.0137 14.1554 45.4582 13.0287 44.701 12.0415C43.9436 11.0543 42.9992 10.226 41.9217 9.60395C40.8442 8.98186 39.6546 8.57815 38.4211 8.41589C37.1875 8.25363 35.9341 8.33599 34.7323 8.65827C32.7518 9.29656 30.9993 10.4962 29.6875 12.1114C29.5852 12.2364 29.4559 12.3363 29.3091 12.4037C29.1623 12.471 29.0021 12.5039 28.8406 12.4999H21.1636C21.0022 12.5037 20.842 12.4707 20.6953 12.4034C20.5486 12.336 20.4191 12.2362 20.3167 12.1114C19.0044 10.4959 17.2511 9.2962 15.2698 8.65827C14.0679 8.33568 12.8143 8.25308 11.5804 8.41519C10.3467 8.5773 9.15687 8.98095 8.07912 9.60306C7.00139 10.2252 6.05678 11.0536 5.29932 12.0409C4.54185 13.0283 3.98636 14.1551 3.6646 15.3572C-0.595814 31.2593 0.326063 39.7916 6.48335 41.4406C10.3031 42.4656 13.775 40.0864 16.8281 34.3645C16.9511 34.3718 17.0698 34.3749 17.1875 34.3749C19.1564 34.3811 21.0534 33.636 22.4917 32.2916H27.5084C28.9467 33.636 30.8437 34.3811 32.8125 34.3749C32.9302 34.3749 33.049 34.3749 33.1719 34.3645C35.7625 39.2229 38.6615 41.6718 41.8177 41.6718C42.3921 41.6697 42.9637 41.592 43.5177 41.4406C49.674 39.7916 50.5959 31.2593 46.3354 15.3572ZM42.9771 39.4291C40.1011 40.1989 37.3198 37.9635 34.7 32.7874C34.6017 32.5935 34.4452 32.4353 34.2524 32.3347C34.0597 32.2342 33.8402 32.1966 33.625 32.227C33.3561 32.2674 33.0845 32.289 32.8125 32.2916C32.0409 32.2937 31.2769 32.1384 30.5672 31.8351C29.8576 31.5319 29.2173 31.0871 28.6854 30.5281C28.5881 30.4268 28.4713 30.3463 28.3421 30.2913C28.2128 30.2364 28.0738 30.2082 27.9334 30.2083H22.0667C21.9263 30.2082 21.7872 30.2364 21.6579 30.2913C21.5288 30.3463 21.4119 30.4268 21.3146 30.5281C20.7827 31.0871 20.1424 31.5319 19.4328 31.8351C18.7231 32.1384 17.9592 32.2937 17.1875 32.2916C16.9155 32.289 16.644 32.2674 16.375 32.227C16.1598 32.1966 15.9403 32.2342 15.7476 32.3347C15.5548 32.4353 15.3984 32.5935 15.3 32.7874C12.6802 37.9635 9.89481 40.1999 7.02294 39.4291C2.35315 38.1791 1.88752 30.0395 5.67606 15.8968C6.09791 14.3278 7.02428 12.9411 8.31229 11.9508C9.6003 10.9604 11.1784 10.4213 12.8031 10.4166C13.4533 10.417 14.1004 10.5029 14.7281 10.6718C16.2671 11.1883 17.63 12.1267 18.6615 13.3801C18.959 13.758 19.3389 14.0628 19.7721 14.2713C20.2054 14.4797 20.6806 14.5865 21.1615 14.5833H28.8386C29.3196 14.5863 29.7949 14.4793 30.2282 14.2705C30.6616 14.0615 31.0414 13.7563 31.3386 13.3781C32.3702 12.1248 33.733 11.1864 35.2719 10.6697C37.1652 10.1637 39.182 10.4299 40.8793 11.4097C42.5765 12.3896 43.8154 14.0031 44.324 15.8958C48.1125 30.0395 47.6469 38.177 42.9771 39.4291Z" fill="#CE2127"/>
</svg>
