<svg width="50" height="50" viewBox="0 0 50 50" fill="none" xmlns="http://www.w3.org/2000/svg">
<path d="M13.2813 25C13.1268 25 12.9758 24.9542 12.8474 24.8683C12.7189 24.7825 12.6188 24.6605 12.5597 24.5177C12.5006 24.375 12.4851 24.218 12.5152 24.0664C12.5454 23.9149 12.6198 23.7757 12.729 23.6664L18.1977 18.1977C18.3451 18.0554 18.5424 17.9766 18.7473 17.9784C18.9521 17.9802 19.1481 18.0624 19.2929 18.2072C19.4378 18.3521 19.5199 18.548 19.5217 18.7529C19.5235 18.9577 19.4447 19.155 19.3024 19.3024L13.8337 24.7711C13.6872 24.9177 13.4885 25 13.2813 25Z" fill="#CE2127"/>
<path d="M36.7187 25C36.5115 25 36.3128 24.9177 36.1663 24.7711L30.6976 19.3024C30.5553 19.155 30.4765 18.9577 30.4783 18.7529C30.4801 18.548 30.5622 18.3521 30.7071 18.2072C30.8519 18.0624 31.0479 17.9802 31.2527 17.9784C31.4576 17.9766 31.6549 18.0554 31.8023 18.1977L37.271 23.6664C37.3802 23.7757 37.4546 23.9149 37.4848 24.0664C37.5149 24.218 37.4994 24.375 37.4403 24.5177C37.3812 24.6605 37.2811 24.7825 37.1526 24.8683C37.0242 24.9542 36.8732 25 36.7187 25Z" fill="#CE2127"/>
<path d="M32.8125 40.625H17.1875C16.9803 40.625 16.7816 40.5427 16.6351 40.3962C16.4886 40.2497 16.4062 40.051 16.4062 39.8438C16.4062 39.6365 16.4886 39.4378 16.6351 39.2913C16.7816 39.1448 16.9803 39.0625 17.1875 39.0625H32.8125C33.0197 39.0625 33.2184 39.1448 33.3649 39.2913C33.5114 39.4378 33.5938 39.6365 33.5938 39.8438C33.5938 40.051 33.5114 40.2497 33.3649 40.3962C33.2184 40.5427 33.0197 40.625 32.8125 40.625Z" fill="#CE2127"/>
<path d="M25 30.4687C23.0345 30.5183 21.0769 30.2003 19.2281 29.5312C17.543 28.8453 17.1875 27.9625 17.1875 27.3437C17.1875 26.725 17.543 25.8422 19.2367 25.1516C19.3322 25.1105 19.4348 25.0888 19.5387 25.0879C19.6426 25.087 19.7457 25.1068 19.8418 25.1462C19.9379 25.1856 20.0253 25.2438 20.0987 25.3173C20.1721 25.3909 20.23 25.4783 20.2692 25.5746C20.3084 25.6708 20.328 25.7739 20.3268 25.8778C20.3257 25.9817 20.3038 26.0843 20.2625 26.1796C20.2212 26.275 20.1613 26.3611 20.0864 26.433C20.0114 26.5049 19.9228 26.5612 19.8258 26.5984C18.9367 26.9609 18.75 27.2937 18.75 27.3437C18.75 27.3937 18.9367 27.7266 19.8258 28.0891C21.4851 28.6793 23.2396 28.9563 25 28.9062C26.7574 28.9566 28.5089 28.6806 30.1656 28.0922C31.0633 27.7266 31.25 27.3937 31.25 27.3437C31.25 27.2937 31.0633 26.9609 30.1742 26.5984C30.0772 26.5612 29.9886 26.5049 29.9136 26.433C29.8387 26.3611 29.7788 26.275 29.7375 26.1796C29.6962 26.0843 29.6743 25.9817 29.6732 25.8778C29.672 25.7739 29.6916 25.6708 29.7308 25.5746C29.77 25.4783 29.8279 25.3909 29.9013 25.3173C29.9747 25.2438 30.0621 25.1856 30.1582 25.1462C30.2543 25.1068 30.3574 25.087 30.4613 25.0879C30.5652 25.0888 30.6678 25.1105 30.7633 25.1516C32.457 25.8422 32.8125 26.725 32.8125 27.3437C32.8125 27.9625 32.457 28.8453 30.7633 29.5359C28.9169 30.2026 26.9624 30.519 25 30.4687Z" fill="#CE2127"/>
<path d="M28.9062 17.1875H28.125C27.9178 17.1875 27.7191 17.1052 27.5726 16.9587C27.4261 16.8122 27.3438 16.6135 27.3438 16.4062C27.3438 16.199 27.4261 16.0003 27.5726 15.8538C27.7191 15.7073 27.9178 15.625 28.125 15.625H28.9062C29.1135 15.625 29.3122 15.5427 29.4587 15.3962C29.6052 15.2497 29.6875 15.051 29.6875 14.8438V10.1562C29.6875 9.94905 29.6052 9.75034 29.4587 9.60382C29.3122 9.45731 29.1135 9.375 28.9062 9.375H21.0938C20.8865 9.375 20.6878 9.45731 20.5413 9.60382C20.3948 9.75034 20.3125 9.94905 20.3125 10.1562V14.8438C20.3125 15.051 20.3948 15.2497 20.5413 15.3962C20.6878 15.5427 20.8865 15.625 21.0938 15.625H21.875C22.0822 15.625 22.2809 15.7073 22.4274 15.8538C22.5739 16.0003 22.6562 16.199 22.6562 16.4062C22.6562 16.6135 22.5739 16.8122 22.4274 16.9587C22.2809 17.1052 22.0822 17.1875 21.875 17.1875H21.0938C20.4721 17.1875 19.876 16.9406 19.4365 16.501C18.9969 16.0615 18.75 15.4654 18.75 14.8438V10.1562C18.75 9.53465 18.9969 8.93851 19.4365 8.49897C19.876 8.05943 20.4721 7.8125 21.0938 7.8125H28.9062C29.5279 7.8125 30.124 8.05943 30.5635 8.49897C31.0031 8.93851 31.25 9.53465 31.25 10.1562V14.8438C31.25 15.4654 31.0031 16.0615 30.5635 16.501C30.124 16.9406 29.5279 17.1875 28.9062 17.1875Z" fill="#CE2127"/>
<path d="M25 7.03125C24.3819 7.03125 23.7777 6.84797 23.2638 6.50459C22.7499 6.16121 22.3494 5.67316 22.1129 5.10214C21.8764 4.53112 21.8145 3.90279 21.935 3.29659C22.0556 2.6904 22.3533 2.13358 22.7903 1.69654C23.2273 1.2595 23.7842 0.961876 24.3903 0.841297C24.9965 0.720719 25.6249 0.782604 26.1959 1.01913C26.7669 1.25565 27.255 1.65619 27.5983 2.17009C27.9417 2.684 28.125 3.28818 28.125 3.90625C28.125 4.73505 27.7958 5.52991 27.2097 6.11596C26.6237 6.70201 25.8288 7.03125 25 7.03125ZM25 2.34375C24.691 2.34375 24.3889 2.43539 24.1319 2.60708C23.875 2.77877 23.6747 3.0228 23.5564 3.30831C23.4382 3.59382 23.4072 3.90798 23.4675 4.21108C23.5278 4.51418 23.6766 4.79259 23.8951 5.01111C24.1137 5.22963 24.3921 5.37844 24.6952 5.43873C24.9983 5.49902 25.3124 5.46808 25.5979 5.34981C25.8835 5.23155 26.1275 5.03128 26.2992 4.77433C26.4709 4.51738 26.5625 4.21528 26.5625 3.90625C26.5625 3.49185 26.3979 3.09442 26.1049 2.8014C25.8118 2.50837 25.4144 2.34375 25 2.34375Z" fill="#CE2127"/>
<path d="M28.125 28.125H21.875C21.6678 28.125 21.4691 28.0427 21.3226 27.8962C21.1761 27.7497 21.0938 27.551 21.0938 27.3438V10.9375C21.0938 10.7303 21.1761 10.5316 21.3226 10.3851C21.4691 10.2386 21.6678 10.1562 21.875 10.1562C22.0822 10.1562 22.2809 10.2386 22.4274 10.3851C22.5739 10.5316 22.6562 10.7303 22.6562 10.9375V26.5625H27.3438V10.9375C27.3438 10.7303 27.4261 10.5316 27.5726 10.3851C27.7191 10.2386 27.9178 10.1562 28.125 10.1562C28.3322 10.1562 28.5309 10.2386 28.6774 10.3851C28.8239 10.5316 28.9062 10.7303 28.9062 10.9375V27.3438C28.9062 27.551 28.8239 27.7497 28.6774 27.8962C28.5309 28.0427 28.3322 28.125 28.125 28.125Z" fill="#CE2127"/>
<path d="M25 28.125C24.7928 28.125 24.5941 28.0427 24.4476 27.8962C24.3011 27.7497 24.2188 27.551 24.2188 27.3438V17.1875C24.2188 16.9803 24.3011 16.7816 24.4476 16.6351C24.5941 16.4886 24.7928 16.4062 25 16.4062C25.2072 16.4062 25.4059 16.4886 25.5524 16.6351C25.6989 16.7816 25.7812 16.9803 25.7812 17.1875V27.3438C25.7812 27.551 25.6989 27.7497 25.5524 27.8962C25.4059 28.0427 25.2072 28.125 25 28.125Z" fill="#CE2127"/>
<path d="M41.4062 49.2187C39.4407 49.2683 37.4832 48.9503 35.6344 48.2812C33.9492 47.5953 33.5938 46.7125 33.5938 46.0937C33.5938 45.475 33.9492 44.5922 35.643 43.9016C35.7384 43.8605 35.8411 43.8388 35.945 43.8379C36.0489 43.837 36.1519 43.8568 36.2481 43.8962C36.3442 43.9356 36.4315 43.9938 36.5049 44.0673C36.5783 44.1409 36.6363 44.2283 36.6755 44.3246C36.7146 44.4208 36.7342 44.5239 36.7331 44.6278C36.7319 44.7317 36.7101 44.8343 36.6688 44.9296C36.6275 45.025 36.5676 45.1111 36.4926 45.183C36.4176 45.2549 36.329 45.3112 36.232 45.3484C35.343 45.7109 35.1562 46.0437 35.1562 46.0937C35.1562 46.1437 35.343 46.4766 36.232 46.8391C37.8914 47.4293 39.6458 47.7063 41.4062 47.6562C43.1636 47.7066 44.9151 47.4306 46.5719 46.8422C47.4695 46.4766 47.6562 46.1437 47.6562 46.0937C47.6562 46.0437 47.4695 45.7109 46.5805 45.3484C46.4835 45.3112 46.3949 45.2549 46.3199 45.183C46.2449 45.1111 46.185 45.025 46.1437 44.9296C46.1024 44.8343 46.0806 44.7317 46.0794 44.6278C46.0783 44.5239 46.0979 44.4208 46.137 44.3246C46.1762 44.2283 46.2342 44.1409 46.3076 44.0673C46.381 43.9938 46.4683 43.9356 46.5644 43.8962C46.6606 43.8568 46.7636 43.837 46.8675 43.8379C46.9714 43.8388 47.0741 43.8605 47.1695 43.9016C48.8633 44.5922 49.2188 45.475 49.2188 46.0937C49.2188 46.7125 48.8633 47.5953 47.1695 48.2859C45.3232 48.9526 43.3686 49.269 41.4062 49.2187Z" fill="#CE2127"/>
<path d="M45.3125 35.9375H44.5312C44.324 35.9375 44.1253 35.8552 43.9788 35.7087C43.8323 35.5622 43.75 35.3635 43.75 35.1562C43.75 34.949 43.8323 34.7503 43.9788 34.6038C44.1253 34.4573 44.324 34.375 44.5312 34.375H45.3125C45.5197 34.375 45.7184 34.2927 45.8649 34.1462C46.0114 33.9997 46.0938 33.801 46.0938 33.5938V28.9062C46.0938 28.699 46.0114 28.5003 45.8649 28.3538C45.7184 28.2073 45.5197 28.125 45.3125 28.125H37.5C37.2928 28.125 37.0941 28.2073 36.9476 28.3538C36.8011 28.5003 36.7188 28.699 36.7188 28.9062V33.5938C36.7188 33.801 36.8011 33.9997 36.9476 34.1462C37.0941 34.2927 37.2928 34.375 37.5 34.375H38.2812C38.4885 34.375 38.6872 34.4573 38.8337 34.6038C38.9802 34.7503 39.0625 34.949 39.0625 35.1562C39.0625 35.3635 38.9802 35.5622 38.8337 35.7087C38.6872 35.8552 38.4885 35.9375 38.2812 35.9375H37.5C36.8784 35.9375 36.2823 35.6906 35.8427 35.251C35.4032 34.8115 35.1562 34.2154 35.1562 33.5938V28.9062C35.1562 28.2846 35.4032 27.6885 35.8427 27.249C36.2823 26.8094 36.8784 26.5625 37.5 26.5625H45.3125C45.9341 26.5625 46.5302 26.8094 46.9698 27.249C47.4093 27.6885 47.6562 28.2846 47.6562 28.9062V33.5938C47.6562 34.2154 47.4093 34.8115 46.9698 35.251C46.5302 35.6906 45.9341 35.9375 45.3125 35.9375Z" fill="#CE2127"/>
<path d="M41.4063 25.7813C40.7882 25.7813 40.184 25.598 39.6701 25.2546C39.1562 24.9112 38.7557 24.4232 38.5191 23.8521C38.2826 23.2811 38.2207 22.6528 38.3413 22.0466C38.4619 21.4404 38.7595 20.8836 39.1965 20.4465C39.6336 20.0095 40.1904 19.7119 40.7966 19.5913C41.4028 19.4707 42.0311 19.5326 42.6021 19.7691C43.1732 20.0057 43.6612 20.4062 44.0046 20.9201C44.348 21.434 44.5313 22.0382 44.5313 22.6563C44.5313 23.4851 44.202 24.2799 43.616 24.866C43.0299 25.452 42.2351 25.7813 41.4063 25.7813ZM41.4063 21.0938C41.0972 21.0938 40.7951 21.1854 40.5382 21.3571C40.2812 21.5288 40.081 21.7728 39.9627 22.0583C39.8444 22.3438 39.8135 22.658 39.8738 22.9611C39.9341 23.2642 40.0829 23.5426 40.3014 23.7611C40.5199 23.9796 40.7983 24.1284 41.1014 24.1887C41.4045 24.249 41.7187 24.2181 42.0042 24.0998C42.2897 23.9816 42.5337 23.7813 42.7054 23.5243C42.8771 23.2674 42.9688 22.9653 42.9688 22.6563C42.9688 22.2419 42.8041 21.8444 42.5111 21.5514C42.2181 21.2584 41.8207 21.0938 41.4063 21.0938Z" fill="#CE2127"/>
<path d="M44.5312 46.875H38.2812C38.074 46.875 37.8753 46.7927 37.7288 46.6462C37.5823 46.4997 37.5 46.301 37.5 46.0938V29.6875C37.5 29.4803 37.5823 29.2816 37.7288 29.1351C37.8753 28.9886 38.074 28.9062 38.2812 28.9062C38.4885 28.9062 38.6872 28.9886 38.8337 29.1351C38.9802 29.2816 39.0625 29.4803 39.0625 29.6875V45.3125H43.75V29.6875C43.75 29.4803 43.8323 29.2816 43.9788 29.1351C44.1253 28.9886 44.324 28.9062 44.5312 28.9062C44.7385 28.9062 44.9372 28.9886 45.0837 29.1351C45.2302 29.2816 45.3125 29.4803 45.3125 29.6875V46.0938C45.3125 46.301 45.2302 46.4997 45.0837 46.6462C44.9372 46.7927 44.7385 46.875 44.5312 46.875Z" fill="#CE2127"/>
<path d="M41.4062 46.875C41.199 46.875 41.0003 46.7927 40.8538 46.6462C40.7073 46.4997 40.625 46.301 40.625 46.0938V35.9375C40.625 35.7303 40.7073 35.5316 40.8538 35.3851C41.0003 35.2386 41.199 35.1562 41.4062 35.1562C41.6135 35.1562 41.8122 35.2386 41.9587 35.3851C42.1052 35.5316 42.1875 35.7303 42.1875 35.9375V46.0938C42.1875 46.301 42.1052 46.4997 41.9587 46.6462C41.8122 46.7927 41.6135 46.875 41.4062 46.875Z" fill="#CE2127"/>
<path d="M8.59375 49.2187C6.62821 49.2683 4.6707 48.9503 2.82188 48.2812C1.13672 47.5953 0.78125 46.7125 0.78125 46.0937C0.78125 45.475 1.13672 44.5922 2.83047 43.9016C2.9259 43.8605 3.02857 43.8388 3.13247 43.8379C3.23637 43.837 3.33941 43.8568 3.43555 43.8962C3.5317 43.9356 3.61902 43.9938 3.69241 44.0673C3.7658 44.1409 3.82378 44.2283 3.86296 44.3246C3.90214 44.4208 3.92173 44.5239 3.92058 44.6278C3.91944 44.7317 3.89758 44.8343 3.85629 44.9296C3.81499 45.025 3.7551 45.1111 3.6801 45.183C3.60511 45.2549 3.51652 45.3112 3.41953 45.3484C2.53047 45.7109 2.34375 46.0437 2.34375 46.0937C2.34375 46.1437 2.53047 46.4766 3.41953 46.8391C5.07885 47.4293 6.8333 47.7063 8.59375 47.6562C10.3511 47.7066 12.1026 47.4306 13.7594 46.8422C14.657 46.4766 14.8438 46.1437 14.8438 46.0937C14.8438 46.0437 14.657 45.7109 13.768 45.3484C13.671 45.3112 13.5824 45.2549 13.5074 45.183C13.4324 45.1111 13.3725 45.025 13.3312 44.9296C13.2899 44.8343 13.2681 44.7317 13.2669 44.6278C13.2658 44.5239 13.2854 44.4208 13.3245 44.3246C13.3637 44.2283 13.4217 44.1409 13.4951 44.0673C13.5685 43.9938 13.6558 43.9356 13.7519 43.8962C13.8481 43.8568 13.9511 43.837 14.055 43.8379C14.1589 43.8388 14.2616 43.8605 14.357 43.9016C16.0508 44.5922 16.4062 45.475 16.4062 46.0937C16.4062 46.7125 16.0508 47.5953 14.357 48.2859C12.5107 48.9526 10.5561 49.269 8.59375 49.2187Z" fill="#CE2127"/>
<path d="M12.5 35.9375H11.7188C11.5115 35.9375 11.3128 35.8552 11.1663 35.7087C11.0198 35.5622 10.9375 35.3635 10.9375 35.1562C10.9375 34.949 11.0198 34.7503 11.1663 34.6038C11.3128 34.4573 11.5115 34.375 11.7188 34.375H12.5C12.7072 34.375 12.9059 34.2927 13.0524 34.1462C13.1989 33.9997 13.2812 33.801 13.2812 33.5938V28.9062C13.2812 28.699 13.1989 28.5003 13.0524 28.3538C12.9059 28.2073 12.7072 28.125 12.5 28.125H4.6875C4.4803 28.125 4.28159 28.2073 4.13507 28.3538C3.98856 28.5003 3.90625 28.699 3.90625 28.9062V33.5938C3.90625 33.801 3.98856 33.9997 4.13507 34.1462C4.28159 34.2927 4.4803 34.375 4.6875 34.375H5.46875C5.67595 34.375 5.87466 34.4573 6.02118 34.6038C6.16769 34.7503 6.25 34.949 6.25 35.1562C6.25 35.3635 6.16769 35.5622 6.02118 35.7087C5.87466 35.8552 5.67595 35.9375 5.46875 35.9375H4.6875C4.0659 35.9375 3.46976 35.6906 3.03022 35.251C2.59068 34.8115 2.34375 34.2154 2.34375 33.5938V28.9062C2.34375 28.2846 2.59068 27.6885 3.03022 27.249C3.46976 26.8094 4.0659 26.5625 4.6875 26.5625H12.5C13.1216 26.5625 13.7177 26.8094 14.1573 27.249C14.5968 27.6885 14.8438 28.2846 14.8438 28.9062V33.5938C14.8438 34.2154 14.5968 34.8115 14.1573 35.251C13.7177 35.6906 13.1216 35.9375 12.5 35.9375Z" fill="#CE2127"/>
<path d="M8.59375 25.7813C7.97568 25.7813 7.3715 25.598 6.85759 25.2546C6.34369 24.9112 5.94315 24.4232 5.70663 23.8521C5.4701 23.2811 5.40822 22.6528 5.5288 22.0466C5.64938 21.4404 5.947 20.8836 6.38404 20.4465C6.82108 20.0095 7.3779 19.7119 7.98409 19.5913C8.59028 19.4707 9.21862 19.5326 9.78964 19.7691C10.3607 20.0057 10.8487 20.4062 11.1921 20.9201C11.5355 21.434 11.7188 22.0382 11.7188 22.6563C11.7188 23.4851 11.3895 24.2799 10.8035 24.866C10.2174 25.452 9.42255 25.7813 8.59375 25.7813ZM8.59375 21.0938C8.28472 21.0938 7.98262 21.1854 7.72567 21.3571C7.46872 21.5288 7.26845 21.7728 7.15019 22.0583C7.03193 22.3438 7.00098 22.658 7.06127 22.9611C7.12156 23.2642 7.27038 23.5426 7.4889 23.7611C7.70742 23.9796 7.98583 24.1284 8.28892 24.1887C8.59202 24.249 8.90618 24.2181 9.19169 24.0998C9.4772 23.9816 9.72123 23.7813 9.89292 23.5243C10.0646 23.2674 10.1563 22.9653 10.1563 22.6563C10.1563 22.2419 9.99163 21.8444 9.69861 21.5514C9.40558 21.2584 9.00815 21.0938 8.59375 21.0938Z" fill="#CE2127"/>
<path d="M11.7188 46.875H5.46875C5.26155 46.875 5.06284 46.7927 4.91632 46.6462C4.76981 46.4997 4.6875 46.301 4.6875 46.0938V29.6875C4.6875 29.4803 4.76981 29.2816 4.91632 29.1351C5.06284 28.9886 5.26155 28.9062 5.46875 28.9062C5.67595 28.9062 5.87466 28.9886 6.02118 29.1351C6.16769 29.2816 6.25 29.4803 6.25 29.6875V45.3125H10.9375V29.6875C10.9375 29.4803 11.0198 29.2816 11.1663 29.1351C11.3128 28.9886 11.5115 28.9062 11.7188 28.9062C11.926 28.9062 12.1247 28.9886 12.2712 29.1351C12.4177 29.2816 12.5 29.4803 12.5 29.6875V46.0938C12.5 46.301 12.4177 46.4997 12.2712 46.6462C12.1247 46.7927 11.926 46.875 11.7188 46.875Z" fill="#CE2127"/>
<path d="M8.59375 46.875C8.38655 46.875 8.18784 46.7927 8.04132 46.6462C7.89481 46.4997 7.8125 46.301 7.8125 46.0938V35.9375C7.8125 35.7303 7.89481 35.5316 8.04132 35.3851C8.18784 35.2386 8.38655 35.1562 8.59375 35.1562C8.80095 35.1562 8.99966 35.2386 9.14618 35.3851C9.29269 35.5316 9.375 35.7303 9.375 35.9375V46.0938C9.375 46.301 9.29269 46.4997 9.14618 46.6462C8.99966 46.7927 8.80095 46.875 8.59375 46.875Z" fill="#CE2127"/>
</svg>
