<svg width="40" height="40" viewBox="0 0 40 40" fill="none" xmlns="http://www.w3.org/2000/svg">
<path fill-rule="evenodd" clip-rule="evenodd" d="M17.2926 35.5662C17.2341 35.7259 17.1168 35.8573 16.9646 35.9333L14.2959 37.2587C14.2044 37.3061 14.103 37.3317 13.9999 37.3333H13.3332C12.9197 37.3339 12.5165 37.4623 12.1788 37.7009C11.8412 37.9397 11.5856 38.277 11.4472 38.6667H17.3332V37.3333C17.3332 37.1565 17.4035 36.9869 17.5285 36.8619C17.6535 36.7369 17.8231 36.6667 17.9999 36.6667C18.1767 36.6667 18.3463 36.7369 18.4713 36.8619C18.5963 36.9869 18.6666 37.1565 18.6666 37.3333V39.3333C18.6666 39.5101 18.5963 39.6797 18.4713 39.8047C18.3463 39.9297 18.1767 40 17.9999 40H10.6666C10.4898 40 10.3202 39.9297 10.1952 39.8047C10.0702 39.6797 9.99991 39.5101 9.99991 39.3333C10.0009 38.5507 10.2768 37.7933 10.7795 37.1935C11.2821 36.5935 11.9796 36.1893 12.7499 36.0513L10.3026 32.5547C9.78084 31.8152 9.52658 30.9201 9.58171 30.0167C9.63684 29.1134 9.99811 28.2559 10.6059 27.5853L14.6332 23.1113L14.0332 17.6953L11.5972 15.868L11.5806 15.8553L7.40591 13.246C6.60297 12.743 5.92984 12.0578 5.44124 11.246L2.93324 7.06664C2.63266 6.57663 2.53906 5.98723 2.67302 5.42817C2.80698 4.86915 3.15754 4.38621 3.64757 4.08563C4.1376 3.78505 4.72697 3.69145 5.28602 3.82541C5.56284 3.89175 5.82384 4.01195 6.05424 4.17917C6.28457 4.34638 6.47977 4.55733 6.62857 4.79997L9.12657 8.7973L10.1232 9.1973C10.2069 9.2281 10.2836 9.2753 10.3486 9.33624C10.4137 9.3971 10.4659 9.47044 10.5022 9.5519C10.5384 9.6333 10.558 9.72124 10.5596 9.8103C10.5614 9.89944 10.5452 9.98804 10.512 10.0708C10.4789 10.1535 10.4295 10.2288 10.3668 10.2921C10.304 10.3554 10.2293 10.4056 10.1468 10.4395C10.0644 10.4734 9.97604 10.4904 9.88691 10.4896C9.79778 10.4888 9.70971 10.4701 9.62791 10.4346L8.42791 9.95531C8.29597 9.90297 8.18444 9.80944 8.10991 9.68864L5.49857 5.5113C5.37991 5.33118 5.1959 5.20419 4.98539 5.15712C4.77489 5.11005 4.55433 5.14657 4.37023 5.25898C4.18614 5.37137 4.05289 5.5509 3.9986 5.7597C3.94432 5.96843 3.97322 6.1901 4.07924 6.37797L6.58724 10.5606C6.96691 11.1928 7.49071 11.7262 8.11591 12.1173L11.3419 14.1333V10.7726C11.3216 10.6481 11.337 10.5204 11.3864 10.4042C11.4358 10.2882 11.5172 10.1884 11.621 10.1168C11.7248 10.045 11.8469 10.0043 11.973 9.99917C12.099 9.9941 12.224 10.0249 12.3332 10.088L16.1599 12H17.0266C16.366 11.2688 16.0002 10.3186 15.9999 9.3333V7.4753C15.1504 6.84657 14.5502 5.9381 14.305 4.91003C14.0598 3.88199 14.1856 2.8004 14.6599 1.85596L15.4032 0.368629C15.4429 0.289275 15.498 0.218635 15.5653 0.160848C15.6326 0.103062 15.7108 0.0592884 15.7952 0.032095C15.8796 0.00490168 15.9686 -0.005165 16.057 0.00248167C16.1454 0.0101283 16.2314 0.0353351 16.3099 0.0766285C17.8838 0.900409 19.6335 1.33154 21.4099 1.3333H22.3333C23.1557 1.33057 23.9549 1.6053 24.6019 2.11306C25.2487 2.62082 25.7055 3.33193 25.8983 4.13142C26.091 4.93091 26.0085 5.77203 25.664 6.51877C25.3195 7.26557 24.7332 7.8743 23.9999 8.24664V9.3333C23.9995 9.89484 23.8805 10.45 23.6507 10.9624C23.421 11.4747 23.0856 11.9328 22.6666 12.3066V13.3333C22.6666 14.0406 22.3857 14.7188 21.8855 15.2189C21.3855 15.719 20.7072 16 19.9999 16C19.2927 16 18.6144 15.719 18.1143 15.2189C17.6142 14.7188 17.3332 14.0406 17.3332 13.3333H15.9999C15.896 13.3336 15.7935 13.3096 15.7006 13.2633L12.6739 11.75V15.0066L15.0652 16.8C15.1381 16.8546 15.199 16.9236 15.2442 17.0028C15.2894 17.0819 15.3179 17.1694 15.3279 17.26L15.9946 23.26C16.0049 23.3534 15.9953 23.448 15.9664 23.5376C15.9376 23.6271 15.8902 23.7094 15.8272 23.7793L11.5999 28.476C11.1949 28.9232 10.9544 29.495 10.9181 30.0972C10.8817 30.6994 11.0516 31.296 11.3999 31.7887L14.2159 35.8133L15.8039 35.018L14.0519 30.9293C13.992 30.7895 13.9816 30.6334 14.0226 30.4869C14.0636 30.3405 14.1534 30.2124 14.2772 30.124L18.9439 26.7907C19.0261 26.7319 19.1206 26.6926 19.2202 26.6757C19.3198 26.6588 19.4219 26.6648 19.5189 26.6932C19.6159 26.7215 19.7051 26.7716 19.7799 26.8395C19.8547 26.9075 19.9131 26.9915 19.9506 27.0853L21.7793 31.6567C21.9754 32.1527 22.3165 32.5779 22.7581 32.8771C23.1997 33.1762 23.7213 33.3352 24.2546 33.3333H30.2546L29.5599 31.944L25.2386 31.3267C25.0635 31.3015 24.9057 31.2079 24.7997 31.0664C24.6936 30.9249 24.6481 30.7471 24.6733 30.572C24.6984 30.3969 24.792 30.2391 24.9335 30.1331C25.0751 30.027 25.2529 29.9815 25.4279 30.0067L29.8426 30.6373L31.6299 29.4453C31.7396 29.3725 31.8683 29.3335 31.9999 29.3333H33.9999C34.1767 29.3333 34.3463 29.4036 34.4713 29.5286C34.5963 29.6536 34.6666 29.8232 34.6666 30V37.3333C34.6666 37.5101 34.5963 37.6797 34.4713 37.8047C34.3463 37.9297 34.1767 38 33.9999 38C33.1162 37.9989 32.269 37.6474 31.6441 37.0225C31.0192 36.3976 30.6677 35.5504 30.6666 34.6667H24.2566C23.4569 34.6697 22.6748 34.4317 22.0123 33.9837C21.3499 33.5357 20.8377 32.8986 20.5426 32.1553L19.0299 28.3727L15.4906 30.9007L17.2792 35.074C17.3464 35.2303 17.3512 35.4064 17.2926 35.5662ZM20.9427 14.2761C21.1928 14.026 21.3333 13.6869 21.3333 13.3333V13.1C20.4716 13.4111 19.5283 13.4111 18.6666 13.1V13.3333C18.6666 13.6869 18.8071 14.026 19.0571 14.2761C19.3072 14.5262 19.6463 14.6666 19.9999 14.6666C20.3535 14.6666 20.6927 14.5262 20.9427 14.2761ZM21.8855 11.2189C22.3857 10.7188 22.6666 10.0406 22.6666 9.3333V6.6573C21.2586 6.5929 19.8883 6.18183 18.6772 5.46063L17.3332 6.35663V9.3333C17.3332 10.0406 17.6142 10.7188 18.1143 11.2189C18.6144 11.719 19.2927 12 19.9999 12C20.7072 12 21.3855 11.719 21.8855 11.2189ZM15.8526 2.45263C15.538 3.08454 15.4417 3.80284 15.5786 4.4953C15.6634 4.91929 15.8347 5.32122 16.0819 5.67597C16.1328 5.58323 16.2053 5.50417 16.2932 5.4453L18.2932 4.11197C18.4028 4.03887 18.5316 3.99987 18.6632 3.99987C18.795 3.99987 18.9237 4.03887 19.0332 4.11197C20.227 4.90975 21.6309 5.33483 23.0666 5.3333H23.3333C23.5101 5.3333 23.6797 5.40357 23.8047 5.52857C23.9297 5.65357 23.9999 5.82317 23.9999 5.99997V6.61863C24.4257 6.1873 24.6651 5.60603 24.6666 4.99997C24.6666 4.38113 24.4207 3.78764 23.9832 3.35005C23.5456 2.91246 22.9521 2.66663 22.3333 2.66663H21.4099C19.6471 2.66461 17.9051 2.28594 16.3006 1.55596L15.8526 2.45263ZM32.1999 30.6667L30.8593 31.562L31.9233 33.7047C31.9718 33.7957 31.9981 33.8969 31.9999 34V34.6667C32.0005 35.0802 32.1289 35.4834 32.3675 35.8211C32.6063 36.1587 32.9436 36.4143 33.3333 36.5527V30.6667H32.1999ZM24.4194 12.05L30.5454 9.59999L29.6867 6.16198C29.566 5.64058 29.6548 5.09265 29.9341 4.63613C30.2134 4.1796 30.6608 3.85102 31.18 3.72114C31.6992 3.59126 32.2486 3.67046 32.71 3.9417C33.1713 4.21293 33.5077 4.6545 33.6467 5.17132L34.9274 10.282C35.0778 10.8706 35.0214 11.493 34.7676 12.045C34.5138 12.5969 34.078 13.045 33.5334 13.314L25.96 17.096L25.3367 23.3333L25.7987 28.4247C25.8067 28.5119 25.7974 28.5998 25.7714 28.6834C25.7454 28.767 25.7032 28.8447 25.6472 28.912C25.5911 28.9793 25.5224 29.0349 25.4449 29.0756C25.3674 29.1163 25.2826 29.1414 25.1954 29.1493H25.134C24.9677 29.1492 24.8075 29.0869 24.6848 28.9746C24.562 28.8624 24.4857 28.7083 24.4707 28.5427L24.058 24H18C17.8232 24 17.6536 23.9297 17.5286 23.8047C17.4036 23.6797 17.3333 23.5101 17.3333 23.3333C17.3333 23.1565 17.4036 22.9869 17.5286 22.8619C17.6536 22.7369 17.8232 22.6667 18 22.6667H24.0667L24.67 16.6C24.6812 16.488 24.7206 16.3807 24.7845 16.288C24.8484 16.1953 24.9347 16.1203 25.0354 16.07L28.486 14.3447L27.6287 12.2L24.914 13.2887C24.8327 13.3211 24.7458 13.3373 24.6582 13.3362C24.5706 13.3351 24.4842 13.3167 24.4036 13.2821C24.3232 13.2476 24.2503 13.1975 24.1892 13.1349C24.128 13.0721 24.0798 12.998 24.0474 12.9167C24.0149 12.8353 23.9988 12.7484 23.9998 12.6608C24.001 12.5733 24.0193 12.4868 24.0539 12.4063C24.0884 12.3258 24.1385 12.2529 24.2012 12.1918C24.2639 12.1307 24.338 12.0825 24.4194 12.05ZM32.031 5.06005C31.8702 4.96342 31.6775 4.93462 31.4954 4.97998C31.3135 5.0258 31.1572 5.14182 31.0608 5.30264C30.9643 5.46345 30.9355 5.65598 30.9807 5.83798L31.9807 9.83799C32.0199 9.99459 32.001 10.1601 31.9274 10.3038C31.8539 10.4475 31.7307 10.5596 31.5807 10.6193L28.8667 11.7047L29.6834 13.746L32.9334 12.1213C33.2057 11.9869 33.4236 11.7631 33.5505 11.4872C33.6774 11.2113 33.7058 10.9003 33.6307 10.606L32.3534 5.49532C32.3078 5.31324 32.1919 5.15668 32.031 5.06005ZM8.66667 17.3333H3.33334C3.15652 17.3333 2.98696 17.4036 2.86193 17.5286C2.73691 17.6536 2.66667 17.8232 2.66667 18V21.456C2.45316 21.3771 2.22763 21.3356 2 21.3334C1.60444 21.3334 1.21776 21.4506 0.88886 21.6704C0.55996 21.8902 0.303619 22.2026 0.152239 22.568C0.000865698 22.9334 -0.0387409 23.3356 0.0384325 23.7236C0.115599 24.1115 0.306079 24.4679 0.585786 24.7476C0.865493 25.0273 1.22186 25.2178 1.60982 25.295C1.99778 25.3721 2.39991 25.3325 2.76537 25.1811C3.13082 25.0298 3.44318 24.7734 3.66294 24.4445C3.8827 24.1156 4 23.7289 4 23.3334V21.3334H8.00001V23.456C7.78647 23.3771 7.56094 23.3356 7.33334 23.3334C6.93781 23.3334 6.55107 23.4506 6.2222 23.6704C5.89327 23.8902 5.63694 24.2026 5.4856 24.568C5.3342 24.9334 5.2946 25.3356 5.37174 25.7236C5.44894 26.1115 5.6394 26.4679 5.91914 26.7476C6.19881 27.0273 6.55521 27.2178 6.94314 27.295C7.33114 27.3721 7.73327 27.3325 8.09874 27.1811C8.46414 27.0298 8.77654 26.7734 8.99627 26.4445C9.21607 26.1156 9.33334 25.7289 9.33334 25.3334V18C9.33334 17.8232 9.26307 17.6536 9.13807 17.5286C9.01307 17.4036 8.84347 17.3333 8.66667 17.3333ZM2 24C1.86815 24 1.73925 23.961 1.62962 23.8877C1.51999 23.8144 1.43454 23.7103 1.38408 23.5885C1.33362 23.4667 1.32042 23.3326 1.34615 23.2033C1.37187 23.074 1.43536 22.9552 1.52859 22.862C1.62183 22.7687 1.74062 22.7052 1.86994 22.6795C1.99926 22.6538 2.13331 22.667 2.25512 22.7174C2.37694 22.7679 2.48106 22.8534 2.55431 22.963C2.62757 23.0726 2.66667 23.2015 2.66667 23.3334C2.66667 23.5102 2.59643 23.6798 2.47141 23.8048C2.34638 23.9298 2.17681 24 2 24ZM4 18.6667H8.00001V20H4V18.6667ZM7.33334 26C7.20147 26 7.07261 25.961 6.96294 25.8877C6.85334 25.8144 6.76787 25.7103 6.71741 25.5885C6.66694 25.4667 6.65374 25.3326 6.67947 25.2033C6.70521 25.074 6.76867 24.9552 6.86194 24.862C6.95514 24.7687 7.07394 24.7052 7.20327 24.6795C7.33261 24.6538 7.46667 24.667 7.58847 24.7174C7.71027 24.7679 7.81441 24.8534 7.88767 24.963C7.96094 25.0726 8.00001 25.2015 8.00001 25.3334C8.00001 25.5102 7.92974 25.6798 7.80474 25.8048C7.67974 25.9298 7.51014 26 7.33334 26ZM35.1761 18.316L38.6428 16.316C38.7187 16.2721 38.8024 16.2436 38.8893 16.2321C38.9761 16.2206 39.0644 16.2264 39.1491 16.249C39.2337 16.2717 39.313 16.3108 39.3825 16.3642C39.4521 16.4176 39.5103 16.484 39.5541 16.56C39.995 17.3259 40.1141 18.2354 39.8853 19.0891C39.6564 19.9426 39.0983 20.6707 38.3335 21.1133L36.6001 22.1133L38.2668 25C38.4788 25.3661 38.5689 25.7902 38.5239 26.2109C38.4789 26.6315 38.3013 27.027 38.0167 27.34C37.7321 27.653 37.3552 27.8673 36.9407 27.952C36.5262 28.0367 36.0955 27.9873 35.7109 27.8109C35.3264 27.6345 35.0079 27.3404 34.8016 26.971C34.5953 26.6017 34.5119 26.1763 34.5633 25.7563C34.6149 25.3364 34.7987 24.9437 35.0881 24.6352C35.3775 24.3267 35.7577 24.1182 36.1735 24.04L35.1095 22.204L34.4428 21.0493C34.3113 20.8217 34.226 20.5705 34.1917 20.3099C34.1574 20.0493 34.1748 19.7845 34.2429 19.5306C34.3111 19.2768 34.4285 19.0389 34.5886 18.8305C34.7487 18.622 34.9484 18.4472 35.1761 18.316ZM36.9243 26.5418C37.0497 26.452 37.1401 26.3216 37.1801 26.1727C37.2029 26.088 37.2087 25.9997 37.1973 25.9127C37.1858 25.8257 37.1573 25.7419 37.1135 25.666C37.0363 25.5325 36.9152 25.4299 36.7709 25.3756C36.6265 25.3214 36.4679 25.3188 36.3219 25.3684C36.1759 25.418 36.0515 25.5167 35.9701 25.6477C35.8887 25.7786 35.8552 25.9337 35.8753 26.0867C35.8955 26.2395 35.9679 26.3807 36.0805 26.4861C36.193 26.5916 36.3386 26.6547 36.4925 26.6649C36.6463 26.675 36.7989 26.6315 36.9243 26.5418ZM35.9328 20.9587L37.6661 19.9587H37.6668C38.0247 19.7516 38.3095 19.4388 38.4823 19.0632C38.6551 18.6876 38.7071 18.2677 38.6315 17.8613L35.8441 19.4706C35.7683 19.5144 35.7017 19.5726 35.6484 19.642C35.595 19.7115 35.5559 19.7907 35.5331 19.8753C35.5104 19.9599 35.5046 20.048 35.516 20.1349C35.5273 20.2217 35.5557 20.3055 35.5995 20.3813L35.9328 20.9587ZM9.65001 4.63803H10.3167V5.30469C10.3167 5.48149 10.3869 5.65109 10.5119 5.77609C10.6369 5.90109 10.8065 5.97136 10.9833 5.97136C11.1601 5.97136 11.3297 5.90109 11.4547 5.77609C11.5797 5.65109 11.65 5.48149 11.65 5.30469V4.63803H12.3167C12.4935 4.63803 12.6631 4.56779 12.7881 4.44277C12.9131 4.31774 12.9833 4.14817 12.9833 3.97136C12.9833 3.79454 12.9131 3.62498 12.7881 3.49995C12.6631 3.37493 12.4935 3.30469 12.3167 3.30469H11.65V2.63802C11.65 2.46121 11.5797 2.29164 11.4547 2.16662C11.3297 2.0416 11.1601 1.97136 10.9833 1.97136C10.8065 1.97136 10.6369 2.0416 10.5119 2.16662C10.3869 2.29164 10.3167 2.46121 10.3167 2.63802V3.30469H9.65001C9.47321 3.30469 9.30361 3.37493 9.17861 3.49995C9.05361 3.62498 8.98334 3.79454 8.98334 3.97136C8.98334 4.14817 9.05361 4.31774 9.17861 4.44277C9.30361 4.56779 9.47321 4.63803 9.65001 4.63803ZM3.33334 31.3334H4C4.17682 31.3334 4.34638 31.4036 4.47141 31.5286C4.59643 31.6536 4.66667 31.8232 4.66667 32C4.66667 32.1768 4.59643 32.3464 4.47141 32.4714C4.34638 32.5964 4.17682 32.6667 4 32.6667H3.33334V33.3334C3.33334 33.5102 3.2631 33.6798 3.13808 33.8048C3.01305 33.9298 2.84348 34 2.66667 34C2.48986 34 2.32029 33.9298 2.19526 33.8048C2.07024 33.6798 2 33.5102 2 33.3334V32.6667H1.33333C1.15652 32.6667 0.986954 32.5964 0.861928 32.4714C0.736907 32.3464 0.666667 32.1768 0.666667 32C0.666667 31.8232 0.736907 31.6536 0.861928 31.5286C0.986954 31.4036 1.15652 31.3334 1.33333 31.3334H2V30.6667C2 30.4899 2.07024 30.3203 2.19526 30.1953C2.32029 30.0703 2.48986 30 2.66667 30C2.84348 30 3.01305 30.0703 3.13808 30.1953C3.2631 30.3203 3.33334 30.4899 3.33334 30.6667V31.3334ZM29.3334 26.6667C29.5102 26.6667 29.6798 26.5964 29.8048 26.4714C29.9298 26.3464 30 26.1768 30 26V25.3334H30.6667C30.8435 25.3334 31.0131 25.2631 31.1381 25.1381C31.2631 25.0131 31.3334 24.8435 31.3334 24.6667C31.3334 24.4899 31.2631 24.3203 31.1381 24.1953C31.0131 24.0703 30.8435 24 30.6667 24H30V23.3334C30 23.1566 29.9298 22.987 29.8048 22.862C29.6798 22.737 29.5102 22.6667 29.3334 22.6667C29.1566 22.6667 28.987 22.737 28.862 22.862C28.737 22.987 28.6667 23.1566 28.6667 23.3334V24H28C27.8232 24 27.6536 24.0703 27.5286 24.1953C27.4036 24.3203 27.3334 24.4899 27.3334 24.6667C27.3334 24.8435 27.4036 25.0131 27.5286 25.1381C27.6536 25.2631 27.8232 25.3334 28 25.3334H28.6667V26C28.6667 26.1768 28.737 26.3464 28.862 26.4714C28.987 26.5964 29.1566 26.6667 29.3334 26.6667ZM39.1112 8.32961C38.7823 8.54941 38.3956 8.66667 38 8.66667C37.4696 8.66667 36.9609 8.45594 36.5858 8.08087C36.2108 7.70581 36 7.19714 36 6.66667C36 6.27114 36.1173 5.8844 36.3371 5.55554C36.5568 5.22663 36.8692 4.97029 37.2347 4.81891C37.6001 4.66754 38.0022 4.62793 38.3902 4.7051C38.7782 4.78227 39.1346 4.97275 39.4142 5.25246C39.694 5.53214 39.8844 5.88854 39.9616 6.27647C40.0388 6.66447 39.9992 7.06661 39.8478 7.43207C39.6964 7.79747 39.4401 8.10987 39.1112 8.32961ZM38.3704 6.11234C38.2608 6.03914 38.1319 6 38 6C37.8232 6 37.6536 6.07027 37.5286 6.19527C37.4036 6.32027 37.3334 6.48987 37.3334 6.66667C37.3334 6.79854 37.3724 6.92741 37.4457 7.03707C37.519 7.14667 37.6231 7.23214 37.7449 7.28261C37.8667 7.33307 38.0008 7.34627 38.1301 7.32054C38.2594 7.29481 38.3782 7.23134 38.4714 7.13807C38.5647 7.04487 38.6282 6.92607 38.6539 6.79674C38.6796 6.66741 38.6664 6.53334 38.616 6.41154C38.5655 6.28974 38.48 6.18561 38.3704 6.11234ZM1.33333 1.33333C1.70152 1.33333 2 1.03485 2 0.666667C2 0.29848 1.70152 1.11115e-10 1.33333 1.11115e-10C0.965148 1.11115e-10 0.666667 0.29848 0.666667 0.666667C0.666667 1.03485 0.965148 1.33333 1.33333 1.33333ZM2.9825 11.304C2.9825 11.6722 2.68403 11.9706 2.31584 11.9706C1.94765 11.9706 1.64917 11.6722 1.64917 11.304C1.64917 10.9358 1.94765 10.6373 2.31584 10.6373C2.68403 10.6373 2.9825 10.9358 2.9825 11.304ZM31.3334 19.56C31.7016 19.56 32 19.2616 32 18.8934C32 18.5252 31.7016 18.2267 31.3334 18.2267C30.9652 18.2267 30.6667 18.5252 30.6667 18.8934C30.6667 19.2616 30.9652 19.56 31.3334 19.56ZM32 1.33333C32 1.70152 31.7016 2 31.3334 2C30.9652 2 30.6667 1.70152 30.6667 1.33333C30.6667 0.965148 30.9652 0.666667 31.3334 0.666667C31.7016 0.666667 32 0.965148 32 1.33333Z" fill="black"/>
</svg>
