<svg width="22" height="22" viewBox="0 0 22 22" fill="none" xmlns="http://www.w3.org/2000/svg">
<path d="M20.9118 15.9201V18.9201C20.9129 19.1986 20.8559 19.4743 20.7443 19.7294C20.6327 19.9846 20.4691 20.2137 20.2639 20.402C20.0587 20.5902 19.8164 20.7336 19.5525 20.8228C19.2887 20.912 19.0092 20.9452 18.7318 20.9201C15.6546 20.5857 12.6988 19.5342 10.1018 17.8501C7.68563 16.3148 5.63713 14.2663 4.1018 11.8501C2.41178 9.2413 1.36004 6.27109 1.0318 3.1801C1.00681 2.90356 1.03967 2.62486 1.1283 2.36172C1.21692 2.09859 1.35937 1.85679 1.54656 1.65172C1.73376 1.44665 1.9616 1.28281 2.21559 1.17062C2.46958 1.05843 2.74414 1.00036 3.0218 1.0001H6.0218C6.5071 0.995321 6.97759 1.16718 7.34556 1.48363C7.71353 1.80008 7.95388 2.23954 8.0218 2.7201C8.14842 3.68016 8.38325 4.62282 8.7218 5.5301C8.85634 5.88802 8.88546 6.27701 8.80571 6.65098C8.72595 7.02494 8.54066 7.36821 8.2718 7.6401L7.0018 8.9101C8.42535 11.4136 10.4983 13.4865 13.0018 14.9101L14.2718 13.6401C14.5437 13.3712 14.887 13.1859 15.2609 13.1062C15.6349 13.0264 16.0239 13.0556 16.3818 13.1901C17.2891 13.5286 18.2317 13.7635 19.1918 13.8901C19.6776 13.9586 20.1212 14.2033 20.4383 14.5776C20.7555 14.9519 20.924 15.4297 20.9118 15.9201Z" stroke="black" stroke-linecap="round" stroke-linejoin="round"/>
</svg>
