<svg width="40" height="40" viewBox="0 0 40 40" fill="none" xmlns="http://www.w3.org/2000/svg">
<rect x="0.0556641" width="39.8887" height="39.9282" rx="19.9444" fill="#CE2127"/>
<path d="M29.9438 24.9201V27.9201C29.9449 28.1986 29.8879 28.4743 29.7763 28.7294C29.6647 28.9846 29.5011 29.2137 29.2959 29.402C29.0906 29.5902 28.8484 29.7336 28.5845 29.8228C28.3207 29.912 28.0412 29.9452 27.7638 29.9201C24.6866 29.5857 21.7308 28.5342 19.1338 26.8501C16.7176 25.3148 14.6691 23.2663 13.1338 20.8501C11.4438 18.2413 10.392 15.2711 10.0638 12.1801C10.0388 11.9036 10.0717 11.6249 10.1603 11.3617C10.2489 11.0986 10.3914 10.8568 10.5785 10.6517C10.7657 10.4466 10.9936 10.2828 11.2476 10.1706C11.5016 10.0584 11.7761 10.0004 12.0538 10.0001H15.0538C15.5391 9.99532 16.0096 10.1672 16.3775 10.4836C16.7455 10.8001 16.9859 11.2395 17.0538 11.7201C17.1804 12.6802 17.4152 13.6228 17.7538 14.5301C17.8883 14.888 17.9174 15.277 17.8377 15.651C17.7579 16.0249 17.5726 16.3682 17.3038 16.6401L16.0338 17.9101C17.4573 20.4136 19.5302 22.4865 22.0338 23.9101L23.3038 22.6401C23.5757 22.3712 23.9189 22.1859 24.2929 22.1062C24.6669 22.0264 25.0559 22.0556 25.4138 22.1901C26.3211 22.5286 27.2637 22.7635 28.2238 22.8901C28.7095 22.9586 29.1532 23.2033 29.4703 23.5776C29.7874 23.9519 29.9559 24.4297 29.9438 24.9201Z" stroke="white" stroke-linecap="round" stroke-linejoin="round"/>
</svg>
