<svg width="40" height="40" viewBox="0 0 40 40" fill="none" xmlns="http://www.w3.org/2000/svg">
<path fill-rule="evenodd" clip-rule="evenodd" d="M12.0098 0C14.6067 0 16.6708 2.06418 16.6708 4.66106H15.3391C15.3391 2.79664 13.8742 1.33173 12.0098 1.33173V0ZM0.290363 15.1817C0.0240165 15.0486 -0.0425702 14.7156 0.0240164 14.4493C0.15719 14.1829 0.423536 13.9832 0.689883 13.9832H14.9394L19.4007 2.39712C19.4673 2.19736 19.7337 1.9976 20 1.9976C20.2663 1.9976 20.5327 2.19736 20.5993 2.39712L25.0606 14.0498H39.3101C39.643 14.0498 39.9094 14.2495 39.976 14.5159C40.0426 14.7822 39.976 15.1152 39.7096 15.2483L28.5231 22.9724L33.9166 37.0887C34.0498 37.3551 33.9166 37.6214 33.7168 37.8212L33.7168 37.8212L33.7168 37.8212C33.5836 37.8878 33.4505 37.9544 33.3173 37.9544C33.1842 37.9544 33.051 37.8878 32.9178 37.8212L32.9178 37.8212L20 28.832L7.0822 37.7546C6.81585 37.9544 6.48292 37.9544 6.28316 37.7546C6.0834 37.6214 5.95022 37.2885 6.0834 37.0221L11.4769 22.9058L0.290363 15.1817ZM4.61849 16.5801L12.6755 22.1733C12.9418 22.3065 13.0084 22.6394 12.8752 22.9058L8.81345 33.4931L18.868 20.9748L4.61849 16.5801ZM19.6005 27.5003C19.7337 27.4337 19.8668 27.3671 20 27.3671C20.1332 27.3671 20.2663 27.4337 20.3329 27.5003L29.9214 34.1589L20 21.7072L10.012 34.1589L19.6005 27.5003ZM31.12 33.5596L27.0582 22.9724C26.9916 22.6394 27.0582 22.3065 27.3245 22.1733L35.3815 16.5801L21.132 20.9748L31.12 33.5596ZM34.9154 15.3149H24.5945C24.3281 15.3149 24.0618 15.1152 23.9952 14.9154L20.6659 6.25914V19.7096L34.9154 15.3149ZM16.0048 14.9154C15.9382 15.1152 15.6719 15.3149 15.4055 15.3149H5.0846L19.3341 19.7762V6.25914L16.0048 14.9154ZM33.9835 12.6515H32.6518C32.6518 10.0546 34.7159 7.99039 37.3128 7.99039V9.32212C35.4484 9.32212 33.9835 10.787 33.9835 12.6515ZM39.9763 7.99039H38.6446V9.32212H39.9763V7.99039ZM10.6779 0H9.34618V1.33173H10.6779V0ZM30.6542 2.66346C30.6542 3.79544 31.5198 4.66106 32.6518 4.66106C33.0513 4.66106 33.3176 4.92741 33.3176 5.32693C33.3176 5.72645 33.0513 5.99279 32.6518 5.99279C31.5198 5.99279 30.6542 6.85842 30.6542 7.99039C30.6542 8.38991 30.3878 8.65626 29.9883 8.65626C29.5888 8.65626 29.3224 8.38991 29.3224 7.99039C29.3224 6.85842 28.4568 5.99279 27.3248 5.99279C26.9253 5.99279 26.659 5.72645 26.659 5.32693C26.659 4.92741 26.9253 4.66106 27.3248 4.66106C28.4568 4.66106 29.3224 3.79544 29.3224 2.66346C29.3224 2.26394 29.5888 1.9976 29.9883 1.9976C30.3878 1.9976 30.6542 2.26394 30.6542 2.66346ZM29.3224 5.32693C29.5888 5.52669 29.7885 5.72645 29.9883 5.99279C30.188 5.72645 30.3878 5.52669 30.6542 5.32693C30.3878 5.12717 30.188 4.92741 29.9883 4.66106C29.7885 4.92741 29.5888 5.12717 29.3224 5.32693ZM6.01696 2.66346C4.88499 2.66346 4.01936 1.79784 4.01936 0.665866C4.01936 0.266346 3.75302 0 3.3535 0C2.95398 0 2.68763 0.266346 2.68763 0.665866C2.68763 1.79784 1.822 2.66346 0.690033 2.66346C0.290513 2.66346 0.0241667 2.92981 0.0241667 3.32933C0.0241667 3.72885 0.290513 3.9952 0.690033 3.9952C1.822 3.9952 2.68763 4.86082 2.68763 5.99279C2.68763 6.39231 2.95398 6.65866 3.3535 6.65866C3.75302 6.65866 4.01936 6.39231 4.01936 5.99279C4.01936 4.86082 4.88499 3.9952 6.01696 3.9952C6.41648 3.9952 6.68283 3.72885 6.68283 3.32933C6.68283 2.92981 6.41648 2.66346 6.01696 2.66346ZM3.3535 3.9952C3.15374 3.72885 2.95398 3.52909 2.68763 3.32933C2.95398 3.12957 3.15374 2.92981 3.3535 2.66346C3.55326 2.92981 3.75302 3.12957 4.01936 3.32933C3.75302 3.52909 3.55326 3.72885 3.3535 3.9952ZM38.6446 0H39.9763V1.33173H38.6446V0ZM8.68032 5.3269H7.34859V6.65863H8.68032V5.3269ZM0.0241897 9.98799H1.35592V11.3197H0.0241897V9.98799ZM6.68272 11.3197H5.35099V12.6514H6.68272V11.3197ZM35.981 0H37.3127V1.33173H35.981V0ZM37.3128 25.3029C34.7159 25.3029 32.6518 27.3671 32.6518 29.9639H33.9835C33.9835 28.0995 35.4484 26.6346 37.3128 26.6346V25.3029ZM38.6446 25.3029H39.9763V26.6346H38.6446V25.3029ZM7.34885 22.6395H6.01711C6.01711 24.5039 4.55221 25.9688 2.68778 25.9688V27.3005C5.28466 27.3005 7.34885 25.2364 7.34885 22.6395ZM0.0241897 25.9688H1.35592V27.3005H0.0241897V25.9688ZM1.35592 38.6203H0.0241897V39.952H1.35592V38.6203ZM16.671 33.9592H18.0027V35.2909H16.671V33.9592ZM25.3271 38.6203H23.9954V39.952H25.3271V38.6203ZM38.6446 38.6203H39.9763V39.952H38.6446V38.6203Z" fill="black"/>
</svg>
