<svg width="32" height="40" viewBox="0 0 32 40" fill="none" xmlns="http://www.w3.org/2000/svg">
<path opacity="0.2" fill-rule="evenodd" clip-rule="evenodd" d="M15.326 5.51724C15.0054 3.94261 13.6252 2.75862 11.9493 2.75862C10.0455 2.75862 8.50224 4.29713 8.50224 6.21849V18.4369C5.80646 15.9147 2.72886 14.0335 0.768682 15.9944C-1.97136 18.7355 3.78305 24.1138 8.28276 32.3148C11.4002 37.9965 15.93 40 20.2221 40C26.6948 40 31.9419 34.7509 31.9419 28.2759V20.0197C31.9419 18.1152 30.4119 16.5713 28.4949 16.5713C27.7189 16.5713 27.0028 16.8255 26.4267 17.2567V17.2381C26.4267 15.3355 24.8967 13.7931 22.9797 13.7931C22.1051 13.7931 21.3066 14.1214 20.6989 14.6595C20.215 13.3482 18.9571 12.4138 17.4645 12.4138C16.6885 12.4138 15.9724 12.6694 15.3963 13.1012V6.89655H25.1168L20.6357 11.3793L21.6698 12.4138L27.8744 6.2069L21.6698 0L20.6357 1.03448L25.1168 5.51724H15.326ZM20.2203 38.6207C25.9325 38.6207 30.5631 33.6756 30.5631 28.2759C30.5631 28.2759 30.5631 31.4665 30.5631 28.2759V23.1023V20.0023C30.5631 18.8584 29.6451 17.931 28.4949 17.931C27.3527 17.931 26.4267 18.8568 26.4267 20.0023V20.6897H25.0479V17.2503C25.0479 16.1027 24.1299 15.1724 22.9797 15.1724C21.8375 15.1724 20.9115 16.0987 20.9115 17.2503V19.3103H19.5327V15.8709C19.5327 14.7234 18.6147 13.7931 17.4645 13.7931C16.3222 13.7931 15.3963 14.7194 15.3963 15.8709V20.6897H14.0175V6.21413C14.0175 5.06748 13.0995 4.13793 11.9493 4.13793C10.807 4.13793 9.88105 5.05811 9.88105 6.21413V21.7931C7.04291 18.758 3.30639 15.4195 1.7751 16.9596C0.276103 18.4673 4.13882 22.6217 9.53273 31.7008C11.963 35.7916 15.0382 38.6201 20.2203 38.6207Z" fill="black"/>
</svg>
