<svg width="30" height="30" viewBox="0 0 30 30" fill="none" xmlns="http://www.w3.org/2000/svg">
<path d="M29.9912 0H0.00878906C0.003935 0 0 0.003935 0 0.00878906V29.9912C0 29.9961 0.003935 30 0.00878906 30H29.9912C29.9961 30 30 29.9961 30 29.9912V0.00878906C30 0.003935 29.9961 0 29.9912 0Z" fill="#37AEE2"/>
<path d="M11.6602 23.6719C11.0156 23.6719 11.0742 23.4375 10.8984 22.8516L9.02344 16.6992L23.3789 8.26172" fill="#C8DAEA"/>
<path d="M11.6602 23.6719C12.0703 23.6719 12.3047 23.4375 12.5977 23.2031L15.2344 20.6836L11.9531 18.6914" fill="#A9C9DD"/>
<path d="M11.9532 18.6914L19.8634 24.4922C20.6837 25.0195 21.3868 24.7266 21.6212 23.6719L24.8439 8.5547C25.1368 7.26564 24.3165 6.6797 23.4376 7.08986L4.62903 14.3555C3.39856 14.8242 3.39856 15.5859 4.39465 15.8789L9.25793 17.4024L20.3907 10.3125C20.9181 10.0195 21.3868 10.1367 21.0353 10.5469" fill="#F6FBFE"/>
</svg>
