<svg width="30" height="30" viewBox="0 0 30 30" fill="none" xmlns="http://www.w3.org/2000/svg">
<path d="M29.9912 0H0.00878906C0.003935 0 0 0.003935 0 0.00878906V29.9912C0 29.9961 0.003935 30 0.00878906 30H29.9912C29.9961 30 30 29.9961 30 29.9912V0.00878906C30 0.003935 29.9961 0 29.9912 0Z" fill="#010101"/>
<path fill-rule="evenodd" clip-rule="evenodd" d="M18.8376 27.5998C19.7505 27.5998 20.4905 26.8658 20.4905 25.9604C20.4905 25.055 19.7505 24.3208 18.8376 24.3208H18.5886C19.5015 24.3208 20.2415 25.055 20.2415 25.9604C20.2415 26.8658 19.5015 27.5998 18.5886 27.5998H18.8376Z" fill="#EE1D51"/>
<path fill-rule="evenodd" clip-rule="evenodd" d="M18.5661 24.3208H18.3171C17.4042 24.3208 16.6641 25.055 16.6641 25.9604C16.6641 26.8658 17.4042 27.5998 18.3171 27.5998H18.5661C17.6531 27.5998 16.9131 26.8658 16.9131 25.9604C16.9131 25.055 17.6531 24.3208 18.5661 24.3208Z" fill="#66C8CF"/>
<path d="M18.5773 26.7574C19.0213 26.7574 19.3812 26.4005 19.3812 25.9602C19.3812 25.52 19.0213 25.1631 18.5773 25.1631C18.1333 25.1631 17.7734 25.52 17.7734 25.9602C17.7734 26.4005 18.1333 26.7574 18.5773 26.7574Z" fill="#010101"/>
<path fill-rule="evenodd" clip-rule="evenodd" d="M6 23.5801V24.4111H6.97344V27.5776H7.94724V24.4335H8.7396L9.01128 23.5801H6ZM13.9698 23.5801V24.4111H14.9432V27.5776H15.917V24.4335H16.7094L16.9811 23.5801H13.9698ZM9.1926 24.0517C9.1926 23.7913 9.40512 23.5801 9.66768 23.5801C9.93048 23.5801 10.1432 23.7913 10.1432 24.0517C10.1432 24.3121 9.9306 24.5233 9.66768 24.5233C9.40512 24.5232 9.1926 24.3121 9.1926 24.0517ZM9.1926 24.8602H10.1432V27.5776H9.1926V24.8602ZM10.5509 23.5801V27.5776H11.5019V26.5447L11.7962 26.2749L12.7244 27.6001H13.7432L12.4073 25.6687L13.6073 24.5007H12.4526L11.5019 25.4439V23.5801H10.5509ZM20.8073 23.5801V27.5776H21.7584V26.5447L22.0526 26.2749L22.9811 27.6001H24L22.664 25.6687L23.864 24.5007H22.7094L21.7584 25.4439V23.5801H20.8073Z" fill="white"/>
<path fill-rule="evenodd" clip-rule="evenodd" d="M19.34 9.7421C20.6532 10.6804 22.2622 11.2325 23.9998 11.2325V7.89038C23.6709 7.89051 23.3429 7.8562 23.0212 7.78802V10.4188C21.2837 10.4188 19.675 9.86666 18.3613 8.92838V15.7486C18.3613 19.1604 15.5942 21.9261 12.1808 21.9261C10.9072 21.9261 9.72339 21.5412 8.73999 20.8812C9.86235 22.0282 11.4275 22.7398 13.1591 22.7398C16.5728 22.7398 19.3401 19.9741 19.3401 16.5622V9.7421H19.34ZM20.5471 6.37034C19.876 5.6375 19.4354 4.69034 19.34 3.64322V3.21338H18.4126C18.646 4.54418 19.4422 5.68118 20.5471 6.37034ZM10.8989 18.2632C10.524 17.7718 10.3213 17.1706 10.3222 16.5525C10.3222 14.992 11.588 13.7268 13.1495 13.7268C13.4405 13.7266 13.7298 13.7713 14.0071 13.8592V10.4424C13.6831 10.398 13.356 10.3792 13.0289 10.3861V13.0456C12.7514 12.9577 12.462 12.913 12.1709 12.9132C10.6094 12.9132 9.34371 14.1784 9.34371 15.739C9.34371 16.8424 9.97635 17.7978 10.8989 18.2632Z" fill="#EE1D52"/>
<path fill-rule="evenodd" clip-rule="evenodd" d="M18.3615 8.92838C19.6751 9.86666 21.2838 10.4188 23.0213 10.4188V7.78802C22.0515 7.58162 21.1929 7.07498 20.5473 6.37034C19.4423 5.68118 18.6461 4.54418 18.4127 3.21338H15.9768V16.5621C15.9713 18.1182 14.7077 19.3782 13.1495 19.3782C12.2313 19.3782 11.4155 18.9408 10.8989 18.2632C9.97636 17.7978 9.34372 16.8424 9.34372 15.739C9.34372 14.1784 10.6094 12.9132 12.1709 12.9132C12.4701 12.9132 12.7584 12.9598 13.0289 13.0456V10.3861C9.67552 10.4554 6.97852 13.194 6.97852 16.5622C6.97852 18.2435 7.65016 19.7677 8.74012 20.8813C9.72352 21.5413 10.9073 21.9262 12.1809 21.9262C15.5943 21.9262 18.3615 19.1604 18.3615 15.7487V8.92838Z" fill="white"/>
<path fill-rule="evenodd" clip-rule="evenodd" d="M23.0213 7.78814V7.07678C22.1467 7.0781 21.2893 6.83329 20.5472 6.37034C21.2041 7.08912 22.069 7.58479 23.0213 7.78814ZM18.4127 3.2135C18.3904 3.08633 18.3733 2.95831 18.3614 2.82974V2.3999H14.9981V15.7487C14.9927 17.3047 13.7292 18.5647 12.1709 18.5647C11.7133 18.5647 11.2814 18.4563 10.8989 18.2633C11.4155 18.9409 12.2312 19.3783 13.1495 19.3783C14.7076 19.3783 15.9713 18.1183 15.9768 16.5622V3.2135H18.4127ZM13.029 10.3863V9.62894C12.748 9.59052 12.4646 9.57131 12.181 9.57146C8.7672 9.57146 6 12.3372 6 15.7487C6 17.8876 7.08756 19.7725 8.7402 20.8813C7.65024 19.7677 6.9786 18.2435 6.9786 16.5622C6.9786 13.1941 9.67548 10.4555 13.029 10.3863Z" fill="#69C9D0"/>
<path fill-rule="evenodd" clip-rule="evenodd" d="M18.5885 27.5998C19.5014 27.5998 20.2415 26.8658 20.2415 25.9604C20.2415 25.055 19.5014 24.3208 18.5885 24.3208H18.566C17.6531 24.3208 16.9131 25.055 16.9131 25.9604C16.9131 26.8658 17.6531 27.5998 18.566 27.5998H18.5885ZM17.7735 25.9604C17.7735 25.52 18.1335 25.1632 18.5775 25.1632C19.0211 25.1632 19.3811 25.52 19.3811 25.9604C19.3811 26.4008 19.0211 26.7578 18.5775 26.7578C18.1335 26.7576 17.7735 26.4008 17.7735 25.9604Z" fill="white"/>
</svg>
