<svg width="30" height="30" viewBox="0 0 30 30" fill="none" xmlns="http://www.w3.org/2000/svg">
<path d="M29.9912 0H0.00878906C0.003935 0 0 0.003935 0 0.00878906V29.9912C0 29.9961 0.003935 30 0.00878906 30H29.9912C29.9961 30 30 29.9961 30 29.9912V0.00878906C30 0.003935 29.9961 0 29.9912 0Z" fill="#25D366"/>
<path fill-rule="evenodd" clip-rule="evenodd" d="M15.0894 7.58667C13.3112 7.52993 11.5734 8.12399 10.2021 9.25739C8.83074 10.3908 7.92008 11.9857 7.64097 13.7427C7.36186 15.4998 7.73348 17.2983 8.68612 18.8009L8.85712 19.0706L8.24216 21.9258L11.0534 21.1351L11.3332 21.2892C12.8918 22.1471 14.7098 22.4069 16.4463 22.0197C18.1828 21.6326 19.7183 20.6251 20.7648 19.1863C21.8113 17.7476 22.2968 15.9764 22.1303 14.2051C21.9638 12.4338 21.1567 10.7841 19.8603 9.56558C18.564 8.34705 16.8676 7.64341 15.0894 7.58667ZM9.20827 8.05493C10.8724 6.67951 12.9813 5.95861 15.1392 6.02746C17.2971 6.09632 19.3557 6.95021 20.9288 8.42892C22.5019 9.90764 23.4814 11.9096 23.6835 14.0591C23.8855 16.2086 23.2963 18.358 22.0264 20.104C20.7564 21.8499 18.893 23.0725 16.7858 23.5424C14.7846 23.9885 12.6942 23.7267 10.8689 22.8075L6.17194 24.1286L7.1994 19.3582C6.16916 17.5932 5.77863 15.5229 6.10028 13.498C6.43899 11.3657 7.5441 9.43034 9.20827 8.05493Z" fill="white"/>
<path d="M18.0468 15.996C17.871 15.8788 17.6952 15.8202 17.5194 16.0546L16.8163 16.9921C16.6405 17.1093 16.5233 17.1679 16.289 17.0507C15.4101 16.5819 14.1796 16.0546 13.1249 14.2968C13.0663 14.0624 13.1835 13.9452 13.3007 13.828L13.828 13.0077C13.9452 12.8905 13.8866 12.7733 13.828 12.6562L13.1249 10.9569C12.9491 10.4882 12.7733 10.5468 12.5976 10.5468H12.1288C12.0116 10.5468 11.7773 10.6054 11.5429 10.8397C10.2538 12.1288 10.7812 13.9452 11.7187 15.1171C11.8944 15.3515 13.0663 17.4608 15.5858 18.5741C17.4608 19.3944 17.871 19.2772 18.3983 19.1601C19.0429 19.1015 19.6874 18.5741 19.9804 18.0468C20.039 17.871 20.3319 17.1093 20.0976 16.9921" fill="white"/>
</svg>
