<svg width="30" height="30" viewBox="0 0 30 30" fill="none" xmlns="http://www.w3.org/2000/svg">
<path d="M29.9912 0H0.00878906C0.003935 0 0 0.003935 0 0.00878906V29.9912C0 29.9961 0.003935 30 0.00878906 30H29.9912C29.9961 30 30 29.9961 30 29.9912V0.00878906C30 0.003935 29.9961 0 29.9912 0Z" fill="#ED1D24"/>
<path d="M25.0196 9.90214C24.7852 9.02324 24.0235 8.32011 23.1446 8.08574C21.1524 7.55839 9.14067 7.4998 6.85551 8.08574C5.97661 8.32011 5.21489 9.02324 4.98051 9.90214C4.45317 12.1287 4.39458 17.8123 4.98051 20.0975C5.21489 20.9764 5.97661 21.6795 6.85551 21.9139C8.96489 22.4998 20.9766 22.4998 23.1446 21.9139C24.0235 21.6795 24.7852 20.9764 25.0196 20.0975C25.5469 17.9881 25.5469 12.0701 25.0196 9.90214Z" fill="white"/>
<path d="M12.8906 11.8945V18.1055L18.3398 15" fill="#ED1D24"/>
</svg>
