<svg width="36" height="36" viewBox="0 0 36 36" fill="none" xmlns="http://www.w3.org/2000/svg">
<path d="M30.2855 30.244C33.5187 26.9893 35.3334 22.5878 35.3334 18C35.3334 13.4123 33.5187 9.01073 30.2855 5.75596V5.7146H30.2441C26.9894 2.48135 22.5879 0.666748 18.0001 0.666748C13.4123 0.666748 9.01081 2.48135 5.75605 5.7146H5.71468V5.75596C2.48143 9.01073 0.666748 13.4123 0.666748 18C0.666748 22.5878 2.48143 26.9893 5.71468 30.244V30.2854H5.75605C9.01081 33.5187 13.4123 35.3333 18.0001 35.3333C22.5879 35.3333 26.9894 33.5187 30.2441 30.2854H30.2855V30.244ZM27.332 26.1903C27.1738 26.0548 26.9702 25.9839 26.7619 25.992C26.5538 26 26.3562 26.0864 26.2089 26.2337C26.0615 26.381 25.9753 26.5785 25.9672 26.7867C25.9592 26.995 26.03 27.1985 26.1655 27.3568L28.4737 29.6649C25.8119 32.088 22.3965 33.5196 18.8026 33.7187V30.4095C18.8026 30.1901 18.7154 29.9797 18.5602 29.8245C18.4051 29.6694 18.1947 29.5822 17.9753 29.5822C17.7559 29.5822 17.5454 29.6694 17.3903 29.8245C17.2352 29.9797 17.148 30.1901 17.148 30.4095V33.7187C13.554 33.5196 10.1386 32.088 7.47683 29.6649L9.785 27.3568C9.92051 27.1985 9.99133 26.995 9.9833 26.7867C9.97528 26.5785 9.88899 26.381 9.74165 26.2337C9.5943 26.0864 9.39675 26 9.1886 25.992C8.98037 25.9839 8.77677 26.0548 8.6185 26.1903L6.31034 28.4984C3.90232 25.8309 2.48557 22.416 2.29793 18.8273H5.56577C5.78517 18.8273 5.99563 18.7402 6.15075 18.585C6.30587 18.4299 6.39307 18.2194 6.39307 18C6.39307 17.7806 6.30587 17.5702 6.15075 17.415C5.99563 17.2599 5.78517 17.1727 5.56577 17.1727H2.29793C2.48557 13.584 3.90232 10.1691 6.31034 7.50157L8.6185 9.80973C8.77354 9.96386 8.98318 10.0503 9.20175 10.0503C9.42032 10.0503 9.62996 9.96386 9.785 9.80973C9.93912 9.65478 10.0256 9.44506 10.0256 9.22649C10.0256 9.00791 9.93912 8.79828 9.785 8.64324L7.47683 6.33507C10.1444 3.92714 13.5592 2.5103 17.148 2.32267V5.5905C17.148 5.8099 17.2352 6.02037 17.3903 6.17549C17.5454 6.33069 17.7559 6.4178 17.9753 6.4178C18.1947 6.4178 18.4051 6.33069 18.5602 6.17549C18.7154 6.02037 18.8026 5.8099 18.8026 5.5905V2.32267C22.3913 2.5103 25.8062 3.92714 28.4737 6.33507L26.1655 8.64324C26.0115 8.79828 25.925 9.00791 25.925 9.22649C25.925 9.44506 26.0115 9.65478 26.1655 9.80973C26.3206 9.96386 26.5302 10.0503 26.7488 10.0503C26.9674 10.0503 27.177 9.96386 27.332 9.80973L29.6402 7.50157C32.0633 10.1633 33.4949 13.5788 33.694 17.1727H30.3848C30.1654 17.1727 29.9549 17.2599 29.7998 17.415C29.6447 17.5702 29.5575 17.7806 29.5575 18C29.5575 18.2194 29.6447 18.4299 29.7998 18.585C29.9549 18.7402 30.1654 18.8273 30.3848 18.8273H33.694C33.4949 22.4213 32.0633 25.8368 29.6402 28.4984L27.332 26.1903Z" fill="#CE2127"/>
<path d="M18.8028 17.6613V12.2094C18.8028 11.99 18.7157 11.7795 18.5605 11.6244C18.4054 11.4693 18.1949 11.3821 17.9755 11.3821C17.7561 11.3821 17.5456 11.4693 17.3905 11.6244C17.2354 11.7795 17.1482 11.99 17.1482 12.2094V18.0005C17.1476 18.1094 17.1685 18.2173 17.2096 18.3181C17.2508 18.4188 17.3114 18.5106 17.3881 18.5879L23.1792 24.379C23.2562 24.4565 23.3477 24.518 23.4484 24.5601C23.5493 24.6021 23.6574 24.6237 23.7666 24.6237C23.8758 24.6237 23.9839 24.6021 24.0848 24.5601C24.1856 24.518 24.2771 24.4565 24.354 24.379C24.4315 24.302 24.4931 24.2105 24.5351 24.1098C24.5771 24.0089 24.5987 23.9008 24.5987 23.7916C24.5987 23.6824 24.5771 23.5742 24.5351 23.4734C24.4931 23.3726 24.4315 23.2811 24.354 23.2042L18.8028 17.6613Z" fill="#CE2127"/>
</svg>
