<svg width="41" height="40" viewBox="0 0 41 40" fill="none" xmlns="http://www.w3.org/2000/svg">
<path d="M12 15.4167C12.221 15.4167 12.433 15.3289 12.5893 15.1727C12.7455 15.0164 12.8333 14.8044 12.8333 14.5834C12.8333 14.3624 12.7455 14.1504 12.5893 13.9942C12.433 13.8379 12.221 13.7501 12 13.7501H10.75V12.5001C10.75 12.2791 10.6622 12.0671 10.5059 11.9108C10.3497 11.7546 10.1377 11.6667 9.91667 11.6667C9.69567 11.6667 9.48367 11.7546 9.32742 11.9108C9.17117 12.0671 9.08333 12.2791 9.08333 12.5001V13.7501H7.83333C7.61232 13.7501 7.40036 13.8379 7.24407 13.9942C7.0878 14.1504 7 14.3624 7 14.5834C7 14.8044 7.0878 15.0164 7.24407 15.1727C7.40036 15.3289 7.61232 15.4167 7.83333 15.4167H9.08333V16.6667C9.08333 16.8877 9.17117 17.0997 9.32742 17.256C9.48367 17.4122 9.69567 17.5001 9.91667 17.5001C10.1377 17.5001 10.3497 17.4122 10.5059 17.256C10.6622 17.0997 10.75 16.8877 10.75 16.6667V15.4167H12Z" fill="#CE2127"/>
<path d="M30.7498 13.3334C31.2101 13.3334 31.5832 12.9603 31.5832 12.5001C31.5832 12.0398 31.2101 11.6667 30.7498 11.6667C30.2896 11.6667 29.9165 12.0398 29.9165 12.5001C29.9165 12.9603 30.2896 13.3334 30.7498 13.3334Z" fill="#CE2127"/>
<path d="M30.7498 17.4999C31.2101 17.4999 31.5832 17.1268 31.5832 16.6666C31.5832 16.2063 31.2101 15.8333 30.7498 15.8333C30.2896 15.8333 29.9165 16.2063 29.9165 16.6666C29.9165 17.1268 30.2896 17.4999 30.7498 17.4999Z" fill="#CE2127"/>
<path d="M32.8333 15.4167C33.2936 15.4167 33.6667 15.0436 33.6667 14.5833C33.6667 14.1231 33.2936 13.75 32.8333 13.75C32.3731 13.75 32 14.1231 32 14.5833C32 15.0436 32.3731 15.4167 32.8333 15.4167Z" fill="#CE2127"/>
<path d="M28.6666 15.4167C29.1268 15.4167 29.4999 15.0436 29.4999 14.5833C29.4999 14.1231 29.1268 13.75 28.6666 13.75C28.2063 13.75 27.8333 14.1231 27.8333 14.5833C27.8333 15.0436 28.2063 15.4167 28.6666 15.4167Z" fill="#CE2127"/>
<path d="M14.0832 18.3333C13.5063 18.3333 12.9424 18.5043 12.4627 18.8248C11.9831 19.1453 11.6092 19.6008 11.3885 20.1338C11.1677 20.6667 11.11 21.2532 11.2226 21.8189C11.3351 22.3847 11.6128 22.9044 12.0207 23.3123C12.4287 23.7203 12.9484 23.998 13.5142 24.1105C14.0799 24.2231 14.6664 24.1653 15.1993 23.9446C15.7322 23.7238 16.1878 23.35 16.5082 22.8703C16.8287 22.3907 16.9998 21.8268 16.9998 21.2499C16.9998 20.4763 16.6926 19.7345 16.1456 19.1875C15.5986 18.6405 14.8567 18.3333 14.0832 18.3333ZM14.0832 22.4999C13.8359 22.4999 13.5942 22.4266 13.3887 22.2893C13.1832 22.1519 13.0229 21.9567 12.9283 21.7283C12.8337 21.4998 12.8089 21.2485 12.8572 21.0061C12.9054 20.7636 13.0245 20.5408 13.1992 20.366C13.3741 20.1913 13.5968 20.0722 13.8393 20.0239C14.0817 19.9757 14.3331 20.0005 14.5615 20.0951C14.7899 20.1897 14.9852 20.3499 15.1225 20.5554C15.2598 20.761 15.3332 21.0027 15.3332 21.2499C15.3332 21.5814 15.2015 21.8994 14.9671 22.1338C14.7327 22.3683 14.4147 22.4999 14.0832 22.4999Z" fill="#CE2127"/>
<path d="M26.5832 18.3333C26.0063 18.3333 25.4424 18.5043 24.9627 18.8248C24.4831 19.1453 24.1092 19.6008 23.8885 20.1338C23.6677 20.6667 23.61 21.2532 23.7226 21.8189C23.8351 22.3847 24.1128 22.9044 24.5207 23.3123C24.9287 23.7203 25.4484 23.998 26.0142 24.1105C26.5799 24.2231 27.1664 24.1653 27.6993 23.9446C28.2322 23.7238 28.6878 23.35 29.0082 22.8703C29.3287 22.3907 29.4998 21.8268 29.4998 21.2499C29.4998 20.4763 29.1925 19.7345 28.6456 19.1875C28.0986 18.6405 27.3567 18.3333 26.5832 18.3333ZM26.5832 22.4999C26.3359 22.4999 26.0942 22.4266 25.8887 22.2893C25.6832 22.1519 25.5229 21.9567 25.4283 21.7283C25.3337 21.4998 25.3089 21.2485 25.3572 21.0061C25.4054 20.7636 25.5245 20.5408 25.6992 20.366C25.8741 20.1913 26.0968 20.0722 26.3393 20.0239C26.5817 19.9757 26.8331 20.0005 27.0615 20.0951C27.2899 20.1897 27.4852 20.3499 27.6225 20.5554C27.7598 20.761 27.8332 21.0027 27.8332 21.2499C27.8332 21.5814 27.7015 21.8994 27.4671 22.1338C27.2327 22.3683 26.9147 22.4999 26.5832 22.4999Z" fill="#CE2127"/>
<path d="M18.6667 15.8333H17.8333C17.6123 15.8333 17.4003 15.9211 17.2441 16.0773C17.0878 16.2336 17 16.4456 17 16.6666C17 16.8876 17.0878 17.0996 17.2441 17.2558C17.4003 17.4121 17.6123 17.4999 17.8333 17.4999H18.6667C18.8877 17.4999 19.0997 17.4121 19.2559 17.2558C19.4122 17.0996 19.5 16.8876 19.5 16.6666C19.5 16.4456 19.4122 16.2336 19.2559 16.0773C19.0997 15.9211 18.8877 15.8333 18.6667 15.8333Z" fill="#CE2127"/>
<path d="M22.8332 15.8333H21.9998C21.7788 15.8333 21.5668 15.9211 21.4106 16.0773C21.2543 16.2336 21.1665 16.4456 21.1665 16.6666C21.1665 16.8876 21.2543 17.0996 21.4106 17.2558C21.5668 17.4121 21.7788 17.4999 21.9998 17.4999H22.8332C23.0542 17.4999 23.2662 17.4121 23.4224 17.2558C23.5787 17.0996 23.6665 16.8876 23.6665 16.6666C23.6665 16.4456 23.5787 16.2336 23.4224 16.0773C23.2662 15.9211 23.0542 15.8333 22.8332 15.8333Z" fill="#CE2127"/>
<path d="M37.4015 12.2859C37.1441 11.3244 36.6998 10.4231 36.0939 9.63335C35.488 8.8436 34.7325 8.18098 33.8705 7.68331C33.0085 7.18563 32.0568 6.86267 31.07 6.73286C30.0832 6.60305 29.0804 6.66894 28.119 6.92677C26.5346 7.43739 25.1326 8.3971 24.0832 9.68927C24.0013 9.78927 23.8978 9.86918 23.7804 9.9231C23.663 9.97693 23.5348 10.0033 23.4057 10.0001H17.264C17.1349 10.0031 17.0068 9.97668 16.8894 9.92285C16.772 9.86893 16.6684 9.7891 16.5865 9.68927C15.5367 8.39685 14.134 7.43711 12.549 6.92677C11.5875 6.66869 10.5846 6.60261 9.5975 6.7323C8.61048 6.86199 7.65865 7.18491 6.79645 7.6826C5.93426 8.18029 5.17858 8.84302 4.57261 9.63285C3.96664 10.4228 3.52225 11.3243 3.26484 12.2859C-0.143497 25.0076 0.594005 31.8334 5.51984 33.1526C8.57567 33.9726 11.3532 32.0693 13.7957 27.4918C13.894 27.4976 13.989 27.5001 14.0832 27.5001C15.6583 27.505 17.1758 26.9089 18.3265 25.8334H22.3398C23.4905 26.9089 25.0081 27.505 26.5832 27.5001C26.6773 27.5001 26.7723 27.5001 26.8707 27.4918C28.9432 31.3784 31.2623 33.3376 33.7873 33.3376C34.2468 33.3359 34.7041 33.2738 35.1473 33.1526C40.0723 31.8334 40.8098 25.0076 37.4015 12.2859ZM34.7148 31.5434C32.414 32.1593 30.189 30.3709 28.0932 26.2301C28.0145 26.0749 27.8893 25.9483 27.7351 25.8679C27.5809 25.7875 27.4053 25.7574 27.2332 25.7818C27.018 25.8141 26.8008 25.8313 26.5832 25.8334C25.9658 25.8351 25.3547 25.7108 24.7869 25.4683C24.2193 25.2257 23.707 24.8698 23.2815 24.4226C23.2037 24.3416 23.1102 24.2772 23.0068 24.2332C22.9034 24.1893 22.7922 24.1667 22.6798 24.1668H17.9865C17.8742 24.1667 17.7629 24.1893 17.6595 24.2332C17.5562 24.2772 17.4627 24.3416 17.3848 24.4226C16.9593 24.8698 16.4471 25.2257 15.8794 25.4683C15.3117 25.7108 14.7005 25.8351 14.0832 25.8334C13.8656 25.8313 13.6483 25.8141 13.4332 25.7818C13.261 25.7574 13.0854 25.7875 12.9313 25.8679C12.777 25.9483 12.6518 26.0749 12.5732 26.2301C10.4773 30.3709 8.249 32.1601 5.9515 31.5434C2.21567 30.5434 1.84317 24.0318 4.874 12.7176C5.21148 11.4623 5.95258 10.353 6.98299 9.56077C8.0134 8.76843 9.27584 8.33718 10.5757 8.33343C11.0958 8.33377 11.6135 8.40243 12.1157 8.5376C13.3468 8.95077 14.4372 9.70152 15.2623 10.7043C15.5003 11.0065 15.8043 11.2503 16.1508 11.4172C16.4975 11.5839 16.8777 11.6693 17.2623 11.6668H23.404C23.7888 11.6692 24.1691 11.5836 24.5158 11.4165C24.8624 11.2493 25.1663 11.0052 25.404 10.7026C26.2293 9.70002 27.3196 8.94927 28.5507 8.53593C30.0653 8.13113 31.6788 8.3441 33.0366 9.12793C34.3943 9.91185 35.3855 11.2026 35.7923 12.7168C38.8232 24.0318 38.4507 30.5418 34.7148 31.5434Z" fill="#CE2127"/>
</svg>
