<svg width="41" height="40" viewBox="0 0 41 40" fill="none" xmlns="http://www.w3.org/2000/svg">
<g clip-path="url(#clip0_918_6888)">
<path d="M38.9999 14.9999H35.9597L34.5415 12.5312C34.1193 11.7935 33.4807 11.2034 32.7121 10.8407L26.8901 8.08292C25.7511 7.54079 24.4706 7.36979 23.2292 7.59401L8.07478 10.3049C7.9297 9.77724 7.61561 9.31165 7.18064 8.9795C6.74567 8.64735 6.21379 8.46696 5.6665 8.46596H3.1665C2.50368 8.46669 1.86822 8.73031 1.39954 9.199C0.930852 9.66768 0.667228 10.3031 0.666504 10.966L0.666504 21.8285C0.667228 22.4914 0.930852 23.1268 1.39954 23.5955C1.86822 24.0642 2.50368 24.3278 3.1665 24.3285H5.6665C6.27205 24.3276 6.85669 24.107 7.31197 23.7077C7.76725 23.3084 8.06226 22.7576 8.14229 22.1574L11.9604 23.92C12.0828 23.9764 12.209 24.0184 12.3331 24.0685V30.8335C12.3336 31.2754 12.5094 31.699 12.8219 32.0114C13.1344 32.3238 13.558 32.4995 13.9999 32.5H38.9999C39.4417 32.4995 39.8654 32.3238 40.1779 32.0113C40.4903 31.6989 40.6661 31.2752 40.6665 30.8333V16.6666C40.666 16.2247 40.4903 15.8011 40.1778 15.4886C39.8654 15.1762 39.4417 15.0004 38.9999 14.9999ZM6.49986 21.8285C6.49957 22.0495 6.41168 22.2613 6.25546 22.4175C6.09924 22.5737 5.88744 22.6616 5.6665 22.6619H3.1665C2.94557 22.6616 2.73377 22.5737 2.57755 22.4175C2.42133 22.2613 2.33343 22.0495 2.33314 21.8285V10.966C2.33343 10.745 2.42133 10.5333 2.57756 10.3771C2.73379 10.2209 2.94559 10.133 3.1665 10.1328H5.6665C5.88745 10.133 6.09927 10.2209 6.2555 10.3771C6.41174 10.5334 6.49962 10.7452 6.49986 10.9661V21.8285ZM8.1665 20.3332V11.9824L23.523 9.23495C24.4229 9.07274 25.3511 9.19676 26.1768 9.58956L31.9992 12.3474C32.4601 12.5651 32.8431 12.9191 33.0962 13.3616L34.0377 14.9999H17.1821C17.0328 14.9999 16.8863 15.04 16.7578 15.1161C16.6293 15.1921 16.5236 15.3012 16.4518 15.4321C16.3799 15.5629 16.3445 15.7107 16.3493 15.8599C16.3541 16.0091 16.3989 16.1543 16.479 16.2803L17.4388 17.7911C17.7477 18.2758 18.1532 18.6916 18.63 19.0125C19.1068 19.3334 19.6446 19.5525 20.2099 19.6562L26.7989 20.8541C27.0608 20.9018 27.2953 21.0457 27.4564 21.2575C27.6175 21.4693 27.6936 21.7338 27.6697 21.9988C27.6458 22.2639 27.5236 22.5104 27.3271 22.69C27.1307 22.8695 26.8742 22.9691 26.6081 22.9692H15.2246C14.3385 22.9705 13.4627 22.7785 12.6583 22.4067L8.1665 20.3332ZM28.7921 20.2742C29.3623 20.6502 29.8312 21.1606 30.1577 21.7604C30.4842 22.3603 30.6581 23.0312 30.6643 23.7141C30.6704 24.397 30.5085 25.071 30.1929 25.6766C29.8772 26.2822 29.4175 26.8009 28.8542 27.1871C28.2909 27.5732 27.6413 27.8149 26.9626 27.8908C26.2839 27.9668 25.5969 27.8747 24.9621 27.6227C24.3274 27.3706 23.7644 26.9664 23.3227 26.4455C22.8809 25.9247 22.5741 25.3032 22.4291 24.6358H26.608C27.115 24.6377 27.6126 24.498 28.0445 24.2323C28.4764 23.9667 28.8256 23.5857 29.0526 23.1323C29.2796 22.6789 29.3755 22.1711 29.3295 21.6662C29.2835 21.1612 29.0973 20.6791 28.792 20.2742H28.7921ZM38.9999 30.8333H13.9999V24.5286C14.4047 24.5965 14.8142 24.6323 15.2246 24.6357H15.6665V26.5156C15.6665 26.7366 15.7543 26.9486 15.9106 27.1048C16.0669 27.2611 16.2788 27.3489 16.4999 27.3489C16.7608 27.3494 17.0109 27.4532 17.1954 27.6377C17.38 27.8222 17.4838 28.0724 17.4842 28.3333C17.4842 28.5543 17.572 28.7663 17.7283 28.9226C17.8846 29.0789 18.0966 29.1667 18.3176 29.1667H19.8332C19.9433 29.1677 20.0526 29.147 20.1546 29.1056C20.2566 29.0642 20.3495 29.003 20.4277 28.9255C20.5059 28.848 20.5681 28.7558 20.6104 28.6541C20.6528 28.5525 20.6747 28.4435 20.6747 28.3333C20.6747 28.2232 20.6528 28.1142 20.6104 28.0126C20.5681 27.9109 20.5059 27.8187 20.4277 27.7412C20.3495 27.6637 20.2566 27.6025 20.1546 27.5611C20.0526 27.5197 19.9433 27.499 19.8332 27.5H19.0169C18.8861 27.108 18.6659 26.7517 18.3737 26.4595C18.0814 26.1672 17.7252 25.947 17.3331 25.8163V24.6358H20.7412C21.1725 27.4282 23.5983 29.5833 26.4998 29.5833C27.3733 29.5829 28.2356 29.3862 29.023 29.0079C29.8103 28.6296 30.5027 28.0793 31.0489 27.3976C31.5952 26.716 31.9813 25.9203 32.1789 25.0694C32.3765 24.2185 32.3805 23.3341 32.1905 22.4815C32.0006 21.6288 31.6215 20.8297 31.0814 20.1432C30.5413 19.4566 29.8539 18.9002 29.07 18.5148C28.286 18.1295 27.4255 17.9251 26.552 17.9169C25.6785 17.9086 24.8143 18.0966 24.0232 18.467C23.9445 18.5052 23.8723 18.5557 23.8094 18.6166L20.508 18.0164C20.1687 17.9543 19.8459 17.8228 19.5598 17.6303C19.2737 17.4378 19.0303 17.1882 18.845 16.8974L18.6985 16.6667H38.9999V30.8333Z" fill="#CE2127"/>
<path d="M34.6822 18.3333H33.1666C33.0565 18.3322 32.9473 18.353 32.8452 18.3944C32.7432 18.4358 32.6504 18.497 32.5721 18.5745C32.4939 18.652 32.4318 18.7442 32.3894 18.8458C32.347 18.9475 32.3252 19.0565 32.3252 19.1666C32.3252 19.2767 32.347 19.3858 32.3894 19.4874C32.4318 19.589 32.4939 19.6812 32.5721 19.7587C32.6504 19.8362 32.7432 19.8974 32.8452 19.9388C32.9473 19.9802 33.0565 20.001 33.1666 19.9999H33.9829C34.1136 20.392 34.3338 20.7482 34.6261 21.0405C34.9183 21.3327 35.2746 21.5529 35.6666 21.6837V25.8165C35.2746 25.9472 34.9184 26.1674 34.6261 26.4596C34.3339 26.7517 34.1137 27.1079 33.9829 27.4999H33.1666C33.0565 27.4989 32.9473 27.5196 32.8452 27.561C32.7432 27.6024 32.6504 27.6636 32.5721 27.7411C32.4939 27.8186 32.4318 27.9108 32.3894 28.0125C32.347 28.1141 32.3252 28.2231 32.3252 28.3333C32.3252 28.4434 32.347 28.5524 32.3894 28.654C32.4318 28.7557 32.4939 28.8479 32.5721 28.9254C32.6504 29.0029 32.7432 29.0641 32.8452 29.1055C32.9473 29.1469 33.0565 29.1676 33.1666 29.1666H34.6822C34.9033 29.1666 35.1152 29.0788 35.2715 28.9225C35.4278 28.7662 35.5156 28.5542 35.5156 28.3332C35.516 28.0723 35.6199 27.8221 35.8044 27.6376C35.9889 27.4531 36.239 27.3493 36.5 27.3488C36.721 27.3488 36.9329 27.261 37.0892 27.1048C37.2454 26.9485 37.3332 26.7365 37.3333 26.5156V20.9843C37.3333 20.7633 37.2455 20.5513 37.0892 20.395C36.9329 20.2387 36.7209 20.1509 36.4999 20.1509C36.239 20.1506 35.9888 20.0467 35.8043 19.8622C35.6198 19.6777 35.5159 19.4275 35.5155 19.1666C35.5155 18.9456 35.4277 18.7336 35.2714 18.5774C35.1152 18.4211 34.9032 18.3333 34.6822 18.3333Z" fill="#CE2127"/>
</g>
<defs>
<clipPath id="clip0_918_6888">
<rect width="40" height="40" fill="white" transform="translate(0.666504)"/>
</clipPath>
</defs>
</svg>
