<svg width="141" height="130" viewBox="0 0 141 130" fill="none" xmlns="http://www.w3.org/2000/svg">
<path d="M136.789 77.2489L67.6309 132.209C66.2569 133.354 65.7989 135.644 67.1729 137.018C67.8599 137.934 68.7759 138.392 69.9209 138.392C70.6079 138.392 71.5239 138.163 71.9819 137.705L141.14 82.745C142.514 81.6 142.972 79.31 141.598 77.936C140.453 76.333 138.392 76.1039 136.789 77.2489Z" fill="#CE2127"/>
<path d="M86.1798 101.752C87.0958 101.752 88.0118 101.752 88.9278 101.523C98.3168 100.149 104.958 91.218 103.355 81.6C102.668 77.02 100.149 72.898 96.4848 70.15C92.8208 67.402 88.2408 66.257 83.6608 66.944C79.0808 67.631 74.9588 70.15 72.2108 73.814C69.4628 77.478 68.3178 82.058 69.0048 86.638C70.3788 95.569 77.9358 101.752 86.1798 101.752ZM84.5768 74.043C85.0348 74.043 85.7218 73.814 86.1798 73.814C91.2178 73.814 95.7978 77.478 96.4848 82.745C97.4008 88.47 93.5078 93.737 87.7828 94.653C82.0578 95.569 76.7908 91.676 75.8748 85.951C74.9588 80.226 79.0808 74.959 84.5768 74.043Z" fill="#CE2127"/>
<path d="M122.82 113.202C113.202 113.202 105.416 120.988 105.416 130.606C105.416 140.224 113.202 148.01 122.82 148.01C132.438 148.01 140.224 140.224 140.224 130.606C139.995 120.988 132.209 113.202 122.82 113.202ZM122.82 140.911C117.095 140.911 112.286 136.102 112.286 130.377C112.286 124.652 117.095 119.843 122.82 119.843C128.545 119.843 133.354 124.652 133.354 130.377C133.125 136.331 128.545 140.911 122.82 140.911Z" fill="#CE2127"/>
<path d="M208.466 105.187C208.466 104.958 208.695 104.5 208.695 104.271C208.695 94.424 198.39 89.386 189.459 85.035C183.047 81.829 176.177 78.394 174.345 74.272C172.513 69.921 175.032 62.822 177.551 56.181C180.986 46.792 184.421 37.174 178.009 30.762C171.597 24.35 162.437 26.64 153.277 28.701C146.865 30.075 140.224 31.678 135.873 29.846C131.522 28.014 127.858 22.289 124.423 16.793C119.385 9.00699 113.889 0.0759888 104.271 0.0759888C94.6529 0.0759888 89.1569 9.00699 84.3479 17.022C80.9129 22.747 77.4779 28.472 73.1269 30.304C68.7759 32.136 61.9059 30.533 55.4939 28.93C46.3339 26.64 36.9449 24.35 30.7619 30.533C24.3499 36.945 27.5559 46.563 30.5329 55.952C32.8229 62.822 34.8839 69.692 33.0519 74.272C31.2199 78.623 24.8079 81.829 18.6249 85.035C9.92293 89.615 0.0759277 94.653 0.0759277 104.271C0.0759277 104.5 0.0759275 104.958 0.304928 105.187C0.304928 105.416 0.0759277 105.874 0.0759277 106.103C0.0759277 115.721 9.92293 120.988 18.6249 125.339C24.8079 128.545 31.2199 131.751 33.0519 136.102C34.8839 140.453 32.5939 147.552 30.5329 154.422C27.5559 163.811 24.3499 173.429 30.7619 179.841C37.1739 186.253 46.5629 183.734 55.4939 181.444C61.9059 179.841 68.7759 178.238 73.1269 180.07C77.4779 181.902 80.9129 187.627 84.3479 193.352C89.1569 201.367 94.6529 210.298 104.271 210.298C113.889 210.298 119.614 201.367 124.423 193.581C127.858 188.085 131.522 182.36 135.873 180.528C140.453 178.696 146.865 180.07 153.277 181.673C162.208 183.734 171.597 186.024 178.009 179.612C184.421 173.2 180.986 163.582 177.551 154.193C175.032 147.323 172.513 140.453 174.345 136.102C176.177 131.751 182.818 128.545 189.459 125.339C198.39 120.759 208.695 115.721 208.695 106.103C208.695 105.645 208.466 105.416 208.466 105.187ZM186.253 119.156C178.696 123.049 170.681 126.942 167.933 133.583C164.956 140.453 168.162 148.697 170.91 156.712C173.658 164.269 176.406 171.597 172.971 174.803C169.307 178.467 162.208 176.864 154.651 175.032C147.094 173.2 139.537 171.597 132.896 174.345C126.484 177.093 122.362 183.505 118.469 189.917C114.118 196.787 109.996 203.428 104.042 203.428C98.3169 203.428 94.1949 196.787 89.8439 189.688C85.9509 183.047 81.8289 176.406 75.4169 173.658C68.7759 170.91 60.9899 172.742 53.4329 174.803C45.8759 176.635 38.7769 178.467 35.1129 175.032C31.6779 171.597 33.9679 164.269 36.4869 156.712C39.0059 148.697 41.7539 140.453 38.7769 133.812C36.0289 127.171 28.4719 123.278 21.1439 119.614C13.5869 115.721 6.48793 112.057 6.48793 106.332C6.48793 106.103 6.48793 105.645 6.25893 105.416C6.25893 105.187 6.48793 104.729 6.48793 104.5C6.48793 99.004 13.5869 95.34 21.1439 91.218C28.4719 87.554 36.0289 83.661 38.7769 77.02C41.5249 70.15 39.0059 61.906 36.4869 54.12C33.9679 46.334 31.6779 39.006 35.1129 35.8C38.7769 32.136 45.8759 33.968 53.4329 36.029C60.9899 37.861 68.7759 39.922 75.4169 37.174C81.8289 34.426 85.9509 27.785 89.8439 21.144C94.1949 14.045 98.0879 7.40399 104.042 7.40399C109.996 7.40399 114.118 14.045 118.469 20.915C122.591 27.327 126.713 33.739 132.896 36.487C139.537 39.235 147.094 37.403 154.651 35.8C162.208 33.968 169.307 32.365 172.971 36.029C176.406 39.235 173.658 46.563 170.91 54.12C167.933 62.135 164.956 70.379 167.933 77.249C170.681 83.89 178.696 87.783 186.253 91.676C194.268 95.569 201.596 99.462 201.596 104.958C201.596 105.187 201.596 105.645 201.825 105.874C201.825 106.103 201.596 106.561 201.596 106.79C201.825 111.37 194.268 115.263 186.253 119.156Z" fill="#CE2127"/>
</svg>
