<svg width="198" height="170" viewBox="0 0 198 170" fill="none" xmlns="http://www.w3.org/2000/svg">
<path fill-rule="evenodd" clip-rule="evenodd" d="M107.424 47.4965L99.8579 50.7604C94.6422 38.5548 86.5667 27.7828 76.3137 19.353C70.3681 14.5228 63.7659 10.5625 56.7051 7.5912L59.9114 0C67.6922 3.2732 74.9665 7.63884 81.5146 12.9652C92.7984 22.2287 101.685 34.073 107.424 47.4965ZM140.398 50.7603C145.61 38.5538 153.686 27.7823 163.942 19.3569C169.884 14.5244 176.486 10.564 183.547 7.59506L180.34 0.0038636C172.559 3.27546 165.284 7.64126 158.737 12.9691C147.452 22.2337 138.564 34.0795 132.823 47.5046L140.398 50.7603ZM168.442 43.7132C176.289 35.4415 185.652 28.7541 196.021 24.0139C209.601 17.8535 224.494 15.1493 239.372 16.1424L239.908 7.90007C223.667 6.82725 207.413 9.78613 192.593 16.5133C181.27 21.6941 171.046 28.9982 162.475 38.0301L168.442 43.7132ZM110.239 65.2767C110.225 65.892 110.068 66.4953 109.781 67.0393L29.3354 224.262L26.2445 235.76L42.1936 240.046L40.0506 248L0.239899 237.326L2.38291 229.372L18.2906 233.658L21.3815 222.119L30.3246 45.774C30.365 45.1612 30.5369 44.5645 30.8286 44.0242C31.12 43.4839 31.5243 43.0124 32.0143 42.6419C32.5113 42.2768 33.0842 42.0279 33.6908 41.9137C34.297 41.8 34.921 41.8231 35.5173 41.9826L107.185 61.1872C107.776 61.3447 108.324 61.634 108.788 62.0337C109.253 62.4335 109.62 62.9329 109.863 63.4951C110.125 64.0518 110.254 64.6618 110.239 65.2767ZM100.137 67.8223L38.3197 51.2552L35.3112 110.27C37.3376 110.052 39.3809 110.038 41.4106 110.229C44.7009 110.713 48.0609 110.196 51.0541 108.746C54.1133 107.475 56.7146 105.304 58.5134 102.523C61.1765 98.6363 64.8938 95.5912 69.2285 93.7445C73.4692 91.7148 78.2069 90.9561 82.8696 91.5603C84.5671 91.7733 86.2856 91.7597 87.9798 91.5191L100.137 67.8223ZM40.7512 118.43C38.8006 118.213 36.8291 118.283 34.8991 118.636L30.5719 203.78L83.735 99.885L83.6203 99.8762C83.1283 99.8381 82.6692 99.8026 82.2102 99.8026C78.9372 99.2994 75.5883 99.8022 72.6079 101.245C69.5347 102.531 66.9206 104.715 65.1073 107.509C62.457 111.381 58.7529 114.413 54.4335 116.246C50.185 118.299 45.4271 119.059 40.7512 118.43ZM221.959 233.658L237.867 229.372L240.01 237.326L200.199 248L198.056 240.046L214.005 235.76L210.914 224.262L130.469 67.0393C130.192 66.492 130.041 65.8895 130.027 65.2767C130.013 64.6634 130.135 64.0547 130.386 63.4951C130.63 62.9329 130.997 62.4335 131.461 62.0337C131.925 61.634 132.473 61.3447 133.065 61.1872L204.732 41.9826C205.328 41.8231 205.953 41.8 206.559 41.9137C207.165 42.0279 207.738 42.2768 208.235 42.6419C208.725 43.0124 209.13 43.4839 209.421 44.0242C209.713 44.5645 209.885 45.1612 209.925 45.774L218.868 222.119L221.959 233.658ZM140.154 67.8223L152.27 91.5191C153.964 91.7597 155.683 91.7733 157.38 91.5603C162.043 90.9561 166.78 91.7148 171.021 93.7445C175.355 95.5912 179.073 98.6363 181.736 102.523C183.535 105.304 186.136 107.475 189.196 108.746C192.188 110.196 195.549 110.713 198.839 110.229C200.868 110.038 202.912 110.052 204.938 110.27L201.93 51.2552L140.154 67.8223ZM156.629 99.8762L156.515 99.885L209.678 203.78L205.351 118.636C203.407 118.282 201.421 118.213 199.457 118.43C194.795 119.056 190.051 118.296 185.816 116.246C181.496 114.413 177.792 111.381 175.142 107.509C173.329 104.715 170.715 102.531 167.642 101.245C164.661 99.8022 161.312 99.2994 158.039 99.8026C157.58 99.8026 157.121 99.8381 156.629 99.8762ZM71.8106 43.7131C63.9638 35.442 54.6014 28.7544 44.2317 24.0141C30.6512 17.8579 15.7593 15.1539 0.881257 16.1427L0.345504 7.90032C16.5861 6.82679 32.8403 9.78571 47.6605 16.5136C58.9838 21.6933 69.2076 28.9975 77.778 38.03L71.8106 43.7131Z" fill="#CE2127"/>
</svg>
