<svg width="202" height="180" viewBox="0 0 202 180" fill="none" xmlns="http://www.w3.org/2000/svg">
<path d="M96.7891 43.5898C108.797 43.5898 118.566 33.8205 118.566 21.8125C118.566 9.80447 108.797 0.0351562 96.7891 0.0351562C84.781 0.0351562 75.0117 9.80447 75.0117 21.8125C75.0117 33.8205 84.781 43.5898 96.7891 43.5898ZM96.7891 8.74609C103.994 8.74609 109.855 14.6077 109.855 21.8125C109.855 29.0173 103.994 34.8789 96.7891 34.8789C89.5842 34.8789 83.7227 29.0173 83.7227 21.8125C83.7227 14.6077 89.5842 8.74609 96.7891 8.74609Z" fill="#CE2127"/>
<path d="M57.5898 56.6562C67.1963 56.6562 75.0117 48.8408 75.0117 39.2344C75.0117 29.628 67.1963 21.8125 57.5898 21.8125C47.9834 21.8125 40.168 29.628 40.168 39.2344C40.168 48.8408 47.9834 56.6562 57.5898 56.6562ZM57.5898 30.5234C62.3931 30.5234 66.3008 34.4312 66.3008 39.2344C66.3008 44.0376 62.3931 47.9453 57.5898 47.9453C52.7866 47.9453 48.8789 44.0376 48.8789 39.2344C48.8789 34.4312 52.7866 30.5234 57.5898 30.5234Z" fill="#CE2127"/>
<path d="M22.3105 74.0781C31.677 74.0781 39.2969 66.4582 39.2969 57.0918C39.2969 47.7254 31.677 40.1055 22.3105 40.1055C12.9441 40.1055 5.32422 47.7254 5.32422 57.0918C5.32422 66.4582 12.9441 74.0781 22.3105 74.0781ZM22.3105 48.8164C26.8738 48.8164 30.5859 52.5286 30.5859 57.0918C30.5859 61.655 26.8738 65.3672 22.3105 65.3672C17.7473 65.3672 14.0352 61.655 14.0352 57.0918C14.0352 52.5286 17.7473 48.8164 22.3105 48.8164Z" fill="#CE2127"/>
<path d="M205.676 56.6562H196.965V43.5898C196.965 41.1843 195.014 39.2344 192.609 39.2344H162.121V30.5234C162.121 28.1179 160.171 26.168 157.766 26.168C155.361 26.168 153.41 28.1179 153.41 30.5234C153.41 40.6669 153.41 42.893 153.41 52.3008H75.0117C66.9088 52.3008 60.0803 57.8614 58.1413 65.3672H48.8789C39.2725 65.3672 31.457 73.1826 31.457 82.7891H22.7461C13.1397 82.7891 5.32422 90.6045 5.32422 100.211V152.477C5.32422 160.579 10.8848 167.408 18.3906 169.347C18.3906 173.543 18.3906 182.533 18.3906 187.32H5.32422C2.91869 187.32 0.96875 189.271 0.96875 191.676C0.96875 194.081 2.91869 196.031 5.32422 196.031C17.3209 196.031 199.211 196.031 205.676 196.031C208.081 196.031 210.031 194.081 210.031 191.676C210.031 189.271 208.081 187.32 205.676 187.32H162.121V74.0781H170.832V87.1445C170.832 89.5501 172.782 91.5 175.188 91.5H205.676C208.081 91.5 210.031 89.5501 210.031 87.1445V61.0117C210.031 58.6062 208.081 56.6562 205.676 56.6562ZM27.1016 113.277C27.1016 110.872 25.1516 108.922 22.7461 108.922C20.3406 108.922 18.3906 110.872 18.3906 113.277V160.009C15.7913 158.5 14.0352 155.693 14.0352 152.477V100.211C14.0352 95.4077 17.9429 91.5 22.7461 91.5H31.457V135.055C31.457 143.158 37.0177 149.987 44.5234 151.925V187.32H27.1016C27.1016 142.38 27.1016 155.552 27.1016 113.277ZM53.2344 104.566C53.2344 102.161 51.2844 100.211 48.8789 100.211C46.4734 100.211 44.5234 102.161 44.5234 104.566V142.587C41.9241 141.078 40.168 138.271 40.168 135.055V82.7891C40.168 77.9859 44.0757 74.0781 48.8789 74.0781H57.5898V121.988C57.5898 130.091 63.1505 136.92 70.6562 138.859V187.32H53.2344C53.2344 185.726 53.2344 106.844 53.2344 104.566ZM101.145 187.32V135.055C101.145 132.65 99.1946 130.699 96.7891 130.699C94.3835 130.699 92.4336 132.65 92.4336 135.055V187.32H79.3672C79.3672 184.529 79.3672 81.4254 79.3672 78.4336C79.3672 76.0281 77.4172 74.0781 75.0117 74.0781C72.6062 74.0781 70.6562 76.0281 70.6562 78.4336V129.521C68.0569 128.011 66.3008 125.204 66.3008 121.988V69.7227C66.3008 64.9194 70.2085 61.0117 75.0117 61.0117H152.241C150.732 63.6137 147.917 65.3672 144.699 65.3672H118.566C116.161 65.3672 114.211 67.3171 114.211 69.7227V187.32H101.145ZM122.922 187.32V74.0781H144.699C147.871 74.0781 150.845 73.2218 153.41 71.7344V187.32H122.922ZM162.121 47.9453H188.254C188.254 53.2381 188.254 60.1855 188.254 65.3672C185.092 65.3672 165.304 65.3672 162.121 65.3672V47.9453ZM201.32 82.7891H179.543V74.0781H192.609C195.014 74.0781 196.965 72.1282 196.965 69.7227V65.3672H201.32V82.7891Z" fill="#CE2127"/>
</svg>
